rawline-600i.ufo
<glyph name="exclam" format="2">
  <advance width="561"/>
  <unicode hex="0021"/>
  <outline>
    <contour>
      <point x="147" y="518" type="line"/>
      <point x="348" y="1468" type="line"/>
      <point x="573" y="1468" type="line"/>
      <point x="373" y="518" type="line"/>
    </contour>
    <contour>
      <point x="37" y="0" type="line"/>
      <point x="96" y="281" type="line"/>
      <point x="322" y="281" type="line"/>
      <point x="262" y="0" type="line"/>
    </contour>
  </outline>
</glyph>
<glyph name="quotedbl" format="2">
  <advance width="718"/>
  <unicode hex="0022"/>
  <outline>
    <contour>
      <point x="211" y="1026" type="line"/>
      <point x="307" y="1477" type="line"/>
      <point x="500" y="1477" type="line"/>
      <point x="403" y="1026" type="line"/>
    </contour>
    <contour>
      <point x="483" y="1026" type="line"/>
      <point x="580" y="1477" type="line"/>
      <point x="772" y="1477" type="line"/>
      <point x="676" y="1026" type="line"/>
    </contour>
  </outline>
</glyph>
<glyph name="numbersign" format="2">
  <advance width="1388"/>
  <unicode hex="0023"/>
  <outline>
    <contour>
      <point x="1372" y="893" type="line"/>
      <point x="1098" y="893" type="line"/>
      <point x="958" y="569" type="line"/>
      <point x="1212" y="569" type="line"/>
      <point x="1178" y="397" type="line"/>
      <point x="881" y="397" type="line"/>
      <point x="705" y="0" type="line"/>
      <point x="522" y="0" type="line"/>
      <point x="698" y="397" type="line"/>
      <point x="430" y="397" type="line"/>
      <point x="254" y="0" type="line"/>
      <point x="70" y="0" type="line"/>
      <point x="248" y="397" type="line"/>
      <point x="29" y="397" type="line"/>
      <point x="66" y="569" type="line"/>
      <point x="326" y="569" type="line"/>
      <point x="465" y="893" type="line"/>
      <point x="223" y="893" type="line"/>
      <point x="258" y="1053" type="line"/>
      <point x="539" y="1053" type="line"/>
      <point x="717" y="1454" type="line"/>
      <point x="899" y="1454" type="line"/>
      <point x="721" y="1053" type="line"/>
      <point x="991" y="1053" type="line"/>
      <point x="1167" y="1454" type="line"/>
      <point x="1350" y="1454" type="line"/>
      <point x="1171" y="1053" type="line"/>
      <point x="1407" y="1053" type="line"/>
    </contour>
    <contour>
      <point x="776" y="569" type="line"/>
      <point x="915" y="893" type="line"/>
      <point x="647" y="893" type="line"/>
      <point x="508" y="569" type="line"/>
    </contour>
  </outline>
</glyph>
<glyph name="dollar" format="2">
  <advance width="1234"/>
  <unicode hex="0024"/>
  <outline>
    <contour>
      <point x="743" y="825" type="qcurve" smooth="yes"/>
      <point x="835" y="800"/>
      <point x="962" y="747"/>
      <point x="1067" y="668"/>
      <point x="1118" y="556"/>
      <point x="1118" y="483" type="qcurve" smooth="yes"/>
      <point x="1118" y="385"/>
      <point x="1056" y="222"/>
      <point x="949" y="109"/>
      <point x="802" y="29"/>
      <point x="634" y="-11"/>
      <point x="541" y="-14" type="qcurve"/>
      <point x="496" y="-229" type="line"/>
      <point x="391" y="-229" type="line"/>
      <point x="438" y="-12" type="line"/>
      <point x="155" y="10"/>
      <point x="-23" y="182" type="qcurve"/>
      <point x="127" y="379" type="line"/>
      <point x="163" y="324"/>
      <point x="371" y="209"/>
      <point x="496" y="197" type="qcurve"/>
      <point x="586" y="618" type="line"/>
      <point x="579" y="620"/>
      <point x="545" y="631"/>
      <point x="535" y="633" type="qcurve" smooth="yes"/>
      <point x="363" y="683"/>
      <point x="201" y="823"/>
      <point x="201" y="944" type="qcurve" smooth="yes"/>
      <point x="201" y="1057"/>
      <point x="288" y="1247"/>
      <point x="439" y="1377"/>
      <point x="637" y="1454"/>
      <point x="750" y="1462" type="qcurve"/>
      <point x="795" y="1669" type="line"/>
      <point x="899" y="1669" type="line"/>
      <point x="854" y="1462" type="line"/>
      <point x="1084" y="1448"/>
      <point x="1243" y="1300" type="qcurve"/>
      <point x="1100" y="1112" type="line"/>
      <point x="1072" y="1159"/>
      <point x="897" y="1250"/>
      <point x="795" y="1257" type="qcurve"/>
      <point x="705" y="836" type="line"/>
      <point x="711" y="834"/>
      <point x="737" y="827"/>
    </contour>
    <contour>
      <point x="455" y="1022" type="qcurve" smooth="yes"/>
      <point x="455" y="961"/>
      <point x="542" y="887"/>
      <point x="637" y="856" type="qcurve"/>
      <point x="723" y="1260" type="line"/>
      <point x="591" y="1251"/>
      <point x="455" y="1124"/>
    </contour>
    <contour>
      <point x="569" y="193" type="line"/>
      <point x="708" y="196"/>
      <point x="860" y="312"/>
      <point x="860" y="414" type="qcurve" smooth="yes"/>
      <point x="860" y="479"/>
      <point x="759" y="561"/>
      <point x="655" y="596" type="qcurve"/>
    </contour>
  </outline>
</glyph>
<glyph name="percent" format="2">
  <advance width="1499"/>
  <unicode hex="0025"/>
  <outline>
    <contour>
      <point x="186" y="1118" type="qcurve" smooth="yes"/>
      <point x="186" y="1212"/>
      <point x="296" y="1378"/>
      <point x="473" y="1475"/>
      <point x="569" y="1475" type="qcurve" smooth="yes"/>
      <point x="683" y="1475"/>
      <point x="825" y="1331"/>
      <point x="825" y="1223" type="qcurve" smooth="yes"/>
      <point x="825" y="1129"/>
      <point x="715" y="963"/>
      <point x="537" y="866"/>
      <point x="440" y="866" type="qcurve" smooth="yes"/>
      <point x="328" y="866"/>
      <point x="186" y="1011"/>
    </contour>
    <contour>
      <point x="53" y="82" type="line"/>
      <point x="745" y="764" type="line"/>
      <point x="1407" y="1466" type="line"/>
      <point x="1493" y="1374" type="line"/>
      <point x="813" y="700" type="line"/>
      <point x="139" y="-12" type="line"/>
    </contour>
    <contour>
      <point x="664" y="1208" type="qcurve" smooth="yes"/>
      <point x="664" y="1272"/>
      <point x="597" y="1358"/>
      <point x="545" y="1358" type="qcurve" smooth="yes"/>
      <point x="472" y="1358"/>
      <point x="348" y="1218"/>
      <point x="348" y="1133" type="qcurve" smooth="yes"/>
      <point x="348" y="1069"/>
      <point x="413" y="983"/>
      <point x="465" y="983" type="qcurve" smooth="yes"/>
      <point x="539" y="983"/>
      <point x="664" y="1121"/>
    </contour>
    <contour>
      <point x="723" y="231" type="qcurve" smooth="yes"/>
      <point x="723" y="325"/>
      <point x="833" y="491"/>
      <point x="1010" y="588"/>
      <point x="1106" y="588" type="qcurve" smooth="yes"/>
      <point x="1219" y="588"/>
      <point x="1360" y="444"/>
      <point x="1360" y="336" type="qcurve" smooth="yes"/>
      <point x="1360" y="242"/>
      <point x="1251" y="76"/>
      <point x="1074" y="-20"/>
      <point x="977" y="-20" type="qcurve" smooth="yes"/>
      <point x="865" y="-20"/>
      <point x="723" y="124"/>
    </contour>
    <contour>
      <point x="1200" y="322" type="qcurve" smooth="yes"/>
      <point x="1200" y="385"/>
      <point x="1131" y="471"/>
      <point x="1079" y="471" type="qcurve" smooth="yes"/>
      <point x="1006" y="471"/>
      <point x="883" y="333"/>
      <point x="883" y="246" type="qcurve" smooth="yes"/>
      <point x="883" y="182"/>
      <point x="949" y="96"/>
      <point x="1001" y="96" type="qcurve" smooth="yes"/>
      <point x="1074" y="96"/>
      <point x="1200" y="236"/>
    </contour>
  </outline>
</glyph>
<glyph name="ampersand" format="2">
  <advance width="1400"/>
  <unicode hex="0026"/>
  <outline>
    <contour>
      <point x="1325" y="684" type="line"/>
      <point x="1141" y="684" type="line"/>
      <point x="1080" y="495"/>
      <point x="979" y="348" type="qcurve"/>
      <point x="1221" y="0" type="line"/>
      <point x="936" y="0" type="line"/>
      <point x="821" y="168" type="line"/>
      <point x="614" y="-20"/>
      <point x="389" y="-20" type="qcurve" smooth="yes"/>
      <point x="228" y="-20"/>
      <point x="33" y="177"/>
      <point x="33" y="326" type="qcurve" smooth="yes"/>
      <point x="33" y="391"/>
      <point x="73" y="511"/>
      <point x="135" y="602"/>
      <point x="234" y="695"/>
      <point x="327" y="762"/>
      <point x="391" y="803" type="qcurve"/>
      <point x="287" y="965"/>
      <point x="287" y="1081" type="qcurve" smooth="yes"/>
      <point x="287" y="1189"/>
      <point x="410" y="1370"/>
      <point x="614" y="1473"/>
      <point x="731" y="1473" type="qcurve" smooth="yes"/>
      <point x="849" y="1473"/>
      <point x="1030" y="1349"/>
      <point x="1069" y="1235" type="qcurve"/>
      <point x="913" y="1126" type="line"/>
      <point x="887" y="1206"/>
      <point x="771" y="1305"/>
      <point x="702" y="1305" type="qcurve" smooth="yes"/>
      <point x="620" y="1305"/>
      <point x="498" y="1193"/>
      <point x="498" y="1118" type="qcurve" smooth="yes"/>
      <point x="498" y="1076"/>
      <point x="553" y="960"/>
      <point x="623" y="860" type="qcurve" smooth="yes"/>
      <point x="874" y="500" type="line"/>
      <point x="960" y="662"/>
      <point x="989" y="852" type="qcurve"/>
      <point x="1356" y="852" type="line"/>
    </contour>
    <contour>
      <point x="442" y="156" type="qcurve" smooth="yes"/>
      <point x="590" y="156"/>
      <point x="733" y="299" type="qcurve"/>
      <point x="487" y="659" type="line"/>
      <point x="369" y="585"/>
      <point x="252" y="441"/>
      <point x="252" y="259"/>
      <point x="359" y="156"/>
    </contour>
  </outline>
</glyph>
<glyph name="quotesingle" format="2">
  <advance width="448"/>
  <unicode hex="0027"/>
  <outline>
    <contour>
      <point x="211" y="1024" type="line"/>
      <point x="307" y="1477" type="line"/>
      <point x="500" y="1477" type="line"/>
      <point x="403" y="1024" type="line"/>
    </contour>
  </outline>
</glyph>
<glyph name="parenleft" format="2">
  <advance width="595"/>
  <unicode hex="0028"/>
  <outline>
    <contour>
      <point x="561" y="1536" type="qcurve"/>
      <point x="717" y="1462" type="line"/>
      <point x="641" y="1368"/>
      <point x="504" y="1165"/>
      <point x="370" y="921"/>
      <point x="291" y="664"/>
      <point x="291" y="553" type="qcurve" smooth="yes"/>
      <point x="291" y="424"/>
      <point x="348" y="122"/>
      <point x="399" y="-12" type="qcurve"/>
      <point x="215" y="-96" type="line"/>
      <point x="153" y="49"/>
      <point x="80" y="385"/>
      <point x="80" y="537" type="qcurve" smooth="yes"/>
      <point x="80" y="642"/>
      <point x="132" y="854"/>
      <point x="209" y="1033"/>
      <point x="346" y="1251"/>
      <point x="467" y="1416"/>
    </contour>
  </outline>
</glyph>
<glyph name="parenright" format="2">
  <advance width="593"/>
  <unicode hex="0029"/>
  <outline>
    <contour>
      <point x="78" y="-96" type="qcurve"/>
      <point x="-72" y="-12" type="line"/>
      <point x="26" y="111"/>
      <point x="164" y="313"/>
      <point x="283" y="537"/>
      <point x="342" y="758"/>
      <point x="342" y="868" type="qcurve" smooth="yes"/>
      <point x="342" y="1021"/>
      <point x="276" y="1365"/>
      <point x="238" y="1462" type="qcurve"/>
      <point x="426" y="1536" type="line"/>
      <point x="557" y="1170"/>
      <point x="557" y="885" type="qcurve" smooth="yes"/>
      <point x="557" y="757"/>
      <point x="484" y="500"/>
      <point x="342" y="249"/>
      <point x="187" y="33"/>
    </contour>
  </outline>
</glyph>
<glyph name="asterisk" format="2">
  <advance width="673"/>
  <unicode hex="002A"/>
  <outline>
    <contour>
      <point x="258" y="1085" type="line"/>
      <point x="375" y="1223" type="line"/>
      <point x="250" y="1268" type="line"/>
      <point x="303" y="1370" type="line"/>
      <point x="428" y="1311" type="line"/>
      <point x="453" y="1466" type="line"/>
      <point x="575" y="1466" type="line"/>
      <point x="535" y="1311" type="line"/>
      <point x="688" y="1370" type="line"/>
      <point x="696" y="1268" type="line"/>
      <point x="551" y="1223" type="line"/>
      <point x="610" y="1085" type="line"/>
      <point x="508" y="1024" type="line"/>
      <point x="453" y="1169" type="line"/>
      <point x="334" y="1024" type="line"/>
    </contour>
  </outline>
</glyph>
<glyph name="plus" format="2">
  <advance width="862"/>
  <unicode hex="002B"/>
  <outline>
    <contour>
      <point x="778" y="817" type="line"/>
      <point x="778" y="637" type="line"/>
      <point x="553" y="637" type="line"/>
      <point x="553" y="389" type="line"/>
      <point x="348" y="389" type="line"/>
      <point x="348" y="637" type="line"/>
      <point x="121" y="637" type="line"/>
      <point x="121" y="817" type="line"/>
      <point x="348" y="817" type="line"/>
      <point x="348" y="1065" type="line"/>
      <point x="553" y="1065" type="line"/>
      <point x="553" y="817" type="line"/>
    </contour>
  </outline>
</glyph>
<glyph name="comma" format="2">
  <advance width="446"/>
  <unicode hex="002C"/>
  <outline>
    <contour>
      <point x="-23" y="-199" type="line"/>
      <point x="70" y="12" type="line"/>
      <point x="-2" y="12" type="line"/>
      <point x="49" y="262" type="line"/>
      <point x="250" y="262" type="line"/>
      <point x="199" y="12" type="line"/>
      <point x="82" y="-199" type="line"/>
    </contour>
  </outline>
</glyph>
<glyph name="hyphen" format="2">
  <advance width="827"/>
  <unicode hex="002D"/>
  <outline>
    <contour>
      <point x="88" y="459" type="line"/>
      <point x="131" y="662" type="line"/>
      <point x="715" y="662" type="line"/>
      <point x="672" y="459" type="line"/>
    </contour>
  </outline>
</glyph>
<glyph name="period" format="2">
  <advance width="434"/>
  <unicode hex="002E"/>
  <outline>
    <contour>
      <point x="-6" y="0" type="line"/>
      <point x="49" y="262" type="line"/>
      <point x="238" y="262" type="line"/>
      <point x="180" y="0" type="line"/>
    </contour>
  </outline>
</glyph>
<glyph name="slash" format="2">
  <advance width="1349"/>
  <unicode hex="002F"/>
  <outline>
    <contour>
      <point x="1456" y="1454" type="line"/>
      <point x="197" y="0" type="line"/>
      <point x="-53" y="0" type="line"/>
      <point x="1206" y="1454" type="line"/>
    </contour>
  </outline>
</glyph>
<glyph name="zero" format="2">
  <advance width="1216"/>
  <unicode hex="0030"/>
  <outline>
    <contour>
      <point x="88" y="457" type="qcurve" smooth="yes"/>
      <point x="88" y="612"/>
      <point x="196" y="898"/>
      <point x="374" y="1102"/>
      <point x="611" y="1223"/>
      <point x="737" y="1223" type="qcurve" smooth="yes"/>
      <point x="913" y="1223"/>
      <point x="1124" y="956"/>
      <point x="1124" y="743" type="qcurve" smooth="yes"/>
      <point x="1124" y="588"/>
      <point x="1015" y="303"/>
      <point x="836" y="101"/>
      <point x="598" y="-20"/>
      <point x="473" y="-20" type="qcurve" smooth="yes"/>
      <point x="297" y="-20"/>
      <point x="88" y="245"/>
    </contour>
    <contour>
      <point x="893" y="719" type="qcurve" smooth="yes"/>
      <point x="893" y="852"/>
      <point x="785" y="1014"/>
      <point x="694" y="1014" type="qcurve" smooth="yes"/>
      <point x="593" y="1014"/>
      <point x="418" y="870"/>
      <point x="315" y="624"/>
      <point x="315" y="481" type="qcurve" smooth="yes"/>
      <point x="315" y="347"/>
      <point x="422" y="188"/>
      <point x="516" y="188" type="qcurve" smooth="yes"/>
      <point x="614" y="188"/>
      <point x="788" y="330"/>
      <point x="893" y="576"/>
    </contour>
  </outline>
</glyph>
<glyph name="one" format="2">
  <advance width="931"/>
  <unicode hex="0031"/>
  <outline>
    <contour>
      <point x="47" y="203" type="line"/>
      <point x="324" y="203" type="line"/>
      <point x="475" y="918" type="line"/>
      <point x="429" y="869"/>
      <point x="199" y="764"/>
      <point x="125" y="764" type="qcurve"/>
      <point x="170" y="975" type="line"/>
      <point x="218" y="975"/>
      <point x="383" y="1057"/>
      <point x="511" y="1148"/>
      <point x="526" y="1169" type="qcurve"/>
      <point x="758" y="1169" type="line"/>
      <point x="553" y="203" type="line"/>
      <point x="801" y="203" type="line"/>
      <point x="758" y="0" type="line"/>
      <point x="2" y="0" type="line"/>
    </contour>
  </outline>
</glyph>
<glyph name="two" format="2">
  <advance width="1083"/>
  <unicode hex="0032"/>
  <outline>
    <contour>
      <point x="377" y="532" type="qcurve" smooth="yes"/>
      <point x="413" y="551"/>
      <point x="522" y="605"/>
      <point x="584" y="636"/>
      <point x="666" y="682"/>
      <point x="711" y="719"/>
      <point x="755" y="766"/>
      <point x="774" y="818"/>
      <point x="774" y="848" type="qcurve" smooth="yes"/>
      <point x="774" y="909"/>
      <point x="686" y="991"/>
      <point x="604" y="991" type="qcurve" smooth="yes"/>
      <point x="513" y="991"/>
      <point x="360" y="900"/>
      <point x="287" y="829" type="qcurve"/>
      <point x="178" y="995" type="line"/>
      <point x="211" y="1023"/>
      <point x="302" y="1081"/>
      <point x="435" y="1148"/>
      <point x="604" y="1190"/>
      <point x="688" y="1190" type="qcurve" smooth="yes"/>
      <point x="849" y="1190"/>
      <point x="1030" y="1035"/>
      <point x="1030" y="911" type="qcurve" smooth="yes"/>
      <point x="1030" y="872"/>
      <point x="1013" y="800"/>
      <point x="989" y="741"/>
      <point x="944" y="682"/>
      <point x="907" y="640"/>
      <point x="843" y="591"/>
      <point x="803" y="563"/>
      <point x="731" y="521"/>
      <point x="697" y="503"/>
      <point x="662" y="485" type="qcurve" smooth="yes"/>
      <point x="376" y="346"/>
      <point x="307" y="203" type="qcurve"/>
      <point x="905" y="203" type="line"/>
      <point x="862" y="0" type="line"/>
      <point x="-47" y="0" type="line"/>
      <point x="-8" y="185"/>
      <point x="175" y="428"/>
    </contour>
  </outline>
</glyph>
<glyph name="three" format="2">
  <advance width="1081"/>
  <unicode hex="0033"/>
  <outline>
    <contour>
      <point x="-86" y="-90" type="qcurve"/>
      <point x="82" y="66" type="line"/>
      <point x="148" y="-96"/>
      <point x="350" y="-96" type="qcurve" smooth="yes"/>
      <point x="501" y="-96"/>
      <point x="670" y="52"/>
      <point x="670" y="186" type="qcurve" smooth="yes"/>
      <point x="670" y="280"/>
      <point x="538" y="387"/>
      <point x="412" y="387" type="qcurve" smooth="yes"/>
      <point x="358" y="387" type="line"/>
      <point x="397" y="563" type="line"/>
      <point x="455" y="563" type="line" smooth="yes"/>
      <point x="600" y="563"/>
      <point x="776" y="716"/>
      <point x="776" y="831" type="qcurve" smooth="yes"/>
      <point x="776" y="903"/>
      <point x="677" y="981"/>
      <point x="592" y="981" type="qcurve" smooth="yes"/>
      <point x="497" y="981"/>
      <point x="327" y="891"/>
      <point x="264" y="807" type="qcurve"/>
      <point x="158" y="961" type="line"/>
      <point x="235" y="1059"/>
      <point x="510" y="1180"/>
      <point x="659" y="1180" type="qcurve" smooth="yes"/>
      <point x="827" y="1180"/>
      <point x="1024" y="1017"/>
      <point x="1024" y="881" type="qcurve" smooth="yes"/>
      <point x="1024" y="742"/>
      <point x="833" y="506"/>
      <point x="698" y="483" type="qcurve"/>
      <point x="794" y="464"/>
      <point x="903" y="310"/>
      <point x="903" y="199" type="qcurve" smooth="yes"/>
      <point x="903" y="-21"/>
      <point x="571" y="-301"/>
      <point x="313" y="-301" type="qcurve" smooth="yes"/>
      <point x="166" y="-301"/>
      <point x="-38" y="-192"/>
    </contour>
  </outline>
</glyph>
<glyph name="four" format="2">
  <advance width="1118"/>
  <unicode hex="0034"/>
  <outline>
    <contour>
      <point x="526" y="66" type="line"/>
      <point x="-63" y="66" type="line"/>
      <point x="-20" y="266" type="line"/>
      <point x="834" y="1169" type="line"/>
      <point x="987" y="1169" type="line"/>
      <point x="795" y="270" type="line"/>
      <point x="967" y="270" type="line"/>
      <point x="924" y="66" type="line"/>
      <point x="752" y="66" type="line"/>
      <point x="682" y="-260" type="line"/>
      <point x="457" y="-260" type="line"/>
    </contour>
    <contour>
      <point x="594" y="270" type="line"/>
      <point x="713" y="825" type="line"/>
      <point x="209" y="270" type="line"/>
    </contour>
  </outline>
</glyph>
<glyph name="five" format="2">
  <advance width="1087"/>
  <unicode hex="0035"/>
  <outline>
    <contour>
      <point x="-76" y="-43" type="qcurve"/>
      <point x="84" y="86" type="line"/>
      <point x="120" y="-1"/>
      <point x="267" y="-106"/>
      <point x="360" y="-106" type="qcurve" smooth="yes"/>
      <point x="497" y="-106"/>
      <point x="698" y="92"/>
      <point x="698" y="236" type="qcurve" smooth="yes"/>
      <point x="698" y="333"/>
      <point x="588" y="453"/>
      <point x="496" y="453" type="qcurve" smooth="yes"/>
      <point x="424" y="453"/>
      <point x="283" y="382"/>
      <point x="233" y="319" type="qcurve"/>
      <point x="35" y="319" type="line"/>
      <point x="53" y="362"/>
      <point x="356" y="1132"/>
      <point x="373" y="1169" type="qcurve"/>
      <point x="1051" y="1169" type="line"/>
      <point x="1006" y="963" type="line"/>
      <point x="494" y="963" type="line"/>
      <point x="342" y="565" type="line"/>
      <point x="426" y="649"/>
      <point x="567" y="649" type="qcurve" smooth="yes"/>
      <point x="732" y="649"/>
      <point x="934" y="441"/>
      <point x="934" y="274" type="qcurve" smooth="yes"/>
      <point x="934" y="175"/>
      <point x="869" y="-5"/>
      <point x="752" y="-145"/>
      <point x="598" y="-250"/>
      <point x="414" y="-305"/>
      <point x="317" y="-305" type="qcurve" smooth="yes"/>
      <point x="169" y="-305"/>
      <point x="-40" y="-164"/>
    </contour>
  </outline>
</glyph>
<glyph name="seven" format="2">
  <advance width="1085"/>
  <unicode hex="0037"/>
  <outline>
    <contour>
      <point x="791" y="987" type="line"/>
      <point x="131" y="987" type="line"/>
      <point x="174" y="1194" type="line"/>
      <point x="1190" y="1194" type="line"/>
      <point x="190" y="-260" type="line"/>
      <point x="-63" y="-260" type="line"/>
    </contour>
  </outline>
</glyph>
<glyph name="nine" format="2">
  <advance width="1175"/>
  <unicode hex="0039"/>
  <outline>
    <contour>
      <point x="1083" y="698" type="qcurve" smooth="yes"/>
      <point x="1083" y="919"/>
      <point x="875" y="1169"/>
      <point x="690" y="1169" type="qcurve" smooth="yes"/>
      <point x="531" y="1169"/>
      <point x="246" y="1008"/>
      <point x="72" y="734"/>
      <point x="72" y="578" type="qcurve" smooth="yes"/>
      <point x="72" y="405"/>
      <point x="287" y="178"/>
      <point x="459" y="178" type="qcurve" smooth="yes"/>
      <point x="565" y="178"/>
      <point x="755" y="285"/>
      <point x="817" y="377" type="qcurve"/>
      <point x="763" y="144"/>
      <point x="539" y="-119"/>
      <point x="397" y="-119" type="qcurve" smooth="yes"/>
      <point x="304" y="-119"/>
      <point x="168" y="-19"/>
      <point x="143" y="68" type="qcurve"/>
      <point x="-18" y="-72" type="line"/>
      <point x="28" y="-188"/>
      <point x="220" y="-315"/>
      <point x="352" y="-315" type="qcurve" smooth="yes"/>
      <point x="510" y="-315"/>
      <point x="785" y="-152"/>
      <point x="975" y="123"/>
      <point x="1083" y="494"/>
    </contour>
    <contour>
      <point x="289" y="610" type="qcurve" smooth="yes"/>
      <point x="289" y="704"/>
      <point x="395" y="876"/>
      <point x="561" y="977"/>
      <point x="647" y="977" type="qcurve" smooth="yes"/>
      <point x="745" y="977"/>
      <point x="872" y="829"/>
      <point x="872" y="721" type="qcurve" smooth="yes"/>
      <point x="872" y="578"/>
      <point x="653" y="358"/>
      <point x="516" y="358" type="qcurve" smooth="yes"/>
      <point x="417" y="358"/>
      <point x="289" y="503"/>
    </contour>
  </outline>
</glyph>
<glyph name="colon" format="2">
  <advance width="450"/>
  <unicode hex="003A"/>
  <outline>
    <contour>
      <point x="170" y="801" type="line"/>
      <point x="225" y="1061" type="line"/>
      <point x="412" y="1061" type="line"/>
      <point x="356" y="801" type="line"/>
    </contour>
    <contour>
      <point x="0" y="0" type="line"/>
      <point x="57" y="262" type="line"/>
      <point x="242" y="262" type="line"/>
      <point x="186" y="0" type="line"/>
    </contour>
  </outline>
</glyph>
<glyph name="semicolon" format="2">
  <advance width="456"/>
  <unicode hex="003B"/>
  <outline>
    <contour>
      <point x="172" y="801" type="line"/>
      <point x="227" y="1061" type="line"/>
      <point x="412" y="1061" type="line"/>
      <point x="356" y="801" type="line"/>
    </contour>
    <contour>
      <point x="-16" y="-199" type="line"/>
      <point x="76" y="12" type="line"/>
      <point x="4" y="12" type="line"/>
      <point x="55" y="262" type="line"/>
      <point x="256" y="262" type="line"/>
      <point x="203" y="12" type="line"/>
      <point x="88" y="-199" type="line"/>
    </contour>
  </outline>
</glyph>
<glyph name="less" format="2">
  <advance width="1124"/>
  <unicode hex="003C"/>
  <outline>
    <contour>
      <point x="61" y="582" type="line"/>
      <point x="922" y="1102" type="line"/>
      <point x="922" y="862" type="line"/>
      <point x="387" y="530" type="line"/>
      <point x="922" y="207" type="line"/>
      <point x="922" y="-43" type="line"/>
      <point x="61" y="469" type="line"/>
    </contour>
  </outline>
</glyph>
<glyph name="equal" format="2">
  <advance width="987"/>
  <unicode hex="003D"/>
  <outline>
    <contour>
      <point x="164" y="649" type="line"/>
      <point x="164" y="799" type="line"/>
      <point x="797" y="799" type="line"/>
      <point x="797" y="649" type="line"/>
    </contour>
    <contour>
      <point x="164" y="332" type="line"/>
      <point x="164" y="481" type="line"/>
      <point x="797" y="481" type="line"/>
      <point x="797" y="332" type="line"/>
    </contour>
  </outline>
</glyph>
<glyph name="greater" format="2">
  <advance width="1122"/>
  <unicode hex="003E"/>
  <outline>
    <contour>
      <point x="1024" y="469" type="line"/>
      <point x="162" y="-43" type="line"/>
      <point x="162" y="207" type="line"/>
      <point x="696" y="530" type="line"/>
      <point x="162" y="862" type="line"/>
      <point x="162" y="1102" type="line"/>
      <point x="1024" y="582" type="line"/>
    </contour>
  </outline>
</glyph>
<glyph name="question" format="2">
  <advance width="954"/>
  <unicode hex="003F"/>
  <outline>
    <contour>
      <point x="223" y="453" type="line"/>
      <point x="248" y="566"/>
      <point x="353" y="725"/>
      <point x="455" y="782" type="qcurve" smooth="yes"/>
      <point x="473" y="792"/>
      <point x="558" y="837"/>
      <point x="604" y="864"/>
      <point x="677" y="911"/>
      <point x="717" y="954"/>
      <point x="761" y="1012"/>
      <point x="780" y="1082"/>
      <point x="780" y="1122" type="qcurve" smooth="yes"/>
      <point x="780" y="1199"/>
      <point x="684" y="1288"/>
      <point x="612" y="1288" type="qcurve" smooth="yes"/>
      <point x="529" y="1288"/>
      <point x="377" y="1184"/>
      <point x="324" y="1108" type="qcurve"/>
      <point x="197" y="1208" type="line"/>
      <point x="274" y="1332"/>
      <point x="525" y="1473"/>
      <point x="659" y="1473" type="qcurve" smooth="yes"/>
      <point x="747" y="1473"/>
      <point x="891" y="1408"/>
      <point x="985" y="1261"/>
      <point x="985" y="1157" type="qcurve" smooth="yes"/>
      <point x="985" y="1084"/>
      <point x="951" y="963"/>
      <point x="901" y="880"/>
      <point x="813" y="803"/>
      <point x="736" y="755"/>
      <point x="676" y="723" type="qcurve" smooth="yes"/>
      <point x="669" y="719"/>
      <point x="600" y="683"/>
      <point x="581" y="672"/>
      <point x="524" y="636"/>
      <point x="502" y="615"/>
      <point x="460" y="573"/>
      <point x="440" y="536"/>
      <point x="418" y="483"/>
      <point x="412" y="453" type="qcurve"/>
    </contour>
    <contour>
      <point x="131" y="0" type="line"/>
      <point x="186" y="258" type="line"/>
      <point x="373" y="258" type="line"/>
      <point x="319" y="0" type="line"/>
    </contour>
  </outline>
</glyph>
<glyph name="at" format="2">
  <advance width="1660"/>
  <unicode hex="0040"/>
  <outline>
    <contour>
      <point x="1440" y="614" type="qcurve" smooth="yes"/>
      <point x="1440" y="718"/>
      <point x="1373" y="906"/>
      <point x="1247" y="1054"/>
      <point x="1048" y="1141"/>
      <point x="926" y="1141" type="qcurve" smooth="yes"/>
      <point x="779" y="1141"/>
      <point x="495" y="1015"/>
      <point x="278" y="802"/>
      <point x="145" y="500"/>
      <point x="145" y="336" type="qcurve" smooth="yes"/>
      <point x="145" y="180"/>
      <point x="261" y="-64"/>
      <point x="486" y="-205"/>
      <point x="635" y="-205" type="qcurve" smooth="yes"/>
      <point x="766" y="-205"/>
      <point x="950" y="-127" type="qcurve"/>
      <point x="961" y="-217" type="line"/>
      <point x="787" y="-299"/>
      <point x="614" y="-299" type="qcurve" smooth="yes"/>
      <point x="360" y="-299"/>
      <point x="45" y="45"/>
      <point x="45" y="326" type="qcurve" smooth="yes"/>
      <point x="45" y="481"/>
      <point x="148" y="767"/>
      <point x="326" y="986"/>
      <point x="556" y="1149"/>
      <point x="819" y="1235"/>
      <point x="950" y="1235" type="qcurve" smooth="yes"/>
      <point x="1086" y="1235"/>
      <point x="1312" y="1139"/>
      <point x="1459" y="976"/>
      <point x="1540" y="761"/>
      <point x="1540" y="641" type="qcurve" smooth="yes"/>
      <point x="1540" y="569"/>
      <point x="1513" y="398"/>
      <point x="1449" y="213"/>
      <point x="1359" y="64"/>
      <point x="1220" y="-33"/>
      <point x="1137" y="-33" type="qcurve" smooth="yes"/>
      <point x="1070" y="-33"/>
      <point x="989" y="33"/>
      <point x="989" y="102" type="qcurve" smooth="yes"/>
      <point x="989" y="129"/>
      <point x="993" y="143" type="qcurve"/>
      <point x="921" y="74"/>
      <point x="745" y="-4"/>
      <point x="657" y="-4" type="qcurve" smooth="yes"/>
      <point x="509" y="-4"/>
      <point x="332" y="211"/>
      <point x="332" y="373" type="qcurve" smooth="yes"/>
      <point x="332" y="482"/>
      <point x="417" y="692"/>
      <point x="555" y="847"/>
      <point x="741" y="942"/>
      <point x="836" y="942" type="qcurve" smooth="yes"/>
      <point x="938" y="942"/>
      <point x="1076" y="839"/>
      <point x="1104" y="756" type="qcurve"/>
      <point x="1137" y="922" type="line"/>
      <point x="1264" y="922" type="line"/>
      <point x="1116" y="219" type="line" smooth="yes"/>
      <point x="1108" y="183"/>
      <point x="1108" y="152" type="qcurve" smooth="yes"/>
      <point x="1108" y="74"/>
      <point x="1174" y="74" type="qcurve" smooth="yes"/>
      <point x="1232" y="74"/>
      <point x="1335" y="183"/>
      <point x="1401" y="348"/>
      <point x="1440" y="534"/>
    </contour>
    <contour>
      <point x="1010" y="336" type="qcurve"/>
      <point x="1055" y="608" type="line"/>
      <point x="1029" y="708"/>
      <point x="908" y="815"/>
      <point x="829" y="815" type="qcurve" smooth="yes"/>
      <point x="767" y="815"/>
      <point x="640" y="749"/>
      <point x="539" y="640"/>
      <point x="475" y="484"/>
      <point x="475" y="401" type="qcurve" smooth="yes"/>
      <point x="475" y="277"/>
      <point x="611" y="115"/>
      <point x="715" y="115" type="qcurve" smooth="yes"/>
      <point x="807" y="115"/>
      <point x="974" y="243"/>
    </contour>
  </outline>
</glyph>
<glyph name="F" format="2">
  <advance width="1148"/>
  <unicode hex="0046"/>
  <outline>
    <contour>
      <point x="340" y="1454" type="line"/>
      <point x="1262" y="1454" type="line"/>
      <point x="1219" y="1251" type="line"/>
      <point x="528" y="1251" type="line"/>
      <point x="436" y="817" type="line"/>
      <point x="1014" y="817" type="line"/>
      <point x="973" y="627" type="line"/>
      <point x="395" y="627" type="line"/>
      <point x="262" y="0" type="line"/>
      <point x="31" y="0" type="line"/>
    </contour>
  </outline>
</glyph>
<glyph name="H" format="2">
  <advance width="1464"/>
  <unicode hex="0048"/>
  <anchor x="0" y="0" name="Anchor-11"/>
  <anchor x="774" y="727" name="Anchor-10"/>
  <anchor x="928" y="1454" name="Anchor-9"/>
  <anchor x="0" y="0" name="Anchor-8"/>
  <anchor x="621" y="0" name="Anchor-7"/>
  <outline>
    <contour>
      <point x="340" y="1454" type="line"/>
      <point x="571" y="1454" type="line"/>
      <point x="442" y="846" type="line"/>
      <point x="1122" y="846" type="line"/>
      <point x="1251" y="1454" type="line"/>
      <point x="1481" y="1454" type="line"/>
      <point x="1171" y="0" type="line"/>
      <point x="942" y="0" type="line"/>
      <point x="1079" y="641" type="line"/>
      <point x="399" y="641" type="line"/>
      <point x="262" y="0" type="line"/>
      <point x="31" y="0" type="line"/>
    </contour>
  </outline>
</glyph>
<glyph name="I" format="2">
  <advance width="555"/>
  <unicode hex="0049"/>
  <anchor x="0" y="0" name="Anchor-11"/>
  <anchor x="0" y="0" name="Anchor-10"/>
  <anchor x="459" y="1454" name="Anchor-9"/>
  <anchor x="262" y="0" name="Anchor-8"/>
  <anchor x="150" y="0" name="Anchor-7"/>
  <outline>
    <contour>
      <point x="340" y="1452" type="line"/>
      <point x="571" y="1452" type="line"/>
      <point x="262" y="0" type="line"/>
      <point x="31" y="0" type="line"/>
    </contour>
  </outline>
</glyph>
<glyph name="J" format="2">
  <advance width="972"/>
  <unicode hex="004A"/>
  <anchor x="0" y="0" name="Anchor-11"/>
  <anchor x="0" y="0" name="Anchor-10"/>
  <anchor x="893" y="1450" name="Anchor-9"/>
  <anchor x="0" y="0" name="Anchor-8"/>
  <anchor x="0" y="0" name="Anchor-7"/>
  <outline>
    <contour>
      <point x="-84" y="68" type="qcurve"/>
      <point x="10" y="256" type="line"/>
      <point x="40" y="228"/>
      <point x="163" y="184"/>
      <point x="240" y="184" type="qcurve" smooth="yes"/>
      <point x="298" y="184"/>
      <point x="390" y="212"/>
      <point x="462" y="277"/>
      <point x="515" y="357"/>
      <point x="562" y="488"/>
      <point x="597" y="619"/>
      <point x="618" y="715" type="qcurve" smooth="yes"/>
      <point x="776" y="1452" type="line"/>
      <point x="1006" y="1452" type="line"/>
      <point x="848" y="715" type="line" smooth="yes"/>
      <point x="826" y="611"/>
      <point x="785" y="457"/>
      <point x="725" y="295"/>
      <point x="657" y="181"/>
      <point x="560" y="77"/>
      <point x="444" y="14"/>
      <point x="290" y="-23"/>
      <point x="197" y="-23" type="qcurve" smooth="yes"/>
      <point x="24" y="-23"/>
    </contour>
  </outline>
</glyph>
<glyph name="K" format="2">
  <advance width="1298"/>
  <unicode hex="004B"/>
  <anchor x="0" y="0" name="Anchor-11"/>
  <anchor x="0" y="0" name="Anchor-10"/>
  <anchor x="0" y="0" name="Anchor-9"/>
  <anchor x="0" y="0" name="Anchor-8"/>
  <anchor x="569" y="0" name="Anchor-7"/>
  <outline>
    <contour>
      <point x="340" y="1452" type="line"/>
      <point x="571" y="1452" type="line"/>
      <point x="412" y="705" type="line"/>
      <point x="1202" y="1454" type="line"/>
      <point x="1458" y="1454" type="line"/>
      <point x="780" y="811" type="line"/>
      <point x="1180" y="0" type="line"/>
      <point x="922" y="0" type="line"/>
      <point x="606" y="670" type="line"/>
      <point x="354" y="438" type="line"/>
      <point x="262" y="0" type="line"/>
      <point x="31" y="0" type="line"/>
    </contour>
  </outline>
</glyph>
<glyph name="O" format="2">
  <advance width="1484"/>
  <unicode hex="004F"/>
  <anchor x="1163" y="1364" name="Anchor-11"/>
  <anchor x="748" y="727" name="Anchor-10"/>
  <anchor x="928" y="1450" name="Anchor-9"/>
  <anchor x="705" y="0" name="Anchor-8"/>
  <anchor x="643" y="0" name="Anchor-7"/>
  <outline>
    <contour>
      <point x="84" y="592" type="qcurve" smooth="yes"/>
      <point x="84" y="754"/>
      <point x="226" y="1074"/>
      <point x="456" y="1315"/>
      <point x="766" y="1464"/>
      <point x="926" y="1464" type="qcurve" smooth="yes"/>
      <point x="1025" y="1464"/>
      <point x="1194" y="1398"/>
      <point x="1316" y="1283"/>
      <point x="1403" y="1129"/>
      <point x="1446" y="952"/>
      <point x="1446" y="858" type="qcurve" smooth="yes"/>
      <point x="1446" y="697"/>
      <point x="1305" y="379"/>
      <point x="1077" y="139"/>
      <point x="767" y="-10"/>
      <point x="608" y="-10" type="qcurve" smooth="yes"/>
      <point x="485" y="-10"/>
      <point x="283" y="89"/>
      <point x="154" y="257"/>
      <point x="84" y="473"/>
    </contour>
    <contour>
      <point x="1210" y="842" type="qcurve" smooth="yes"/>
      <point x="1210" y="955"/>
      <point x="1137" y="1139"/>
      <point x="984" y="1255"/>
      <point x="879" y="1255" type="qcurve" smooth="yes"/>
      <point x="764" y="1255"/>
      <point x="552" y="1138"/>
      <point x="406" y="954"/>
      <point x="319" y="723"/>
      <point x="319" y="497"/>
      <point x="392" y="313"/>
      <point x="546" y="197"/>
      <point x="653" y="197" type="qcurve" smooth="yes"/>
      <point x="768" y="197"/>
      <point x="979" y="315"/>
      <point x="1124" y="500"/>
      <point x="1210" y="730"/>
    </contour>
  </outline>
</glyph>
<glyph name="P" format="2">
  <advance width="1230"/>
  <unicode hex="0050"/>
  <outline>
    <contour>
      <point x="340" y="1454" type="line"/>
      <point x="922" y="1454" type="line" smooth="yes"/>
      <point x="1025" y="1454"/>
      <point x="1185" y="1340"/>
      <point x="1264" y="1163"/>
      <point x="1264" y="1061" type="qcurve" smooth="yes"/>
      <point x="1264" y="982"/>
      <point x="1209" y="820"/>
      <point x="1109" y="680"/>
      <point x="978" y="569"/>
      <point x="814" y="506"/>
      <point x="729" y="506" type="qcurve" smooth="yes"/>
      <point x="369" y="506" type="line"/>
      <point x="262" y="0" type="line"/>
      <point x="31" y="0" type="line"/>
    </contour>
    <contour>
      <point x="760" y="709" type="line" smooth="yes"/>
      <point x="866" y="709"/>
      <point x="1026" y="909"/>
      <point x="1026" y="1042" type="qcurve" smooth="yes"/>
      <point x="1026" y="1135"/>
      <point x="933" y="1251"/>
      <point x="862" y="1251" type="qcurve" smooth="yes"/>
      <point x="528" y="1251" type="line"/>
      <point x="412" y="709" type="line"/>
    </contour>
  </outline>
</glyph>
<glyph name="Q" format="2">
  <advance width="1482"/>
  <unicode hex="0051"/>
  <outline>
    <contour>
      <point x="1446" y="858" type="qcurve" smooth="yes"/>
      <point x="1446" y="680"/>
      <point x="1281" y="339"/>
      <point x="1141" y="211" type="qcurve"/>
      <point x="1276" y="0" type="line"/>
      <point x="1053" y="0" type="line"/>
      <point x="989" y="100" type="line"/>
      <point x="805" y="-10"/>
      <point x="608" y="-10" type="qcurve" smooth="yes"/>
      <point x="485" y="-10"/>
      <point x="283" y="89"/>
      <point x="153" y="257"/>
      <point x="82" y="473"/>
      <point x="82" y="592" type="qcurve" smooth="yes"/>
      <point x="82" y="722"/>
      <point x="173" y="982"/>
      <point x="335" y="1199"/>
      <point x="545" y="1369"/>
      <point x="798" y="1464"/>
      <point x="926" y="1464" type="qcurve" smooth="yes"/>
      <point x="1024" y="1464"/>
      <point x="1193" y="1398"/>
      <point x="1316" y="1283"/>
      <point x="1403" y="1129"/>
      <point x="1446" y="952"/>
    </contour>
    <contour>
      <point x="653" y="197" type="qcurve" smooth="yes"/>
      <point x="776" y="197"/>
      <point x="887" y="262" type="qcurve"/>
      <point x="733" y="506" type="line"/>
      <point x="952" y="506" type="line"/>
      <point x="1030" y="383" type="line"/>
      <point x="1115" y="478"/>
      <point x="1210" y="722"/>
      <point x="1210" y="842" type="qcurve" smooth="yes"/>
      <point x="1210" y="955"/>
      <point x="1137" y="1140"/>
      <point x="983" y="1257"/>
      <point x="877" y="1257" type="qcurve" smooth="yes"/>
      <point x="785" y="1257"/>
      <point x="611" y="1181"/>
      <point x="476" y="1051"/>
      <point x="373" y="887"/>
      <point x="319" y="700"/>
      <point x="319" y="610" type="qcurve" smooth="yes"/>
      <point x="319" y="497"/>
      <point x="392" y="313"/>
      <point x="546" y="197"/>
    </contour>
  </outline>
</glyph>
<glyph name="V" format="2">
  <advance width="1327"/>
  <unicode hex="0056"/>
  <outline>
    <contour>
      <point x="186" y="1454" type="line"/>
      <point x="430" y="1454" type="line"/>
      <point x="588" y="289" type="line"/>
      <point x="1239" y="1454" type="line"/>
      <point x="1483" y="1454" type="line"/>
      <point x="625" y="0" type="line"/>
      <point x="428" y="0" type="line"/>
    </contour>
  </outline>
</glyph>
<glyph name="Y" format="2">
  <advance width="1259"/>
  <unicode hex="0059"/>
  <anchor x="0" y="0" name="Anchor-11"/>
  <anchor x="0" y="0" name="Anchor-10"/>
  <anchor x="768" y="1450" name="Anchor-9"/>
  <anchor x="0" y="0" name="Anchor-8"/>
  <anchor x="0" y="0" name="Anchor-7"/>
  <outline>
    <contour>
      <point x="485" y="524" type="line"/>
      <point x="174" y="1454" type="line"/>
      <point x="426" y="1454" type="line"/>
      <point x="643" y="725" type="line"/>
      <point x="1176" y="1454" type="line"/>
      <point x="1425" y="1454" type="line"/>
      <point x="715" y="520" type="line"/>
      <point x="604" y="0" type="line"/>
      <point x="373" y="0" type="line"/>
    </contour>
  </outline>
</glyph>
<glyph name="Z" format="2">
  <advance width="1224"/>
  <unicode hex="005A"/>
  <anchor x="0" y="0" name="Anchor-11"/>
  <anchor x="0" y="0" name="Anchor-10"/>
  <anchor x="807" y="1454" name="Anchor-9"/>
  <anchor x="0" y="0" name="Anchor-8"/>
  <anchor x="500" y="0" name="Anchor-7"/>
  <outline>
    <contour>
      <point x="-33" y="176" type="line"/>
      <point x="1020" y="1251" type="line"/>
      <point x="217" y="1251" type="line"/>
      <point x="260" y="1454" type="line"/>
      <point x="1331" y="1454" type="line"/>
      <point x="1294" y="1278" type="line"/>
      <point x="262" y="203" type="line"/>
      <point x="1067" y="203" type="line"/>
      <point x="1024" y="0" type="line"/>
      <point x="-72" y="0" type="line"/>
    </contour>
  </outline>
</glyph>
<glyph name="bracketleft" format="2">
  <advance width="577"/>
  <unicode hex="005B"/>
  <outline>
    <contour>
      <point x="12" y="-82" type="line"/>
      <point x="352" y="1516" type="line"/>
      <point x="678" y="1516" type="line"/>
      <point x="641" y="1333" type="line"/>
      <point x="520" y="1333" type="line"/>
      <point x="258" y="100" type="line"/>
      <point x="379" y="100" type="line"/>
      <point x="340" y="-82" type="line"/>
    </contour>
  </outline>
</glyph>
<glyph name="backslash" format="2">
  <advance width="1185"/>
  <unicode hex="005C"/>
  <outline>
    <contour>
      <point x="473" y="1454" type="line"/>
      <point x="1010" y="0" type="line"/>
      <point x="760" y="0" type="line"/>
      <point x="221" y="1454" type="line"/>
    </contour>
  </outline>
</glyph>
<glyph name="bracketright" format="2">
  <advance width="579"/>
  <unicode hex="005D"/>
  <outline>
    <contour>
      <point x="-57" y="-82" type="line"/>
      <point x="-18" y="100" type="line"/>
      <point x="100" y="100" type="line"/>
      <point x="362" y="1333" type="line"/>
      <point x="244" y="1333" type="line"/>
      <point x="283" y="1516" type="line"/>
      <point x="610" y="1516" type="line"/>
      <point x="272" y="-82" type="line"/>
    </contour>
  </outline>
</glyph>
<glyph name="asciicircum" format="2">
  <advance width="1171"/>
  <unicode hex="005E"/>
  <outline>
    <contour>
      <point x="100" y="621" type="line"/>
      <point x="506" y="1454" type="line"/>
      <point x="696" y="1454" type="line"/>
      <point x="1100" y="621" type="line"/>
      <point x="911" y="621" type="line"/>
      <point x="602" y="1260" type="line"/>
      <point x="285" y="621" type="line"/>
    </contour>
  </outline>
</glyph>
<glyph name="underscore" format="2">
  <advance width="962"/>
  <unicode hex="005F"/>
  <outline>
    <contour>
      <point x="-55" y="-203" type="line"/>
      <point x="-12" y="0" type="line"/>
      <point x="709" y="0" type="line"/>
      <point x="666" y="-203" type="line"/>
    </contour>
  </outline>
</glyph>
<glyph name="grave" format="2">
  <advance width="528"/>
  <unicode hex="0060"/>
  <anchor x="473" y="1495" name="Anchor-13"/>
  <outline>
    <contour>
      <point x="307" y="1495" type="line"/>
      <point x="518" y="1495" type="line"/>
      <point x="582" y="1270" type="line"/>
      <point x="424" y="1231" type="line"/>
    </contour>
  </outline>
</glyph>
<glyph name="b" format="2">
  <advance width="1239"/>
  <unicode hex="0062"/>
  <outline>
    <contour>
      <point x="240" y="195" type="qcurve"/>
      <point x="199" y="0" type="line"/>
      <point x="0" y="0" type="line"/>
      <point x="317" y="1495" type="line"/>
      <point x="543" y="1495" type="line"/>
      <point x="412" y="868" type="line"/>
      <point x="493" y="971"/>
      <point x="701" y="1090"/>
      <point x="813" y="1090" type="qcurve" smooth="yes"/>
      <point x="924" y="1090"/>
      <point x="1087" y="968"/>
      <point x="1165" y="774"/>
      <point x="1165" y="655" type="qcurve" smooth="yes"/>
      <point x="1165" y="521"/>
      <point x="1062" y="270"/>
      <point x="894" y="89"/>
      <point x="672" y="-20"/>
      <point x="557" y="-20" type="qcurve" smooth="yes"/>
      <point x="437" y="-20"/>
      <point x="275" y="95"/>
    </contour>
    <contour>
      <point x="928" y="612" type="qcurve" smooth="yes"/>
      <point x="928" y="732"/>
      <point x="807" y="897"/>
      <point x="702" y="897" type="qcurve" smooth="yes"/>
      <point x="612" y="897"/>
      <point x="432" y="766"/>
      <point x="369" y="666" type="qcurve"/>
      <point x="307" y="383" type="line"/>
      <point x="313" y="293"/>
      <point x="449" y="172"/>
      <point x="545" y="172" type="qcurve" smooth="yes"/>
      <point x="617" y="172"/>
      <point x="758" y="246"/>
      <point x="863" y="366"/>
      <point x="928" y="528"/>
    </contour>
  </outline>
</glyph>
<glyph name="f" format="2">
  <advance width="710"/>
  <unicode hex="0066"/>
  <outline>
    <contour>
      <point x="240" y="870" type="line"/>
      <point x="106" y="870" type="line"/>
      <point x="143" y="1044" type="line"/>
      <point x="279" y="1044" type="line"/>
      <point x="287" y="1087" type="line" smooth="yes"/>
      <point x="326" y="1284"/>
      <point x="557" y="1516"/>
      <point x="709" y="1516" type="qcurve" smooth="yes"/>
      <point x="828" y="1516"/>
      <point x="934" y="1450" type="qcurve"/>
      <point x="850" y="1282" type="line"/>
      <point x="793" y="1325"/>
      <point x="715" y="1325" type="qcurve" smooth="yes"/>
      <point x="642" y="1325"/>
      <point x="539" y="1207"/>
      <point x="514" y="1094" type="qcurve" smooth="yes"/>
      <point x="504" y="1044" type="line"/>
      <point x="762" y="1044" type="line"/>
      <point x="723" y="870" type="line"/>
      <point x="465" y="870" type="line"/>
      <point x="188" y="-434" type="line"/>
      <point x="-37" y="-434" type="line"/>
    </contour>
  </outline>
</glyph>
<glyph name="i" format="2">
  <advance width="489"/>
  <unicode hex="0069"/>
  <anchor x="0" y="0" name="Anchor-11"/>
  <anchor x="0" y="0" name="Anchor-10"/>
  <anchor x="0" y="0" name="Anchor-9"/>
  <anchor x="225" y="0" name="Anchor-8"/>
  <anchor x="115" y="0" name="Anchor-7"/>
  <outline>
    <contour>
      <point x="317" y="1495" type="line"/>
      <point x="543" y="1495" type="line"/>
      <point x="492" y="1247" type="line"/>
      <point x="266" y="1247" type="line"/>
    </contour>
    <contour>
      <point x="229" y="1071" type="line"/>
      <point x="455" y="1071" type="line"/>
      <point x="225" y="0" type="line"/>
      <point x="0" y="0" type="line"/>
    </contour>
  </outline>
</glyph>
<glyph name="m" format="2">
  <advance width="1816"/>
  <unicode hex="006D"/>
  <anchor x="0" y="0" name="Anchor-11"/>
  <anchor x="0" y="0" name="Anchor-10"/>
  <anchor x="1022" y="1071" name="Anchor-9"/>
  <anchor x="0" y="0" name="Anchor-8"/>
  <anchor x="797" y="0" name="Anchor-7"/>
  <outline>
    <contour>
      <point x="229" y="1071" type="line"/>
      <point x="432" y="1071" type="line"/>
      <point x="387" y="856" type="line"/>
      <point x="465" y="965"/>
      <point x="692" y="1090"/>
      <point x="811" y="1090" type="qcurve" smooth="yes"/>
      <point x="931" y="1090"/>
      <point x="1054" y="963"/>
      <point x="1059" y="846" type="qcurve"/>
      <point x="1149" y="965"/>
      <point x="1367" y="1090"/>
      <point x="1487" y="1090" type="qcurve" smooth="yes"/>
      <point x="1726" y="1090"/>
      <point x="1726" y="834" type="qcurve" smooth="yes"/>
      <point x="1726" y="766"/>
      <point x="1704" y="653" type="qcurve" smooth="yes"/>
      <point x="1565" y="0" type="line"/>
      <point x="1339" y="0" type="line"/>
      <point x="1466" y="600" type="line" smooth="yes"/>
      <point x="1483" y="683"/>
      <point x="1483" y="729" type="qcurve" smooth="yes"/>
      <point x="1483" y="889"/>
      <point x="1352" y="889" type="qcurve" smooth="yes"/>
      <point x="1265" y="889"/>
      <point x="1086" y="747"/>
      <point x="1028" y="635" type="qcurve"/>
      <point x="895" y="0" type="line"/>
      <point x="670" y="0" type="line"/>
      <point x="797" y="600" type="line" smooth="yes"/>
      <point x="813" y="668"/>
      <point x="813" y="731" type="qcurve" smooth="yes"/>
      <point x="813" y="889"/>
      <point x="684" y="889" type="qcurve" smooth="yes"/>
      <point x="596" y="889"/>
      <point x="417" y="749"/>
      <point x="362" y="637" type="qcurve"/>
      <point x="225" y="0" type="line"/>
      <point x="0" y="0" type="line"/>
    </contour>
  </outline>
</glyph>
<glyph name="p" format="2">
  <advance width="1241"/>
  <unicode hex="0070"/>
  <outline>
    <contour>
      <point x="227" y="1071" type="line"/>
      <point x="426" y="1071" type="line"/>
      <point x="385" y="879" type="line"/>
      <point x="467" y="977"/>
      <point x="678" y="1090"/>
      <point x="791" y="1090" type="qcurve" smooth="yes"/>
      <point x="961" y="1090"/>
      <point x="1165" y="834"/>
      <point x="1165" y="645" type="qcurve" smooth="yes"/>
      <point x="1165" y="518"/>
      <point x="1069" y="273"/>
      <point x="912" y="91"/>
      <point x="696" y="-20"/>
      <point x="582" y="-20" type="qcurve" smooth="yes"/>
      <point x="464" y="-20"/>
      <point x="301" y="100"/>
      <point x="268" y="201" type="qcurve"/>
      <point x="133" y="-436" type="line"/>
      <point x="-92" y="-436" type="line"/>
    </contour>
    <contour>
      <point x="930" y="610" type="qcurve" smooth="yes"/>
      <point x="930" y="733"/>
      <point x="798" y="897"/>
      <point x="688" y="897" type="qcurve" smooth="yes"/>
      <point x="604" y="897"/>
      <point x="415" y="773"/>
      <point x="373" y="686" type="qcurve"/>
      <point x="311" y="406" type="line"/>
      <point x="330" y="305"/>
      <point x="460" y="172"/>
      <point x="549" y="172" type="qcurve" smooth="yes"/>
      <point x="648" y="172"/>
      <point x="827" y="302"/>
      <point x="930" y="504"/>
    </contour>
  </outline>
</glyph>
<glyph name="q" format="2">
  <advance width="1239"/>
  <unicode hex="0071"/>
  <outline>
    <contour>
      <point x="793" y="201" type="line"/>
      <point x="621" y="-20"/>
      <point x="387" y="-20" type="qcurve" smooth="yes"/>
      <point x="280" y="-20"/>
      <point x="119" y="98"/>
      <point x="39" y="293"/>
      <point x="39" y="414" type="qcurve" smooth="yes"/>
      <point x="39" y="547"/>
      <point x="143" y="799"/>
      <point x="311" y="980"/>
      <point x="534" y="1090"/>
      <point x="764" y="1090"/>
      <point x="929" y="974"/>
      <point x="965" y="877" type="qcurve"/>
      <point x="1006" y="1071" type="line"/>
      <point x="1204" y="1071" type="line"/>
      <point x="883" y="-436" type="line"/>
      <point x="657" y="-436" type="line"/>
    </contour>
    <contour>
      <point x="831" y="377" type="qcurve"/>
      <point x="891" y="659" type="line"/>
      <point x="888" y="756"/>
      <point x="754" y="897"/>
      <point x="662" y="897" type="qcurve" smooth="yes"/>
      <point x="564" y="897"/>
      <point x="383" y="768"/>
      <point x="274" y="562"/>
      <point x="274" y="453" type="qcurve" smooth="yes"/>
      <point x="274" y="332"/>
      <point x="401" y="172"/>
      <point x="508" y="172" type="qcurve" smooth="yes"/>
      <point x="680" y="172"/>
    </contour>
  </outline>
</glyph>
<glyph name="v" format="2">
  <advance width="1058"/>
  <unicode hex="0076"/>
  <outline>
    <contour>
      <point x="109" y="1071" type="line"/>
      <point x="342" y="1071" type="line"/>
      <point x="436" y="190" type="line"/>
      <point x="599" y="426"/>
      <point x="813" y="851"/>
      <point x="874" y="1071" type="qcurve"/>
      <point x="1085" y="1071" type="line"/>
      <point x="947" y="568"/>
      <point x="506" y="0" type="qcurve"/>
      <point x="266" y="0" type="line"/>
    </contour>
  </outline>
</glyph>
<glyph name="z" format="2">
  <advance width="962"/>
  <unicode hex="007A"/>
  <anchor x="0" y="0" name="Anchor-11"/>
  <anchor x="0" y="0" name="Anchor-10"/>
  <anchor x="594" y="1071" name="Anchor-9"/>
  <anchor x="0" y="0" name="Anchor-8"/>
  <anchor x="369" y="0" name="Anchor-7"/>
  <outline>
    <contour>
      <point x="-45" y="141" type="line"/>
      <point x="711" y="911" type="line"/>
      <point x="139" y="911" type="line"/>
      <point x="174" y="1071" type="line"/>
      <point x="991" y="1071" type="line"/>
      <point x="961" y="930" type="line"/>
      <point x="209" y="160" type="line"/>
      <point x="803" y="160" type="line"/>
      <point x="768" y="0" type="line"/>
      <point x="-76" y="0" type="line"/>
    </contour>
  </outline>
</glyph>
<glyph name="braceleft" format="2">
  <advance width="583"/>
  <unicode hex="007B"/>
  <outline>
    <contour>
      <point x="537" y="1333" type="line"/>
      <point x="438" y="874" type="line" smooth="yes"/>
      <point x="422" y="797"/>
      <point x="346" y="737" type="qcurve"/>
      <point x="383" y="697"/>
      <point x="383" y="633" type="qcurve" smooth="yes"/>
      <point x="383" y="612"/>
      <point x="381" y="600" type="qcurve" smooth="yes"/>
      <point x="279" y="119" type="line"/>
      <point x="385" y="119" type="line"/>
      <point x="348" y="-63" type="line"/>
      <point x="82" y="-63" type="line" smooth="yes"/>
      <point x="68" y="-63"/>
      <point x="47" y="-45"/>
      <point x="47" y="-25" type="qcurve" smooth="yes"/>
      <point x="47" y="-10"/>
      <point x="49" y="-2" type="qcurve" smooth="yes"/>
      <point x="162" y="530" type="line" smooth="yes"/>
      <point x="164" y="540"/>
      <point x="164" y="561" type="qcurve" smooth="yes"/>
      <point x="164" y="600"/>
      <point x="128" y="653"/>
      <point x="98" y="659" type="qcurve"/>
      <point x="133" y="819" type="line"/>
      <point x="171" y="819"/>
      <point x="244" y="903"/>
      <point x="252" y="944" type="qcurve" smooth="yes"/>
      <point x="358" y="1454" type="line" smooth="yes"/>
      <point x="365" y="1487"/>
      <point x="402" y="1516"/>
      <point x="418" y="1516" type="qcurve" smooth="yes"/>
      <point x="684" y="1516" type="line"/>
      <point x="643" y="1333" type="line"/>
    </contour>
  </outline>
</glyph>
<glyph name="braceright" format="2">
  <advance width="585"/>
  <unicode hex="007D"/>
  <outline>
    <contour>
      <point x="248" y="1333" type="line"/>
      <point x="287" y="1516" type="line"/>
      <point x="551" y="1516" type="line" smooth="yes"/>
      <point x="563" y="1516"/>
      <point x="586" y="1496"/>
      <point x="586" y="1473" type="qcurve" smooth="yes"/>
      <point x="586" y="1460"/>
      <point x="584" y="1454" type="qcurve" smooth="yes"/>
      <point x="475" y="944" type="line" smooth="yes"/>
      <point x="471" y="928"/>
      <point x="471" y="918" type="qcurve" smooth="yes"/>
      <point x="471" y="880"/>
      <point x="508" y="819"/>
      <point x="541" y="819" type="qcurve"/>
      <point x="506" y="659" type="line"/>
      <point x="466" y="651"/>
      <point x="397" y="579"/>
      <point x="387" y="530" type="qcurve" smooth="yes"/>
      <point x="274" y="-2" type="line" smooth="yes"/>
      <point x="267" y="-34"/>
      <point x="232" y="-63"/>
      <point x="215" y="-63" type="qcurve" smooth="yes"/>
      <point x="-49" y="-63" type="line"/>
      <point x="-10" y="119" type="line"/>
      <point x="96" y="119" type="line"/>
      <point x="199" y="600" type="line" smooth="yes"/>
      <point x="207" y="634"/>
      <point x="256" y="710"/>
      <point x="289" y="737" type="qcurve"/>
      <point x="254" y="781"/>
      <point x="254" y="840" type="qcurve" smooth="yes"/>
      <point x="254" y="862"/>
      <point x="258" y="874" type="qcurve" smooth="yes"/>
      <point x="354" y="1333" type="line"/>
    </contour>
  </outline>
</glyph>
<glyph name="asciitilde" format="2">
  <advance width="1083"/>
  <unicode hex="007E"/>
  <outline>
    <contour>
      <point x="387" y="725" type="qcurve" smooth="yes"/>
      <point x="432" y="725"/>
      <point x="523" y="690"/>
      <point x="585" y="647"/>
      <point x="667" y="612"/>
      <point x="705" y="612" type="qcurve" smooth="yes"/>
      <point x="735" y="612"/>
      <point x="788" y="633"/>
      <point x="821" y="661"/>
      <point x="846" y="693"/>
      <point x="857" y="713"/>
      <point x="858" y="717" type="qcurve"/>
      <point x="985" y="717" type="line"/>
      <point x="983" y="708"/>
      <point x="960" y="660"/>
      <point x="909" y="587"/>
      <point x="842" y="522"/>
      <point x="739" y="475"/>
      <point x="682" y="475" type="qcurve" smooth="yes"/>
      <point x="636" y="475"/>
      <point x="544" y="510"/>
      <point x="482" y="553"/>
      <point x="402" y="588"/>
      <point x="367" y="588" type="qcurve" smooth="yes"/>
      <point x="338" y="588"/>
      <point x="286" y="565"/>
      <point x="254" y="534"/>
      <point x="231" y="499"/>
      <point x="221" y="477"/>
      <point x="221" y="475" type="qcurve"/>
      <point x="92" y="475" type="line"/>
      <point x="94" y="490"/>
      <point x="118" y="544"/>
      <point x="168" y="617"/>
      <point x="234" y="681"/>
      <point x="333" y="725"/>
    </contour>
  </outline>
</glyph>
<glyph name="exclamdown" format="2">
  <advance width="559"/>
  <unicode hex="00A1"/>
  <outline>
    <contour>
      <point x="571" y="1460" type="line"/>
      <point x="512" y="1180" type="line"/>
      <point x="287" y="1180" type="line"/>
      <point x="346" y="1460" type="line"/>
    </contour>
    <contour>
      <point x="461" y="942" type="line"/>
      <point x="260" y="-8" type="line"/>
      <point x="35" y="-8" type="line"/>
      <point x="236" y="942" type="line"/>
    </contour>
  </outline>
</glyph>
<glyph name="cent" format="2">
  <advance width="1144"/>
  <unicode hex="00A2"/>
  <outline>
    <contour>
      <point x="362" y="-246" type="line"/>
      <point x="412" y="-18" type="line"/>
      <point x="304" y="-9"/>
      <point x="138" y="124"/>
      <point x="55" y="321"/>
      <point x="55" y="432" type="qcurve" smooth="yes"/>
      <point x="55" y="583"/>
      <point x="201" y="865"/>
      <point x="474" y="1064"/>
      <point x="645" y="1087" type="qcurve"/>
      <point x="696" y="1321" type="line"/>
      <point x="799" y="1321" type="line"/>
      <point x="750" y="1087" type="line"/>
      <point x="888" y="1083"/>
      <point x="1073" y="946"/>
      <point x="1108" y="823" type="qcurve"/>
      <point x="874" y="754" type="line"/>
      <point x="856" y="816"/>
      <point x="769" y="884"/>
      <point x="709" y="889" type="qcurve"/>
      <point x="557" y="178" type="line"/>
      <point x="623" y="186"/>
      <point x="758" y="264"/>
      <point x="786" y="319" type="qcurve"/>
      <point x="993" y="254" type="line"/>
      <point x="916" y="128"/>
      <point x="629" y="-20"/>
      <point x="514" y="-20" type="qcurve"/>
      <point x="467" y="-246" type="line"/>
    </contour>
    <contour>
      <point x="455" y="188" type="qcurve"/>
      <point x="602" y="881" type="line"/>
      <point x="473" y="858"/>
      <point x="289" y="597"/>
      <point x="289" y="455" type="qcurve" smooth="yes"/>
      <point x="289" y="358"/>
      <point x="379" y="208"/>
    </contour>
  </outline>
</glyph>
<glyph name="sterling" format="2">
  <advance width="1038"/>
  <unicode hex="00A3"/>
  <outline>
    <contour>
      <point x="680" y="1280" type="qcurve" smooth="yes"/>
      <point x="587" y="1280"/>
      <point x="451" y="1139"/>
      <point x="451" y="1040" type="qcurve" smooth="yes"/>
      <point x="451" y="1003"/>
      <point x="468" y="920"/>
      <point x="497" y="807"/>
      <point x="504" y="774" type="qcurve"/>
      <point x="860" y="774" type="line"/>
      <point x="823" y="602" type="line"/>
      <point x="516" y="602" type="line"/>
      <point x="510" y="497"/>
      <point x="396" y="310"/>
      <point x="250" y="176" type="qcurve"/>
      <point x="344" y="199"/>
      <point x="399" y="199" type="qcurve" smooth="yes"/>
      <point x="450" y="199"/>
      <point x="615" y="162"/>
      <point x="659" y="162" type="qcurve" smooth="yes"/>
      <point x="718" y="162"/>
      <point x="821" y="197" type="qcurve"/>
      <point x="840" y="29" type="line"/>
      <point x="726" y="-31"/>
      <point x="608" y="-31" type="qcurve" smooth="yes"/>
      <point x="549" y="-31"/>
      <point x="331" y="25"/>
      <point x="268" y="25" type="qcurve" smooth="yes"/>
      <point x="157" y="25"/>
      <point x="23" y="-16" type="qcurve"/>
      <point x="6" y="145" type="line"/>
      <point x="169" y="277"/>
      <point x="313" y="485"/>
      <point x="317" y="602" type="qcurve"/>
      <point x="111" y="602" type="line"/>
      <point x="145" y="774" type="line"/>
      <point x="297" y="774" type="line"/>
      <point x="293" y="793"/>
      <point x="261" y="920"/>
      <point x="248" y="1000"/>
      <point x="248" y="1040" type="qcurve" smooth="yes"/>
      <point x="248" y="1153"/>
      <point x="384" y="1351"/>
      <point x="602" y="1464"/>
      <point x="721" y="1464" type="qcurve" smooth="yes"/>
      <point x="836" y="1464"/>
      <point x="1017" y="1349"/>
      <point x="1065" y="1249" type="qcurve"/>
      <point x="915" y="1110" type="line"/>
      <point x="884" y="1186"/>
      <point x="754" y="1280"/>
    </contour>
  </outline>
</glyph>
<glyph name="currency" format="2">
  <advance width="1169"/>
  <unicode hex="00A4"/>
  <outline>
    <contour>
      <point x="379" y="1006" type="line"/>
      <point x="473" y="1071"/>
      <point x="600" y="1071" type="qcurve" smooth="yes"/>
      <point x="722" y="1071"/>
      <point x="819" y="1006" type="qcurve"/>
      <point x="963" y="1151" type="line"/>
      <point x="1061" y="1055" type="line"/>
      <point x="918" y="911" type="line"/>
      <point x="983" y="814"/>
      <point x="983" y="690" type="qcurve" smooth="yes"/>
      <point x="983" y="569"/>
      <point x="915" y="469" type="qcurve"/>
      <point x="1061" y="326" type="line"/>
      <point x="973" y="240" type="line"/>
      <point x="823" y="379" type="line"/>
      <point x="725" y="311"/>
      <point x="600" y="311" type="qcurve" smooth="yes"/>
      <point x="474" y="311"/>
      <point x="373" y="379" type="qcurve"/>
      <point x="225" y="240" type="line"/>
      <point x="137" y="326" type="line"/>
      <point x="283" y="471" type="line"/>
      <point x="217" y="568"/>
      <point x="217" y="690" type="qcurve" smooth="yes"/>
      <point x="217" y="818"/>
      <point x="281" y="909" type="qcurve"/>
      <point x="137" y="1055" type="line"/>
      <point x="236" y="1151" type="line"/>
    </contour>
    <contour>
      <point x="688" y="459"/>
      <point x="809" y="593"/>
      <point x="809" y="791"/>
      <point x="688" y="922"/>
      <point x="512" y="922"/>
      <point x="391" y="789"/>
      <point x="391" y="688" type="qcurve" smooth="yes"/>
      <point x="391" y="591"/>
      <point x="512" y="459"/>
    </contour>
  </outline>
</glyph>
<glyph name="yen" format="2">
  <advance width="1376"/>
  <unicode hex="00A5"/>
  <outline>
    <contour>
      <point x="977" y="797" type="line"/>
      <point x="1128" y="797" type="line"/>
      <point x="1096" y="647" type="line"/>
      <point x="866" y="647" type="line"/>
      <point x="770" y="520" type="line"/>
      <point x="758" y="461" type="line"/>
      <point x="1057" y="461" type="line"/>
      <point x="1026" y="311" type="line"/>
      <point x="725" y="311" type="line"/>
      <point x="659" y="0" type="line"/>
      <point x="430" y="0" type="line"/>
      <point x="496" y="311" type="line"/>
      <point x="201" y="311" type="line"/>
      <point x="233" y="461" type="line"/>
      <point x="528" y="461" type="line"/>
      <point x="543" y="524" type="line"/>
      <point x="504" y="647" type="line"/>
      <point x="272" y="647" type="line"/>
      <point x="305" y="797" type="line"/>
      <point x="457" y="797" type="line"/>
      <point x="233" y="1454" type="line"/>
      <point x="483" y="1454" type="line"/>
      <point x="698" y="725" type="line"/>
      <point x="1229" y="1454" type="line"/>
      <point x="1483" y="1454" type="line"/>
    </contour>
  </outline>
</glyph>
<glyph name="brokenbar" format="2">
  <advance width="630"/>
  <unicode hex="00A6"/>
  <outline>
    <contour>
      <point x="422" y="1587" type="line"/>
      <point x="422" y="770" type="line"/>
      <point x="229" y="770" type="line"/>
      <point x="229" y="1587" type="line"/>
    </contour>
    <contour>
      <point x="422" y="551" type="line"/>
      <point x="422" y="-266" type="line"/>
      <point x="229" y="-266" type="line"/>
      <point x="229" y="551" type="line"/>
    </contour>
  </outline>
</glyph>
<glyph name="section" format="2">
  <advance width="1036"/>
  <unicode hex="00A7"/>
  <outline>
    <contour>
      <point x="872" y="289" type="qcurve" smooth="yes"/>
      <point x="872" y="194"/>
      <point x="803" y="34"/>
      <point x="694" y="-72"/>
      <point x="555" y="-147"/>
      <point x="419" y="-180"/>
      <point x="356" y="-180" type="qcurve" smooth="yes"/>
      <point x="286" y="-180"/>
      <point x="160" y="-141"/>
      <point x="70" y="-75"/>
      <point x="10" y="-11"/>
      <point x="-12" y="23" type="qcurve"/>
      <point x="162" y="162" type="line"/>
      <point x="255" y="35"/>
      <point x="391" y="35" type="qcurve" smooth="yes"/>
      <point x="483" y="35"/>
      <point x="631" y="146"/>
      <point x="631" y="236" type="qcurve" smooth="yes"/>
      <point x="631" y="269"/>
      <point x="605" y="313"/>
      <point x="554" y="334"/>
      <point x="509" y="343"/>
      <point x="475" y="346" type="qcurve" smooth="yes"/>
      <point x="316" y="357"/>
      <point x="143" y="506"/>
      <point x="143" y="633" type="qcurve" smooth="yes"/>
      <point x="143" y="752"/>
      <point x="227" y="858" type="qcurve"/>
      <point x="184" y="908"/>
      <point x="184" y="1024" type="qcurve" smooth="yes"/>
      <point x="184" y="1142"/>
      <point x="328" y="1348"/>
      <point x="554" y="1464"/>
      <point x="674" y="1464" type="qcurve" smooth="yes"/>
      <point x="737" y="1464"/>
      <point x="843" y="1434"/>
      <point x="914" y="1390"/>
      <point x="974" y="1324"/>
      <point x="1008" y="1268"/>
      <point x="1024" y="1233" type="qcurve"/>
      <point x="831" y="1151" type="line"/>
      <point x="814" y="1206"/>
      <point x="714" y="1264"/>
      <point x="645" y="1264" type="qcurve" smooth="yes"/>
      <point x="554" y="1264"/>
      <point x="416" y="1148"/>
      <point x="416" y="1057" type="qcurve" smooth="yes"/>
      <point x="416" y="992"/>
      <point x="499" y="938"/>
      <point x="575" y="936" type="qcurve" smooth="yes"/>
      <point x="643" y="934"/>
      <point x="761" y="904"/>
      <point x="864" y="843"/>
      <point x="924" y="734"/>
      <point x="924" y="662" type="qcurve" smooth="yes"/>
      <point x="924" y="592"/>
      <point x="866" y="461"/>
      <point x="831" y="426" type="qcurve"/>
      <point x="872" y="385"/>
    </contour>
    <contour>
      <point x="635" y="483" type="qcurve"/>
      <point x="665" y="505"/>
      <point x="705" y="586"/>
      <point x="705" y="625" type="qcurve" smooth="yes"/>
      <point x="705" y="691"/>
      <point x="609" y="754"/>
      <point x="545" y="754" type="qcurve" smooth="yes"/>
      <point x="463" y="754"/>
      <point x="424" y="776" type="qcurve"/>
      <point x="398" y="752"/>
      <point x="360" y="674"/>
      <point x="360" y="633" type="qcurve" smooth="yes"/>
      <point x="360" y="580"/>
      <point x="426" y="520"/>
      <point x="508" y="508"/>
      <point x="613" y="494"/>
    </contour>
  </outline>
</glyph>
<glyph name="dieresis" format="2">
  <advance width="743"/>
  <unicode hex="00A8"/>
  <anchor x="573" y="1485" name="Anchor-13"/>
  <outline>
    <contour>
      <point x="256" y="1260" type="line"/>
      <point x="305" y="1485" type="line"/>
      <point x="492" y="1485" type="line"/>
      <point x="444" y="1260" type="line"/>
    </contour>
    <contour>
      <point x="608" y="1260" type="line"/>
      <point x="655" y="1485" type="line"/>
      <point x="842" y="1485" type="line"/>
      <point x="795" y="1260" type="line"/>
    </contour>
  </outline>
</glyph>
<glyph name="copyright" format="2">
  <advance width="1744"/>
  <unicode hex="00A9"/>
  <outline>
    <contour>
      <point x="129" y="727" type="qcurve" smooth="yes"/>
      <point x="129" y="883"/>
      <point x="245" y="1157"/>
      <point x="446" y="1352"/>
      <point x="729" y="1464"/>
      <point x="891" y="1464" type="qcurve" smooth="yes"/>
      <point x="1054" y="1464"/>
      <point x="1341" y="1352"/>
      <point x="1545" y="1157"/>
      <point x="1663" y="883"/>
      <point x="1663" y="727" type="qcurve" smooth="yes"/>
      <point x="1663" y="570"/>
      <point x="1545" y="295"/>
      <point x="1341" y="99"/>
      <point x="1054" y="-14"/>
      <point x="891" y="-14" type="qcurve" smooth="yes"/>
      <point x="729" y="-14"/>
      <point x="446" y="99"/>
      <point x="245" y="295"/>
      <point x="129" y="570"/>
    </contour>
    <contour>
      <point x="1565" y="723" type="qcurve" smooth="yes"/>
      <point x="1565" y="906"/>
      <point x="1391" y="1204"/>
      <point x="1082" y="1374"/>
      <point x="891" y="1374" type="qcurve" smooth="yes"/>
      <point x="703" y="1374"/>
      <point x="398" y="1204"/>
      <point x="225" y="907"/>
      <point x="225" y="725" type="qcurve" smooth="yes"/>
      <point x="225" y="544"/>
      <point x="397" y="247"/>
      <point x="703" y="76"/>
      <point x="1079" y="76"/>
      <point x="1386" y="238"/>
      <point x="1565" y="535"/>
    </contour>
    <contour>
      <point x="406" y="727" type="qcurve" smooth="yes"/>
      <point x="406" y="820"/>
      <point x="469" y="991"/>
      <point x="587" y="1129"/>
      <point x="780" y="1212"/>
      <point x="899" y="1212" type="qcurve" smooth="yes"/>
      <point x="1052" y="1212"/>
      <point x="1278" y="1081"/>
      <point x="1331" y="963" type="qcurve"/>
      <point x="1114" y="893" type="line"/>
      <point x="1082" y="960"/>
      <point x="963" y="1018"/>
      <point x="899" y="1018" type="qcurve" smooth="yes"/>
      <point x="777" y="1018"/>
      <point x="635" y="846"/>
      <point x="635" y="727" type="qcurve" smooth="yes"/>
      <point x="635" y="596"/>
      <point x="801" y="436"/>
      <point x="903" y="436" type="qcurve" smooth="yes"/>
      <point x="970" y="436"/>
      <point x="1094" y="505"/>
      <point x="1122" y="565" type="qcurve"/>
      <point x="1341" y="500" type="line"/>
      <point x="1297" y="397"/>
      <point x="1064" y="244"/>
      <point x="907" y="244" type="qcurve" smooth="yes"/>
      <point x="692" y="244"/>
      <point x="406" y="517"/>
    </contour>
  </outline>
</glyph>
<glyph name="ordfeminine" format="2">
  <advance width="862"/>
  <unicode hex="00AA"/>
  <anchor x="0" y="0" name="Anchor-11"/>
  <anchor x="0" y="0" name="Anchor-10"/>
  <anchor x="391" y="1063" name="Anchor-9"/>
  <anchor x="0" y="0" name="Anchor-8"/>
  <anchor x="786" y="23" name="Anchor-7"/>
  <outline>
    <contour>
      <point x="143" y="887" type="qcurve" smooth="yes"/>
      <point x="143" y="1007"/>
      <point x="344" y="1165"/>
      <point x="489" y="1165" type="qcurve" smooth="yes"/>
      <point x="586" y="1165"/>
      <point x="655" y="1133" type="qcurve"/>
      <point x="666" y="1178" type="line" smooth="yes"/>
      <point x="672" y="1202"/>
      <point x="672" y="1223" type="qcurve" smooth="yes"/>
      <point x="672" y="1279"/>
      <point x="606" y="1337"/>
      <point x="543" y="1337" type="qcurve" smooth="yes"/>
      <point x="443" y="1337"/>
      <point x="307" y="1255" type="qcurve"/>
      <point x="279" y="1364" type="line"/>
      <point x="434" y="1458"/>
      <point x="582" y="1458" type="qcurve" smooth="yes"/>
      <point x="706" y="1458"/>
      <point x="840" y="1347"/>
      <point x="840" y="1243" type="qcurve" smooth="yes"/>
      <point x="840" y="1214"/>
      <point x="829" y="1157" type="qcurve" smooth="yes"/>
      <point x="778" y="915" type="line" smooth="yes"/>
      <point x="776" y="907"/>
      <point x="776" y="895" type="qcurve" smooth="yes"/>
      <point x="776" y="878"/>
      <point x="793" y="864"/>
      <point x="813" y="862" type="qcurve"/>
      <point x="780" y="713" type="line"/>
      <point x="744" y="705"/>
      <point x="711" y="705" type="qcurve" smooth="yes"/>
      <point x="610" y="705"/>
      <point x="610" y="778" type="qcurve" smooth="yes"/>
      <point x="610" y="790"/>
      <point x="618" y="834" type="qcurve"/>
      <point x="493" y="700"/>
      <point x="334" y="700" type="qcurve" smooth="yes"/>
      <point x="249" y="700"/>
      <point x="143" y="806"/>
    </contour>
    <contour>
      <point x="614" y="948" type="qcurve" smooth="yes"/>
      <point x="633" y="1036" type="line"/>
      <point x="582" y="1065"/>
      <point x="498" y="1065" type="qcurve" smooth="yes"/>
      <point x="418" y="1065"/>
      <point x="309" y="986"/>
      <point x="309" y="924" type="qcurve" smooth="yes"/>
      <point x="309" y="882"/>
      <point x="366" y="827"/>
      <point x="410" y="827" type="qcurve" smooth="yes"/>
      <point x="474" y="827"/>
      <point x="605" y="902"/>
    </contour>
  </outline>
</glyph>
<glyph name="guillemotleft" format="2">
  <advance width="1230"/>
  <unicode hex="00AB"/>
  <outline>
    <contour>
      <point x="72" y="582" type="line"/>
      <point x="657" y="961" type="line"/>
      <point x="616" y="774" type="line"/>
      <point x="240" y="530" type="line"/>
      <point x="514" y="295" type="line"/>
      <point x="475" y="111" type="line"/>
      <point x="47" y="469" type="line"/>
    </contour>
    <contour>
      <point x="598" y="582" type="line"/>
      <point x="1184" y="961" type="line"/>
      <point x="1145" y="774" type="line"/>
      <point x="768" y="530" type="line"/>
      <point x="1044" y="295" type="line"/>
      <point x="1004" y="111" type="line"/>
      <point x="575" y="469" type="line"/>
    </contour>
  </outline>
</glyph>
<glyph name="logicalnot" format="2">
  <advance width="1187"/>
  <unicode hex="00AC"/>
  <outline>
    <contour>
      <point x="1087" y="793" type="line"/>
      <point x="969" y="231" type="line"/>
      <point x="776" y="231" type="line"/>
      <point x="852" y="590" type="line"/>
      <point x="121" y="590" type="line"/>
      <point x="164" y="793" type="line"/>
    </contour>
  </outline>
</glyph>
<glyph name="sfthyphen" format="2">
  <advance width="1169"/>
  <unicode hex="00AD"/>
  <outline>
    <contour>
      <point x="88" y="459" type="line"/>
      <point x="131" y="662" type="line"/>
      <point x="1057" y="662" type="line"/>
      <point x="1012" y="459" type="line"/>
    </contour>
  </outline>
</glyph>
<glyph name="registered" format="2">
  <advance width="1744"/>
  <unicode hex="00AE"/>
  <outline>
    <contour>
      <point x="129" y="727" type="qcurve" smooth="yes"/>
      <point x="129" y="883"/>
      <point x="245" y="1157"/>
      <point x="446" y="1352"/>
      <point x="731" y="1464"/>
      <point x="893" y="1464" type="qcurve" smooth="yes"/>
      <point x="1056" y="1464"/>
      <point x="1342" y="1352"/>
      <point x="1545" y="1157"/>
      <point x="1663" y="883"/>
      <point x="1663" y="727" type="qcurve" smooth="yes"/>
      <point x="1663" y="570"/>
      <point x="1545" y="295"/>
      <point x="1342" y="99"/>
      <point x="1056" y="-14"/>
      <point x="893" y="-14" type="qcurve" smooth="yes"/>
      <point x="731" y="-14"/>
      <point x="446" y="99"/>
      <point x="245" y="295"/>
      <point x="129" y="570"/>
    </contour>
    <contour>
      <point x="1563" y="725" type="qcurve" smooth="yes"/>
      <point x="1563" y="861"/>
      <point x="1461" y="1101"/>
      <point x="1284" y="1274"/>
      <point x="1035" y="1374"/>
      <point x="751" y="1374"/>
      <point x="503" y="1274"/>
      <point x="329" y="1101"/>
      <point x="229" y="862"/>
      <point x="229" y="727" type="qcurve" smooth="yes"/>
      <point x="229" y="544"/>
      <point x="399" y="246"/>
      <point x="704" y="74"/>
      <point x="893" y="74" type="qcurve" smooth="yes"/>
      <point x="1033" y="74"/>
      <point x="1280" y="170"/>
      <point x="1459" y="339"/>
      <point x="1563" y="583"/>
    </contour>
    <contour>
      <point x="569" y="1182" type="line"/>
      <point x="965" y="1182" type="line" smooth="yes"/>
      <point x="1044" y="1182"/>
      <point x="1176" y="1094"/>
      <point x="1247" y="958"/>
      <point x="1247" y="885" type="qcurve" smooth="yes"/>
      <point x="1247" y="794"/>
      <point x="1146" y="644"/>
      <point x="1067" y="618" type="qcurve"/>
      <point x="1284" y="272" type="line"/>
      <point x="1102" y="272" type="line"/>
      <point x="901" y="590" type="line"/>
      <point x="731" y="590" type="line"/>
      <point x="731" y="272" type="line"/>
      <point x="569" y="272" type="line"/>
    </contour>
    <contour>
      <point x="954" y="731" type="line" smooth="yes"/>
      <point x="1016" y="731"/>
      <point x="1087" y="815"/>
      <point x="1087" y="955"/>
      <point x="1008" y="1036"/>
      <point x="948" y="1036" type="qcurve" smooth="yes"/>
      <point x="731" y="1036" type="line"/>
      <point x="731" y="731" type="line"/>
    </contour>
  </outline>
</glyph>
<glyph name="macron" format="2">
  <advance width="784"/>
  <unicode hex="00AF"/>
  <anchor x="588" y="1458" name="Anchor-13"/>
  <outline>
    <contour>
      <point x="268" y="1315" type="line"/>
      <point x="297" y="1458" type="line"/>
      <point x="877" y="1458" type="line"/>
      <point x="846" y="1315" type="line"/>
    </contour>
  </outline>
</glyph>
<glyph name="degree" format="2">
  <advance width="555"/>
  <unicode hex="00B0"/>
  <outline>
    <contour>
      <point x="221" y="1245" type="qcurve" smooth="yes"/>
      <point x="221" y="1337"/>
      <point x="361" y="1483"/>
      <point x="457" y="1483" type="qcurve" smooth="yes"/>
      <point x="526" y="1483"/>
      <point x="610" y="1394"/>
      <point x="610" y="1327" type="qcurve" smooth="yes"/>
      <point x="610" y="1229"/>
      <point x="470" y="1092"/>
      <point x="373" y="1092" type="qcurve" smooth="yes"/>
      <point x="306" y="1092"/>
      <point x="221" y="1177"/>
    </contour>
    <contour>
      <point x="494" y="1303" type="qcurve" smooth="yes"/>
      <point x="494" y="1333"/>
      <point x="460" y="1368"/>
      <point x="432" y="1368" type="qcurve" smooth="yes"/>
      <point x="397" y="1368"/>
      <point x="336" y="1310"/>
      <point x="336" y="1274" type="qcurve" smooth="yes"/>
      <point x="336" y="1243"/>
      <point x="369" y="1206"/>
      <point x="397" y="1206" type="qcurve" smooth="yes"/>
      <point x="432" y="1206"/>
      <point x="494" y="1266"/>
    </contour>
  </outline>
</glyph>
<glyph name="plusminus" format="2">
  <advance width="1017"/>
  <unicode hex="00B1"/>
  <outline>
    <contour>
      <point x="836" y="854" type="line"/>
      <point x="836" y="672" type="line"/>
      <point x="586" y="672" type="line"/>
      <point x="586" y="401" type="line"/>
      <point x="383" y="401" type="line"/>
      <point x="383" y="672" type="line"/>
      <point x="135" y="672" type="line"/>
      <point x="135" y="854" type="line"/>
      <point x="383" y="854" type="line"/>
      <point x="383" y="1122" type="line"/>
      <point x="586" y="1122" type="line"/>
      <point x="586" y="854" type="line"/>
    </contour>
    <contour>
      <point x="133" y="82" type="line"/>
      <point x="133" y="264" type="line"/>
      <point x="836" y="264" type="line"/>
      <point x="836" y="82" type="line"/>
    </contour>
  </outline>
</glyph>
<glyph name="twosuperior" format="2">
  <advance width="802"/>
  <unicode hex="00B2"/>
  <outline>
    <contour>
      <point x="104" y="809" type="line"/>
      <point x="139" y="968"/>
      <point x="287" y="1139"/>
      <point x="438" y="1200" type="qcurve" smooth="yes"/>
      <point x="453" y="1206"/>
      <point x="542" y="1238"/>
      <point x="579" y="1253"/>
      <point x="651" y="1286"/>
      <point x="685" y="1313"/>
      <point x="726" y="1352"/>
      <point x="743" y="1398"/>
      <point x="743" y="1425" type="qcurve" smooth="yes"/>
      <point x="743" y="1477"/>
      <point x="675" y="1536"/>
      <point x="606" y="1536" type="qcurve" smooth="yes"/>
      <point x="526" y="1536"/>
      <point x="382" y="1468"/>
      <point x="332" y="1423" type="qcurve"/>
      <point x="266" y="1526" type="line"/>
      <point x="313" y="1573"/>
      <point x="516" y="1665"/>
      <point x="639" y="1665" type="qcurve" smooth="yes"/>
      <point x="765" y="1665"/>
      <point x="899" y="1552"/>
      <point x="899" y="1456" type="qcurve" smooth="yes"/>
      <point x="899" y="1332"/>
      <point x="736" y="1179"/>
      <point x="575" y="1126" type="qcurve" smooth="yes"/>
      <point x="379" y="1062"/>
      <point x="352" y="942" type="qcurve"/>
      <point x="793" y="942" type="line"/>
      <point x="764" y="809" type="line"/>
    </contour>
  </outline>
</glyph>
<glyph name="threesuperior" format="2">
  <advance width="788"/>
  <unicode hex="00B3"/>
  <outline>
    <contour>
      <point x="135" y="967" type="qcurve"/>
      <point x="227" y="1049" type="line"/>
      <point x="237" y="1000"/>
      <point x="346" y="922"/>
      <point x="436" y="922" type="qcurve" smooth="yes"/>
      <point x="529" y="922"/>
      <point x="664" y="1007"/>
      <point x="664" y="1071" type="qcurve" smooth="yes"/>
      <point x="664" y="1184"/>
      <point x="424" y="1184" type="qcurve" smooth="yes"/>
      <point x="379" y="1184" type="line"/>
      <point x="403" y="1307" type="line"/>
      <point x="449" y="1307" type="line" smooth="yes"/>
      <point x="717" y="1307"/>
      <point x="717" y="1440" type="qcurve" smooth="yes"/>
      <point x="717" y="1487"/>
      <point x="630" y="1540"/>
      <point x="569" y="1540" type="qcurve" smooth="yes"/>
      <point x="420" y="1540"/>
      <point x="326" y="1436" type="qcurve"/>
      <point x="264" y="1540" type="line"/>
      <point x="316" y="1598"/>
      <point x="503" y="1665"/>
      <point x="600" y="1665" type="qcurve" smooth="yes"/>
      <point x="722" y="1665"/>
      <point x="870" y="1553"/>
      <point x="870" y="1464" type="qcurve" smooth="yes"/>
      <point x="870" y="1382"/>
      <point x="756" y="1272"/>
      <point x="655" y="1251" type="qcurve"/>
      <point x="725" y="1239"/>
      <point x="805" y="1141"/>
      <point x="805" y="1073" type="qcurve" smooth="yes"/>
      <point x="805" y="985"/>
      <point x="689" y="856"/>
      <point x="515" y="797"/>
      <point x="414" y="797" type="qcurve" smooth="yes"/>
      <point x="293" y="797"/>
      <point x="141" y="887"/>
    </contour>
  </outline>
</glyph>
<glyph name="acute" format="2">
  <advance width="526"/>
  <unicode hex="00B4"/>
  <anchor x="449" y="1495" name="Anchor-13"/>
  <outline>
    <contour>
      <point x="401" y="1233" type="line"/>
      <point x="258" y="1270" type="line"/>
      <point x="414" y="1495" type="line"/>
      <point x="629" y="1495" type="line"/>
    </contour>
  </outline>
</glyph>
<glyph name="mu" format="2">
  <advance width="1267"/>
  <unicode hex="00B5"/>
  <outline>
    <contour>
      <point x="248" y="1071" type="line"/>
      <point x="473" y="1071" type="line"/>
      <point x="342" y="461" type="line" smooth="yes"/>
      <point x="326" y="389"/>
      <point x="326" y="338" type="qcurve" smooth="yes"/>
      <point x="326" y="172"/>
      <point x="473" y="172" type="qcurve" smooth="yes"/>
      <point x="560" y="172"/>
      <point x="744" y="293"/>
      <point x="811" y="403" type="qcurve"/>
      <point x="952" y="1071" type="line"/>
      <point x="1178" y="1071" type="line"/>
      <point x="1008" y="266" type="line" smooth="yes"/>
      <point x="1004" y="242"/>
      <point x="1004" y="236" type="qcurve" smooth="yes"/>
      <point x="1004" y="214"/>
      <point x="1029" y="195"/>
      <point x="1057" y="193" type="qcurve"/>
      <point x="1014" y="0" type="line"/>
      <point x="946" y="-10"/>
      <point x="915" y="-10" type="qcurve" smooth="yes"/>
      <point x="853" y="-10"/>
      <point x="784" y="43"/>
      <point x="784" y="90" type="qcurve" smooth="yes"/>
      <point x="784" y="126"/>
      <point x="805" y="217" type="qcurve"/>
      <point x="745" y="124"/>
      <point x="521" y="-20"/>
      <point x="420" y="-20" type="qcurve" smooth="yes"/>
      <point x="345" y="-20"/>
      <point x="262" y="57"/>
      <point x="256" y="119" type="qcurve"/>
      <point x="152" y="-434" type="line"/>
      <point x="-74" y="-434" type="line"/>
    </contour>
  </outline>
</glyph>
<glyph name="paragraph" format="2">
  <advance width="1257"/>
  <unicode hex="00B6"/>
  <outline>
    <contour>
      <point x="803" y="1454" type="qcurve" smooth="yes"/>
      <point x="1348" y="1454" type="line"/>
      <point x="1311" y="1282" type="line"/>
      <point x="1174" y="1282" type="line"/>
      <point x="866" y="-164" type="line"/>
      <point x="674" y="-164" type="line"/>
      <point x="803" y="442" type="line"/>
      <point x="692" y="442" type="line"/>
      <point x="561" y="-164" type="line"/>
      <point x="369" y="-164" type="line"/>
      <point x="500" y="442" type="line"/>
      <point x="325" y="445"/>
      <point x="129" y="652"/>
      <point x="129" y="827" type="qcurve" smooth="yes"/>
      <point x="129" y="1112"/>
      <point x="494" y="1454"/>
    </contour>
    <contour>
      <point x="535" y="614" type="qcurve"/>
      <point x="678" y="1282" type="line"/>
      <point x="520" y="1278"/>
      <point x="324" y="1035"/>
      <point x="324" y="858" type="qcurve" smooth="yes"/>
      <point x="324" y="746"/>
      <point x="440" y="620"/>
    </contour>
    <contour>
      <point x="981" y="1282" type="line"/>
      <point x="870" y="1282" type="line"/>
      <point x="727" y="614" type="line"/>
      <point x="838" y="614" type="line"/>
    </contour>
  </outline>
</glyph>
<glyph name="periodcentered" format="2">
  <advance width="432"/>
  <unicode hex="00B7"/>
  <outline>
    <contour>
      <point x="96" y="498" type="line"/>
      <point x="156" y="778" type="line"/>
      <point x="342" y="778" type="line"/>
      <point x="283" y="498" type="line"/>
    </contour>
  </outline>
</glyph>
<glyph name="cedilla" format="2">
  <advance width="622"/>
  <unicode hex="00B8"/>
  <outline>
    <contour>
      <point x="115" y="-395" type="qcurve" smooth="yes"/>
      <point x="6" y="-395"/>
      <point x="-82" y="-336" type="qcurve"/>
      <point x="2" y="-215" type="line"/>
      <point x="58" y="-258"/>
      <point x="111" y="-258" type="qcurve" smooth="yes"/>
      <point x="169" y="-258"/>
      <point x="240" y="-194"/>
      <point x="240" y="-137" type="qcurve" smooth="yes"/>
      <point x="240" y="-69"/>
      <point x="168" y="0" type="qcurve"/>
      <point x="254" y="53" type="line"/>
      <point x="367" y="-49"/>
      <point x="367" y="-160" type="qcurve" smooth="yes"/>
      <point x="367" y="-263"/>
      <point x="230" y="-395"/>
    </contour>
  </outline>
</glyph>
<glyph name="onesuperior" format="2">
  <advance width="569"/>
  <unicode hex="00B9"/>
  <outline>
    <contour>
      <point x="598" y="944" type="line"/>
      <point x="569" y="809" type="line"/>
      <point x="137" y="809" type="line"/>
      <point x="168" y="944" type="line"/>
      <point x="322" y="944" type="line"/>
      <point x="442" y="1516" type="line"/>
      <point x="412" y="1484"/>
      <point x="280" y="1413"/>
      <point x="236" y="1413" type="qcurve"/>
      <point x="264" y="1550" type="line"/>
      <point x="301" y="1550"/>
      <point x="404" y="1606"/>
      <point x="471" y="1660"/>
      <point x="473" y="1665" type="qcurve"/>
      <point x="612" y="1665" type="line"/>
      <point x="459" y="944" type="line"/>
    </contour>
  </outline>
</glyph>
<glyph name="ordmasculine" format="2">
  <advance width="878"/>
  <unicode hex="00BA"/>
  <anchor x="0" y="0" name="Anchor-11"/>
  <anchor x="0" y="0" name="Anchor-10"/>
  <anchor x="461" y="1063" name="Anchor-9"/>
  <anchor x="0" y="0" name="Anchor-8"/>
  <anchor x="459" y="0" name="Anchor-7"/>
  <outline>
    <contour>
      <point x="166" y="1004" type="qcurve" smooth="yes"/>
      <point x="166" y="1121"/>
      <point x="283" y="1330"/>
      <point x="492" y="1458"/>
      <point x="616" y="1458" type="qcurve" smooth="yes"/>
      <point x="751" y="1458"/>
      <point x="903" y="1284"/>
      <point x="903" y="1153" type="qcurve" smooth="yes"/>
      <point x="903" y="1068"/>
      <point x="835" y="904"/>
      <point x="718" y="777"/>
      <point x="549" y="700"/>
      <point x="455" y="700" type="qcurve" smooth="yes"/>
      <point x="319" y="700"/>
      <point x="166" y="875"/>
    </contour>
    <contour>
      <point x="729" y="1130" type="qcurve" smooth="yes"/>
      <point x="729" y="1208"/>
      <point x="649" y="1309"/>
      <point x="584" y="1309" type="qcurve" smooth="yes"/>
      <point x="490" y="1309"/>
      <point x="342" y="1141"/>
      <point x="342" y="1026" type="qcurve" smooth="yes"/>
      <point x="342" y="947"/>
      <point x="421" y="848"/>
      <point x="485" y="848" type="qcurve" smooth="yes"/>
      <point x="579" y="848"/>
      <point x="729" y="1016"/>
    </contour>
  </outline>
</glyph>
<glyph name="guillemotright" format="2">
  <advance width="1230"/>
  <unicode hex="00BB"/>
  <outline>
    <contour>
      <point x="592" y="469" type="line"/>
      <point x="10" y="111" type="line"/>
      <point x="51" y="295" type="line"/>
      <point x="426" y="530" type="line"/>
      <point x="154" y="774" type="line"/>
      <point x="190" y="961" type="line"/>
      <point x="616" y="582" type="line"/>
    </contour>
    <contour>
      <point x="1120" y="469" type="line"/>
      <point x="541" y="111" type="line"/>
      <point x="580" y="295" type="line"/>
      <point x="954" y="530" type="line"/>
      <point x="680" y="774" type="line"/>
      <point x="721" y="961" type="line"/>
      <point x="1145" y="582" type="line"/>
    </contour>
  </outline>
</glyph>
<glyph name="onequarter" format="2">
  <advance width="1718"/>
  <unicode hex="00BC"/>
  <outline>
    <contour>
      <point x="563" y="776" type="line"/>
      <point x="535" y="641" type="line"/>
      <point x="102" y="641" type="line"/>
      <point x="133" y="776" type="line"/>
      <point x="287" y="776" type="line"/>
      <point x="408" y="1348" type="line"/>
      <point x="376" y="1316"/>
      <point x="243" y="1245"/>
      <point x="201" y="1245" type="qcurve"/>
      <point x="229" y="1380" type="line"/>
      <point x="266" y="1380"/>
      <point x="369" y="1437"/>
      <point x="436" y="1492"/>
      <point x="438" y="1497" type="qcurve"/>
      <point x="578" y="1497" type="line"/>
      <point x="422" y="776" type="line"/>
    </contour>
    <contour>
      <point x="61" y="82" type="line"/>
      <point x="754" y="764" type="line"/>
      <point x="1415" y="1466" type="line"/>
      <point x="1501" y="1374" type="line"/>
      <point x="821" y="700" type="line"/>
      <point x="147" y="-12" type="line"/>
    </contour>
    <contour>
      <point x="1305" y="162" type="line"/>
      <point x="971" y="203" type="line"/>
      <point x="911" y="287" type="line"/>
      <point x="1378" y="737" type="line"/>
      <point x="1563" y="848" type="line"/>
      <point x="1511" y="442" type="line"/>
      <point x="1577" y="328" type="line"/>
      <point x="1577" y="240" type="line"/>
      <point x="1479" y="203" type="line"/>
      <point x="1425" y="41" type="line"/>
      <point x="1327" y="0" type="line"/>
    </contour>
    <contour>
      <point x="1311" y="328" type="line"/>
      <point x="1407" y="616" type="line"/>
      <point x="1102" y="377" type="line"/>
    </contour>
  </outline>
</glyph>
<glyph name="onehalf" format="2">
  <advance width="1728"/>
  <unicode hex="00BD"/>
  <outline>
    <contour>
      <point x="563" y="776" type="line"/>
      <point x="535" y="641" type="line"/>
      <point x="102" y="641" type="line"/>
      <point x="133" y="776" type="line"/>
      <point x="287" y="776" type="line"/>
      <point x="408" y="1348" type="line"/>
      <point x="376" y="1316"/>
      <point x="243" y="1245"/>
      <point x="201" y="1245" type="qcurve"/>
      <point x="229" y="1380" type="line"/>
      <point x="266" y="1380"/>
      <point x="369" y="1437"/>
      <point x="436" y="1492"/>
      <point x="438" y="1497" type="qcurve"/>
      <point x="578" y="1497" type="line"/>
      <point x="422" y="776" type="line"/>
    </contour>
    <contour>
      <point x="61" y="82" type="line"/>
      <point x="754" y="764" type="line"/>
      <point x="1415" y="1466" type="line"/>
      <point x="1501" y="1374" type="line"/>
      <point x="821" y="700" type="line"/>
      <point x="147" y="-12" type="line"/>
    </contour>
    <contour>
      <point x="889" y="0" type="line"/>
      <point x="921" y="158"/>
      <point x="1064" y="330"/>
      <point x="1208" y="391" type="qcurve" smooth="yes"/>
      <point x="1222" y="396"/>
      <point x="1309" y="429"/>
      <point x="1344" y="444"/>
      <point x="1415" y="477"/>
      <point x="1447" y="504"/>
      <point x="1487" y="543"/>
      <point x="1503" y="589"/>
      <point x="1503" y="616" type="qcurve" smooth="yes"/>
      <point x="1503" y="727"/>
      <point x="1370" y="727" type="qcurve" smooth="yes"/>
      <point x="1293" y="727"/>
      <point x="1153" y="657"/>
      <point x="1106" y="612" type="qcurve"/>
      <point x="1044" y="717" type="line"/>
      <point x="1086" y="763"/>
      <point x="1286" y="856"/>
      <point x="1405" y="856" type="qcurve" smooth="yes"/>
      <point x="1526" y="856"/>
      <point x="1653" y="744"/>
      <point x="1653" y="647" type="qcurve" smooth="yes"/>
      <point x="1653" y="523"/>
      <point x="1496" y="370"/>
      <point x="1343" y="317" type="qcurve" smooth="yes"/>
      <point x="1152" y="252"/>
      <point x="1128" y="133" type="qcurve"/>
      <point x="1552" y="133" type="line"/>
      <point x="1522" y="0" type="line"/>
    </contour>
  </outline>
</glyph>
<glyph name="threequarters" format="2">
  <advance width="1937"/>
  <unicode hex="00BE"/>
  <outline>
    <contour>
      <point x="102" y="797" type="qcurve"/>
      <point x="195" y="879" type="line"/>
      <point x="204" y="830"/>
      <point x="312" y="752"/>
      <point x="403" y="752" type="qcurve" smooth="yes"/>
      <point x="495" y="752"/>
      <point x="629" y="837"/>
      <point x="629" y="901" type="qcurve" smooth="yes"/>
      <point x="629" y="1014"/>
      <point x="389" y="1014" type="qcurve" smooth="yes"/>
      <point x="344" y="1014" type="line"/>
      <point x="369" y="1137" type="line"/>
      <point x="414" y="1137" type="line" smooth="yes"/>
      <point x="682" y="1137"/>
      <point x="682" y="1270" type="qcurve" smooth="yes"/>
      <point x="682" y="1317"/>
      <point x="596" y="1372"/>
      <point x="535" y="1372" type="qcurve" smooth="yes"/>
      <point x="389" y="1372"/>
      <point x="293" y="1266" type="qcurve"/>
      <point x="229" y="1372" type="line"/>
      <point x="282" y="1429"/>
      <point x="468" y="1495"/>
      <point x="565" y="1495" type="qcurve" smooth="yes"/>
      <point x="688" y="1495"/>
      <point x="836" y="1383"/>
      <point x="836" y="1294" type="qcurve" smooth="yes"/>
      <point x="836" y="1212"/>
      <point x="723" y="1101"/>
      <point x="621" y="1081" type="qcurve"/>
      <point x="691" y="1069"/>
      <point x="772" y="971"/>
      <point x="772" y="903" type="qcurve" smooth="yes"/>
      <point x="772" y="815"/>
      <point x="656" y="686"/>
      <point x="481" y="627"/>
      <point x="379" y="627" type="qcurve" smooth="yes"/>
      <point x="259" y="627"/>
      <point x="108" y="717"/>
    </contour>
    <contour>
      <point x="281" y="82" type="line"/>
      <point x="973" y="764" type="line"/>
      <point x="1634" y="1466" type="line"/>
      <point x="1720" y="1374" type="line"/>
      <point x="1040" y="700" type="line"/>
      <point x="367" y="-12" type="line"/>
    </contour>
    <contour>
      <point x="1524" y="162" type="line"/>
      <point x="1190" y="203" type="line"/>
      <point x="1130" y="287" type="line"/>
      <point x="1597" y="737" type="line"/>
      <point x="1782" y="848" type="line"/>
      <point x="1731" y="442" type="line"/>
      <point x="1796" y="328" type="line"/>
      <point x="1796" y="240" type="line"/>
      <point x="1698" y="203" type="line"/>
      <point x="1645" y="41" type="line"/>
      <point x="1546" y="0" type="line"/>
    </contour>
    <contour>
      <point x="1530" y="328" type="line"/>
      <point x="1626" y="616" type="line"/>
      <point x="1321" y="377" type="line"/>
    </contour>
  </outline>
</glyph>
<glyph name="questiondown" format="2">
  <advance width="944"/>
  <unicode hex="00BF"/>
  <outline>
    <contour>
      <point x="776" y="1036" type="line"/>
      <point x="721" y="778" type="line"/>
      <point x="535" y="778" type="line"/>
      <point x="588" y="1036" type="line"/>
    </contour>
    <contour>
      <point x="684" y="584" type="line"/>
      <point x="659" y="470"/>
      <point x="555" y="311"/>
      <point x="453" y="254" type="qcurve" smooth="yes"/>
      <point x="435" y="244"/>
      <point x="350" y="199"/>
      <point x="304" y="172"/>
      <point x="231" y="125"/>
      <point x="190" y="82"/>
      <point x="147" y="24"/>
      <point x="127" y="-46"/>
      <point x="127" y="-86" type="qcurve" smooth="yes"/>
      <point x="127" y="-163"/>
      <point x="223" y="-252"/>
      <point x="295" y="-252" type="qcurve" smooth="yes"/>
      <point x="378" y="-252"/>
      <point x="531" y="-148"/>
      <point x="584" y="-72" type="qcurve"/>
      <point x="711" y="-172" type="line"/>
      <point x="634" y="-296"/>
      <point x="383" y="-436"/>
      <point x="248" y="-436" type="qcurve" smooth="yes"/>
      <point x="183" y="-436"/>
      <point x="68" y="-398"/>
      <point x="-24" y="-323"/>
      <point x="-78" y="-200"/>
      <point x="-78" y="-121" type="qcurve" smooth="yes"/>
      <point x="-78" y="-48"/>
      <point x="-44" y="73"/>
      <point x="6" y="156"/>
      <point x="94" y="233"/>
      <point x="171" y="281"/>
      <point x="231" y="313" type="qcurve" smooth="yes"/>
      <point x="240" y="318"/>
      <point x="296" y="347"/>
      <point x="318" y="360"/>
      <point x="366" y="388"/>
      <point x="389" y="408"/>
      <point x="428" y="440"/>
      <point x="449" y="471"/>
      <point x="474" y="511"/>
      <point x="491" y="558"/>
      <point x="496" y="584" type="qcurve"/>
    </contour>
  </outline>
</glyph>
<glyph name="Agrave" format="2">
  <advance width="1329"/>
  <unicode hex="00C0"/>
  <anchor x="0" y="0" name="Anchor-11"/>
  <anchor x="0" y="0" name="Anchor-10"/>
  <anchor x="821" y="1878" name="Anchor-9"/>
  <anchor x="1184" y="0" name="Anchor-8"/>
  <anchor x="551" y="0" name="Anchor-7"/>
  <outline>
    <contour>
      <point x="655" y="1878" type="line"/>
      <point x="866" y="1878" type="line"/>
      <point x="930" y="1653" type="line"/>
      <point x="772" y="1614" type="line"/>
    </contour>
    <contour>
      <point x="748" y="1454" type="line"/>
      <point x="950" y="1454" type="line"/>
      <point x="1184" y="0" type="line"/>
      <point x="942" y="0" type="line"/>
      <point x="885" y="395" type="line"/>
      <point x="362" y="395" type="line"/>
      <point x="139" y="0" type="line"/>
      <point x="-102" y="0" type="line"/>
    </contour>
    <contour>
      <point x="877" y="565" type="line"/>
      <point x="795" y="1190" type="line"/>
      <point x="438" y="565" type="line"/>
    </contour>
  </outline>
</glyph>
<glyph name="Atilde" format="2">
  <advance width="1329"/>
  <unicode hex="00C3"/>
  <anchor x="0" y="0" name="Anchor-11"/>
  <anchor x="0" y="0" name="Anchor-10"/>
  <anchor x="944" y="1878" name="Anchor-9"/>
  <anchor x="1184" y="0" name="Anchor-8"/>
  <anchor x="551" y="0" name="Anchor-7"/>
  <outline>
    <contour>
      <point x="784" y="1731" type="qcurve" smooth="yes"/>
      <point x="759" y="1731"/>
      <point x="718" y="1712"/>
      <point x="694" y="1685"/>
      <point x="676" y="1655"/>
      <point x="670" y="1636"/>
      <point x="670" y="1632" type="qcurve"/>
      <point x="543" y="1632" type="line"/>
      <point x="546" y="1647"/>
      <point x="569" y="1699"/>
      <point x="615" y="1768"/>
      <point x="674" y="1827"/>
      <point x="760" y="1868"/>
      <point x="807" y="1868" type="qcurve" smooth="yes"/>
      <point x="846" y="1868"/>
      <point x="912" y="1840"/>
      <point x="951" y="1806"/>
      <point x="1009" y="1778"/>
      <point x="1040" y="1778" type="qcurve" smooth="yes"/>
      <point x="1072" y="1778"/>
      <point x="1125" y="1806"/>
      <point x="1153" y="1846"/>
      <point x="1165" y="1871"/>
      <point x="1167" y="1878" type="qcurve"/>
      <point x="1294" y="1878" type="line"/>
      <point x="1292" y="1865"/>
      <point x="1269" y="1815"/>
      <point x="1221" y="1745"/>
      <point x="1159" y="1685"/>
      <point x="1068" y="1642"/>
      <point x="1018" y="1642" type="qcurve" smooth="yes"/>
      <point x="979" y="1642"/>
      <point x="909" y="1670"/>
      <point x="868" y="1703"/>
      <point x="812" y="1731"/>
    </contour>
    <contour>
      <point x="748" y="1454" type="line"/>
      <point x="950" y="1454" type="line"/>
      <point x="1184" y="0" type="line"/>
      <point x="942" y="0" type="line"/>
      <point x="885" y="395" type="line"/>
      <point x="362" y="395" type="line"/>
      <point x="139" y="0" type="line"/>
      <point x="-102" y="0" type="line"/>
    </contour>
    <contour>
      <point x="877" y="565" type="line"/>
      <point x="795" y="1190" type="line"/>
      <point x="438" y="565" type="line"/>
    </contour>
  </outline>
</glyph>
<glyph name="Adieresis" format="2">
  <advance width="1329"/>
  <unicode hex="00C4"/>
  <anchor x="0" y="0" name="Anchor-11"/>
  <anchor x="0" y="0" name="Anchor-10"/>
  <anchor x="944" y="1868" name="Anchor-9"/>
  <anchor x="1184" y="0" name="Anchor-8"/>
  <anchor x="551" y="0" name="Anchor-7"/>
  <outline>
    <contour>
      <point x="627" y="1642" type="line"/>
      <point x="676" y="1868" type="line"/>
      <point x="862" y="1868" type="line"/>
      <point x="815" y="1642" type="line"/>
    </contour>
    <contour>
      <point x="979" y="1642" type="line"/>
      <point x="1026" y="1868" type="line"/>
      <point x="1212" y="1868" type="line"/>
      <point x="1165" y="1642" type="line"/>
    </contour>
    <contour>
      <point x="748" y="1454" type="line"/>
      <point x="950" y="1454" type="line"/>
      <point x="1184" y="0" type="line"/>
      <point x="942" y="0" type="line"/>
      <point x="885" y="395" type="line"/>
      <point x="362" y="395" type="line"/>
      <point x="139" y="0" type="line"/>
      <point x="-102" y="0" type="line"/>
    </contour>
    <contour>
      <point x="877" y="565" type="line"/>
      <point x="795" y="1190" type="line"/>
      <point x="438" y="565" type="line"/>
    </contour>
  </outline>
</glyph>
<glyph name="Aring" format="2">
  <advance width="1329"/>
  <unicode hex="00C5"/>
  <anchor x="0" y="0" name="Anchor-11"/>
  <anchor x="0" y="0" name="Anchor-10"/>
  <anchor x="946" y="1878" name="Anchor-9"/>
  <anchor x="1184" y="0" name="Anchor-8"/>
  <anchor x="551" y="0" name="Anchor-7"/>
  <outline>
    <contour>
      <point x="946" y="1878" type="qcurve" smooth="yes"/>
      <point x="1015" y="1878"/>
      <point x="1094" y="1814"/>
      <point x="1094" y="1757" type="qcurve" smooth="yes"/>
      <point x="1094" y="1678"/>
      <point x="974" y="1579"/>
      <point x="881" y="1579" type="qcurve" smooth="yes"/>
      <point x="813" y="1579"/>
      <point x="733" y="1645"/>
      <point x="733" y="1700" type="qcurve" smooth="yes"/>
      <point x="733" y="1780"/>
      <point x="855" y="1878"/>
    </contour>
    <contour>
      <point x="834" y="1716" type="qcurve" smooth="yes"/>
      <point x="834" y="1689"/>
      <point x="868" y="1653"/>
      <point x="897" y="1653" type="qcurve" smooth="yes"/>
      <point x="934" y="1653"/>
      <point x="995" y="1706"/>
      <point x="995" y="1743" type="qcurve" smooth="yes"/>
      <point x="995" y="1771"/>
      <point x="959" y="1804"/>
      <point x="930" y="1804" type="qcurve" smooth="yes"/>
      <point x="892" y="1804"/>
      <point x="834" y="1753"/>
    </contour>
    <contour>
      <point x="748" y="1454" type="line"/>
      <point x="950" y="1454" type="line"/>
      <point x="1184" y="0" type="line"/>
      <point x="942" y="0" type="line"/>
      <point x="885" y="395" type="line"/>
      <point x="362" y="395" type="line"/>
      <point x="139" y="0" type="line"/>
      <point x="-102" y="0" type="line"/>
    </contour>
    <contour>
      <point x="877" y="565" type="line"/>
      <point x="795" y="1190" type="line"/>
      <point x="438" y="565" type="line"/>
    </contour>
  </outline>
</glyph>
<glyph name="AE" format="2">
  <advance width="1896"/>
  <unicode hex="00C6"/>
  <anchor x="0" y="0" name="Anchor-11"/>
  <anchor x="0" y="0" name="Anchor-10"/>
  <anchor x="1247" y="1450" name="Anchor-9"/>
  <anchor x="0" y="0" name="Anchor-8"/>
  <anchor x="0" y="0" name="Anchor-7"/>
  <outline>
    <contour>
      <point x="1014" y="1454" type="line"/>
      <point x="1987" y="1454" type="line"/>
      <point x="1942" y="1251" type="line"/>
      <point x="1262" y="1251" type="line"/>
      <point x="1176" y="842" type="line"/>
      <point x="1751" y="842" type="line"/>
      <point x="1708" y="639" type="line"/>
      <point x="1133" y="639" type="line"/>
      <point x="1038" y="203" type="line"/>
      <point x="1737" y="203" type="line"/>
      <point x="1694" y="0" type="line"/>
      <point x="766" y="0" type="line"/>
      <point x="852" y="395" type="line"/>
      <point x="391" y="395" type="line"/>
      <point x="84" y="0" type="line"/>
      <point x="-164" y="0" type="line"/>
    </contour>
    <contour>
      <point x="877" y="600" type="line"/>
      <point x="1004" y="1190" type="line"/>
      <point x="535" y="600" type="line"/>
    </contour>
  </outline>
</glyph>
<glyph name="Eacute" format="2">
  <advance width="1185"/>
  <unicode hex="00C9"/>
  <anchor x="0" y="0" name="Anchor-11"/>
  <anchor x="0" y="0" name="Anchor-10"/>
  <anchor x="934" y="1880" name="Anchor-9"/>
  <anchor x="981" y="0" name="Anchor-8"/>
  <anchor x="479" y="0" name="Anchor-7"/>
  <outline>
    <contour>
      <point x="887" y="1618" type="line"/>
      <point x="743" y="1655" type="line"/>
      <point x="899" y="1880" type="line"/>
      <point x="1114" y="1880" type="line"/>
    </contour>
    <contour>
      <point x="340" y="1454" type="line"/>
      <point x="1272" y="1454" type="line"/>
      <point x="1229" y="1251" type="line"/>
      <point x="528" y="1251" type="line"/>
      <point x="440" y="838" type="line"/>
      <point x="1047" y="838" type="line"/>
      <point x="1008" y="647" type="line"/>
      <point x="399" y="647" type="line"/>
      <point x="305" y="203" type="line"/>
      <point x="1024" y="203" type="line"/>
      <point x="981" y="0" type="line"/>
      <point x="31" y="0" type="line"/>
    </contour>
  </outline>
</glyph>
<glyph name="Igrave" format="2">
  <advance width="555"/>
  <unicode hex="00CC"/>
  <anchor x="0" y="0" name="Anchor-11"/>
  <anchor x="0" y="0" name="Anchor-10"/>
  <anchor x="426" y="1878" name="Anchor-9"/>
  <anchor x="262" y="0" name="Anchor-8"/>
  <anchor x="150" y="0" name="Anchor-7"/>
  <outline>
    <contour>
      <point x="260" y="1878" type="line"/>
      <point x="471" y="1878" type="line"/>
      <point x="535" y="1653" type="line"/>
      <point x="377" y="1614" type="line"/>
    </contour>
    <contour>
      <point x="340" y="1452" type="line"/>
      <point x="571" y="1452" type="line"/>
      <point x="262" y="0" type="line"/>
      <point x="31" y="0" type="line"/>
    </contour>
  </outline>
</glyph>
<glyph name="Iacute" format="2">
  <advance width="555"/>
  <unicode hex="00CD"/>
  <anchor x="0" y="0" name="Anchor-11"/>
  <anchor x="0" y="0" name="Anchor-10"/>
  <anchor x="604" y="1880" name="Anchor-9"/>
  <anchor x="262" y="0" name="Anchor-8"/>
  <anchor x="150" y="0" name="Anchor-7"/>
  <outline>
    <contour>
      <point x="557" y="1618" type="line"/>
      <point x="414" y="1655" type="line"/>
      <point x="569" y="1880" type="line"/>
      <point x="784" y="1880" type="line"/>
    </contour>
    <contour>
      <point x="340" y="1452" type="line"/>
      <point x="571" y="1452" type="line"/>
      <point x="262" y="0" type="line"/>
      <point x="31" y="0" type="line"/>
    </contour>
  </outline>
</glyph>
<glyph name="Icircumflex" format="2">
  <advance width="555"/>
  <unicode hex="00CE"/>
  <anchor x="0" y="0" name="Anchor-11"/>
  <anchor x="0" y="0" name="Anchor-10"/>
  <anchor x="537" y="1878" name="Anchor-9"/>
  <anchor x="262" y="0" name="Anchor-8"/>
  <anchor x="150" y="0" name="Anchor-7"/>
  <outline>
    <contour>
      <point x="225" y="1683" type="line"/>
      <point x="469" y="1878" type="line"/>
      <point x="633" y="1878" type="line"/>
      <point x="793" y="1683" type="line"/>
      <point x="662" y="1626" type="line"/>
      <point x="524" y="1755" type="line"/>
      <point x="332" y="1626" type="line"/>
    </contour>
    <contour>
      <point x="340" y="1452" type="line"/>
      <point x="571" y="1452" type="line"/>
      <point x="262" y="0" type="line"/>
      <point x="31" y="0" type="line"/>
    </contour>
  </outline>
</glyph>
<glyph name="Idieresis" format="2">
  <advance width="555"/>
  <unicode hex="00CF"/>
  <anchor x="0" y="0" name="Anchor-11"/>
  <anchor x="0" y="0" name="Anchor-10"/>
  <anchor x="549" y="1868" name="Anchor-9"/>
  <anchor x="262" y="0" name="Anchor-8"/>
  <anchor x="150" y="0" name="Anchor-7"/>
  <outline>
    <contour>
      <point x="231" y="1642" type="line"/>
      <point x="281" y="1868" type="line"/>
      <point x="467" y="1868" type="line"/>
      <point x="420" y="1642" type="line"/>
    </contour>
    <contour>
      <point x="584" y="1642" type="line"/>
      <point x="631" y="1868" type="line"/>
      <point x="817" y="1868" type="line"/>
      <point x="770" y="1642" type="line"/>
    </contour>
    <contour>
      <point x="340" y="1452" type="line"/>
      <point x="571" y="1452" type="line"/>
      <point x="262" y="0" type="line"/>
      <point x="31" y="0" type="line"/>
    </contour>
  </outline>
</glyph>
<glyph name="Eth" format="2">
  <advance width="1429"/>
  <unicode hex="00D0"/>
  <outline>
    <contour>
      <point x="846" y="1454" type="line" smooth="yes"/>
      <point x="982" y="1454"/>
      <point x="1192" y="1368"/>
      <point x="1322" y="1215"/>
      <point x="1389" y="1013"/>
      <point x="1389" y="893" type="qcurve" smooth="yes"/>
      <point x="1389" y="703"/>
      <point x="1259" y="371"/>
      <point x="1033" y="135"/>
      <point x="717" y="0"/>
      <point x="537" y="0" type="qcurve" smooth="yes"/>
      <point x="43" y="0" type="line"/>
      <point x="180" y="645" type="line"/>
      <point x="80" y="645" type="line"/>
      <point x="117" y="817" type="line"/>
      <point x="217" y="817" type="line"/>
      <point x="352" y="1454" type="line"/>
    </contour>
    <contour>
      <point x="580" y="203" type="line" smooth="yes"/>
      <point x="749" y="203"/>
      <point x="1013" y="387"/>
      <point x="1151" y="684"/>
      <point x="1151" y="858" type="qcurve" smooth="yes"/>
      <point x="1151" y="1035"/>
      <point x="970" y="1251"/>
      <point x="803" y="1251" type="qcurve" smooth="yes"/>
      <point x="541" y="1251" type="line"/>
      <point x="449" y="817" type="line"/>
      <point x="735" y="817" type="line"/>
      <point x="700" y="645" type="line"/>
      <point x="412" y="645" type="line"/>
      <point x="317" y="203" type="line"/>
    </contour>
  </outline>
</glyph>
<glyph name="Ntilde" format="2">
  <advance width="1507"/>
  <unicode hex="00D1"/>
  <anchor x="0" y="0" name="Anchor-11"/>
  <anchor x="0" y="0" name="Anchor-10"/>
  <anchor x="1042" y="1874" name="Anchor-9"/>
  <anchor x="0" y="0" name="Anchor-8"/>
  <anchor x="641" y="0" name="Anchor-7"/>
  <outline>
    <contour>
      <point x="883" y="1726" type="qcurve" smooth="yes"/>
      <point x="858" y="1726"/>
      <point x="817" y="1707"/>
      <point x="792" y="1681"/>
      <point x="775" y="1651"/>
      <point x="768" y="1631"/>
      <point x="768" y="1628" type="qcurve"/>
      <point x="641" y="1628" type="line"/>
      <point x="644" y="1643"/>
      <point x="667" y="1695"/>
      <point x="713" y="1764"/>
      <point x="772" y="1823"/>
      <point x="858" y="1864"/>
      <point x="905" y="1864" type="qcurve" smooth="yes"/>
      <point x="954" y="1864"/>
      <point x="1031" y="1819"/>
      <point x="1100" y="1774"/>
      <point x="1139" y="1774" type="qcurve" smooth="yes"/>
      <point x="1171" y="1774"/>
      <point x="1224" y="1802"/>
      <point x="1252" y="1842"/>
      <point x="1264" y="1867"/>
      <point x="1266" y="1874" type="qcurve"/>
      <point x="1393" y="1874" type="line"/>
      <point x="1390" y="1857"/>
      <point x="1352" y="1787"/>
      <point x="1286" y="1701"/>
      <point x="1177" y="1638"/>
      <point x="1116" y="1638" type="qcurve" smooth="yes"/>
      <point x="1077" y="1638"/>
      <point x="1008" y="1666"/>
      <point x="966" y="1698"/>
      <point x="911" y="1726"/>
    </contour>
    <contour>
      <point x="340" y="1454" type="line"/>
      <point x="520" y="1454" type="line"/>
      <point x="1071" y="406" type="line"/>
      <point x="1292" y="1452" type="line"/>
      <point x="1524" y="1452" type="line"/>
      <point x="1214" y="0" type="line"/>
      <point x="1026" y="0" type="line"/>
      <point x="479" y="1024" type="line"/>
      <point x="262" y="0" type="line"/>
      <point x="31" y="0" type="line"/>
    </contour>
  </outline>
</glyph>
<glyph name="multiply" format="2">
  <advance width="980"/>
  <unicode hex="00D7"/>
  <outline>
    <contour>
      <point x="842" y="336" type="line"/>
      <point x="698" y="197" type="line"/>
      <point x="473" y="420" type="line"/>
      <point x="250" y="197" type="line"/>
      <point x="109" y="338" type="line"/>
      <point x="332" y="561" type="line"/>
      <point x="115" y="780" type="line"/>
      <point x="258" y="920" type="line"/>
      <point x="475" y="702" type="line"/>
      <point x="692" y="922" type="line"/>
      <point x="834" y="780" type="line"/>
      <point x="616" y="561" type="line"/>
    </contour>
  </outline>
</glyph>
<glyph name="Oslash" format="2">
  <advance width="1484"/>
  <unicode hex="00D8"/>
  <anchor x="1163" y="1364" name="Anchor-11"/>
  <anchor x="748" y="727" name="Anchor-10"/>
  <anchor x="928" y="1450" name="Anchor-9"/>
  <anchor x="705" y="0" name="Anchor-8"/>
  <anchor x="643" y="0" name="Anchor-7"/>
  <outline>
    <contour>
      <point x="1526" y="1454" type="line"/>
      <point x="1339" y="1239" type="line"/>
      <point x="1446" y="1077"/>
      <point x="1446" y="858" type="qcurve" smooth="yes"/>
      <point x="1446" y="697"/>
      <point x="1305" y="379"/>
      <point x="1077" y="139"/>
      <point x="767" y="-10"/>
      <point x="608" y="-10" type="qcurve" smooth="yes"/>
      <point x="453" y="-10"/>
      <point x="328" y="72" type="qcurve"/>
      <point x="266" y="0" type="line"/>
      <point x="16" y="0" type="line"/>
      <point x="195" y="207" type="line"/>
      <point x="84" y="370"/>
      <point x="84" y="592" type="qcurve" smooth="yes"/>
      <point x="84" y="754"/>
      <point x="226" y="1074"/>
      <point x="456" y="1315"/>
      <point x="766" y="1464"/>
      <point x="926" y="1464" type="qcurve" smooth="yes"/>
      <point x="1083" y="1464"/>
      <point x="1210" y="1378" type="qcurve"/>
      <point x="1276" y="1454" type="line"/>
    </contour>
    <contour>
      <point x="319" y="610" type="qcurve" smooth="yes"/>
      <point x="319" y="493"/>
      <point x="360" y="397" type="qcurve"/>
      <point x="1057" y="1200" type="line"/>
      <point x="980" y="1255"/>
      <point x="879" y="1255" type="qcurve" smooth="yes"/>
      <point x="764" y="1255"/>
      <point x="552" y="1138"/>
      <point x="406" y="954"/>
      <point x="319" y="723"/>
    </contour>
    <contour>
      <point x="1210" y="842" type="qcurve" smooth="yes"/>
      <point x="1210" y="959"/>
      <point x="1174" y="1047" type="qcurve"/>
      <point x="479" y="246" type="line"/>
      <point x="553" y="197"/>
      <point x="653" y="197" type="qcurve" smooth="yes"/>
      <point x="768" y="197"/>
      <point x="979" y="315"/>
      <point x="1124" y="500"/>
      <point x="1210" y="730"/>
    </contour>
  </outline>
</glyph>
<glyph name="Ucircumflex" format="2">
  <advance width="1478"/>
  <unicode hex="00DB"/>
  <anchor x="1532" y="1362" name="Anchor-11"/>
  <anchor x="0" y="0" name="Anchor-10"/>
  <anchor x="987" y="1874" name="Anchor-9"/>
  <anchor x="717" y="0" name="Anchor-8"/>
  <anchor x="614" y="0" name="Anchor-7"/>
  <outline>
    <contour>
      <point x="676" y="1679" type="line"/>
      <point x="920" y="1874" type="line"/>
      <point x="1083" y="1874" type="line"/>
      <point x="1243" y="1679" type="line"/>
      <point x="1112" y="1622" type="line"/>
      <point x="975" y="1751" type="line"/>
      <point x="782" y="1622" type="line"/>
    </contour>
    <contour>
      <point x="135" y="477" type="qcurve" smooth="yes"/>
      <point x="135" y="585"/>
      <point x="164" y="717" type="qcurve" smooth="yes"/>
      <point x="319" y="1454" type="line"/>
      <point x="551" y="1454" type="line"/>
      <point x="393" y="717" type="line" smooth="yes"/>
      <point x="371" y="607"/>
      <point x="371" y="518" type="qcurve" smooth="yes"/>
      <point x="371" y="447"/>
      <point x="400" y="334"/>
      <point x="464" y="245"/>
      <point x="574" y="197"/>
      <point x="649" y="197" type="qcurve" smooth="yes"/>
      <point x="731" y="197"/>
      <point x="873" y="256"/>
      <point x="976" y="354"/>
      <point x="1058" y="490"/>
      <point x="1111" y="635"/>
      <point x="1128" y="717" type="qcurve" smooth="yes"/>
      <point x="1284" y="1454" type="line"/>
      <point x="1516" y="1454" type="line"/>
      <point x="1358" y="717" type="line" smooth="yes"/>
      <point x="1332" y="595"/>
      <point x="1245" y="382"/>
      <point x="1114" y="197"/>
      <point x="948" y="65"/>
      <point x="731" y="-10"/>
      <point x="481" y="-10"/>
      <point x="295" y="64"/>
      <point x="187" y="200"/>
      <point x="135" y="371"/>
    </contour>
  </outline>
</glyph>
<glyph name="Thorn" format="2">
  <advance width="1191"/>
  <unicode hex="00DE"/>
  <outline>
    <contour>
      <point x="340" y="1454" type="line"/>
      <point x="571" y="1454" type="line"/>
      <point x="514" y="1182" type="line"/>
      <point x="829" y="1182" type="line" smooth="yes"/>
      <point x="932" y="1182"/>
      <point x="1092" y="1068"/>
      <point x="1171" y="892"/>
      <point x="1171" y="690"/>
      <point x="1085" y="488"/>
      <point x="943" y="331"/>
      <point x="744" y="233"/>
      <point x="639" y="233" type="qcurve" smooth="yes"/>
      <point x="311" y="233" type="line"/>
      <point x="262" y="0" type="line"/>
      <point x="31" y="0" type="line"/>
    </contour>
    <contour>
      <point x="672" y="438" type="line" smooth="yes"/>
      <point x="776" y="438"/>
      <point x="936" y="642"/>
      <point x="936" y="766" type="qcurve" smooth="yes"/>
      <point x="936" y="858"/>
      <point x="845" y="979"/>
      <point x="774" y="979" type="qcurve" smooth="yes"/>
      <point x="469" y="979" type="line"/>
      <point x="354" y="438" type="line"/>
    </contour>
  </outline>
</glyph>
<glyph name="germandbls" format="2">
  <advance width="1095"/>
  <unicode hex="00DF"/>
  <outline>
    <contour>
      <point x="393" y="195" type="line"/>
      <point x="559" y="198"/>
      <point x="764" y="354"/>
      <point x="764" y="504" type="qcurve" smooth="yes"/>
      <point x="764" y="598"/>
      <point x="653" y="707"/>
      <point x="563" y="707" type="qcurve" smooth="yes"/>
      <point x="522" y="707" type="line"/>
      <point x="565" y="911" type="line"/>
      <point x="604" y="911" type="line" smooth="yes"/>
      <point x="697" y="911"/>
      <point x="821" y="1040"/>
      <point x="821" y="1133" type="qcurve" smooth="yes"/>
      <point x="821" y="1199"/>
      <point x="739" y="1270"/>
      <point x="676" y="1270" type="qcurve" smooth="yes"/>
      <point x="581" y="1270"/>
      <point x="456" y="1132"/>
      <point x="434" y="1026" type="qcurve" smooth="yes"/>
      <point x="215" y="0" type="line"/>
      <point x="0" y="0" type="line"/>
      <point x="227" y="1065" type="line" smooth="yes"/>
      <point x="264" y="1238"/>
      <point x="550" y="1462"/>
      <point x="733" y="1462" type="qcurve" smooth="yes"/>
      <point x="874" y="1462"/>
      <point x="1047" y="1313"/>
      <point x="1047" y="1188" type="qcurve" smooth="yes"/>
      <point x="1047" y="1069"/>
      <point x="889" y="854"/>
      <point x="793" y="823" type="qcurve"/>
      <point x="892" y="797"/>
      <point x="997" y="630"/>
      <point x="997" y="514" type="qcurve" smooth="yes"/>
      <point x="997" y="386"/>
      <point x="892" y="185"/>
      <point x="710" y="59"/>
      <point x="480" y="-8"/>
      <point x="348" y="-12" type="qcurve"/>
    </contour>
  </outline>
</glyph>
<glyph name="atilde" format="2">
  <advance width="1259"/>
  <unicode hex="00E3"/>
  <anchor x="0" y="0" name="Anchor-11"/>
  <anchor x="0" y="0" name="Anchor-10"/>
  <anchor x="834" y="1495" name="Anchor-9"/>
  <anchor x="1036" y="0" name="Anchor-8"/>
  <anchor x="516" y="0" name="Anchor-7"/>
  <outline>
    <contour>
      <point x="674" y="1348" type="qcurve" smooth="yes"/>
      <point x="649" y="1348"/>
      <point x="608" y="1329"/>
      <point x="583" y="1302"/>
      <point x="566" y="1272"/>
      <point x="559" y="1252"/>
      <point x="559" y="1249" type="qcurve"/>
      <point x="432" y="1249" type="line"/>
      <point x="435" y="1264"/>
      <point x="458" y="1316"/>
      <point x="504" y="1385"/>
      <point x="563" y="1444"/>
      <point x="649" y="1485"/>
      <point x="696" y="1485" type="qcurve" smooth="yes"/>
      <point x="745" y="1485"/>
      <point x="822" y="1440"/>
      <point x="891" y="1395"/>
      <point x="930" y="1395" type="qcurve" smooth="yes"/>
      <point x="962" y="1395"/>
      <point x="1015" y="1423"/>
      <point x="1043" y="1463"/>
      <point x="1055" y="1488"/>
      <point x="1057" y="1495" type="qcurve"/>
      <point x="1184" y="1495" type="line"/>
      <point x="1181" y="1478"/>
      <point x="1143" y="1408"/>
      <point x="1077" y="1322"/>
      <point x="968" y="1260"/>
      <point x="907" y="1260" type="qcurve" smooth="yes"/>
      <point x="868" y="1260"/>
      <point x="799" y="1288"/>
      <point x="757" y="1320"/>
      <point x="702" y="1348"/>
    </contour>
    <contour>
      <point x="39" y="422" type="qcurve" smooth="yes"/>
      <point x="39" y="550"/>
      <point x="137" y="796"/>
      <point x="297" y="978"/>
      <point x="515" y="1090"/>
      <point x="629" y="1090" type="qcurve" smooth="yes"/>
      <point x="742" y="1090"/>
      <point x="902" y="967"/>
      <point x="936" y="868" type="qcurve"/>
      <point x="979" y="1069" type="line"/>
      <point x="1206" y="1069" type="line"/>
      <point x="1034" y="266" type="line" smooth="yes"/>
      <point x="1030" y="242"/>
      <point x="1030" y="236" type="qcurve" smooth="yes"/>
      <point x="1030" y="214"/>
      <point x="1052" y="195"/>
      <point x="1077" y="193" type="qcurve"/>
      <point x="1036" y="0" type="line"/>
      <point x="971" y="-10"/>
      <point x="944" y="-10" type="qcurve" smooth="yes"/>
      <point x="880" y="-10"/>
      <point x="811" y="45"/>
      <point x="811" y="96" type="qcurve" smooth="yes"/>
      <point x="811" y="129"/>
      <point x="825" y="195" type="qcurve"/>
      <point x="749" y="94"/>
      <point x="528" y="-20"/>
      <point x="420" y="-20" type="qcurve" smooth="yes"/>
      <point x="245" y="-20"/>
      <point x="39" y="232"/>
    </contour>
    <contour>
      <point x="836" y="385" type="qcurve"/>
      <point x="893" y="666" type="line"/>
      <point x="881" y="763"/>
      <point x="743" y="897"/>
      <point x="657" y="897" type="qcurve" smooth="yes"/>
      <point x="558" y="897"/>
      <point x="379" y="767"/>
      <point x="276" y="565"/>
      <point x="276" y="459" type="qcurve" smooth="yes"/>
      <point x="276" y="335"/>
      <point x="408" y="172"/>
      <point x="518" y="172" type="qcurve" smooth="yes"/>
      <point x="602" y="172"/>
      <point x="793" y="296"/>
    </contour>
  </outline>
</glyph>
<glyph name="ecircumflex" format="2">
  <advance width="1116"/>
  <unicode hex="00EA"/>
  <anchor x="0" y="0" name="Anchor-11"/>
  <anchor x="0" y="0" name="Anchor-10"/>
  <anchor x="778" y="1493" name="Anchor-9"/>
  <anchor x="621" y="0" name="Anchor-8"/>
  <anchor x="471" y="0" name="Anchor-7"/>
  <outline>
    <contour>
      <point x="766" y="1370" type="line"/>
      <point x="573" y="1241" type="line"/>
      <point x="467" y="1298" type="line"/>
      <point x="711" y="1493" type="line"/>
      <point x="874" y="1493" type="line"/>
      <point x="1034" y="1298" type="line"/>
      <point x="903" y="1241" type="line"/>
    </contour>
    <contour>
      <point x="469" y="459" type="qcurve" smooth="yes"/>
      <point x="368" y="459"/>
      <point x="272" y="467" type="qcurve"/>
      <point x="270" y="453"/>
      <point x="270" y="428" type="qcurve" smooth="yes"/>
      <point x="270" y="302"/>
      <point x="390" y="145"/>
      <point x="508" y="145" type="qcurve" smooth="yes"/>
      <point x="596" y="145"/>
      <point x="760" y="234"/>
      <point x="807" y="309" type="qcurve"/>
      <point x="985" y="254" type="line"/>
      <point x="906" y="132"/>
      <point x="623" y="-20"/>
      <point x="469" y="-20" type="qcurve" smooth="yes"/>
      <point x="271" y="-20"/>
      <point x="41" y="234"/>
      <point x="41" y="432" type="qcurve" smooth="yes"/>
      <point x="41" y="561"/>
      <point x="143" y="802"/>
      <point x="316" y="982"/>
      <point x="563" y="1090"/>
      <point x="700" y="1090" type="qcurve" smooth="yes"/>
      <point x="870" y="1090"/>
      <point x="1069" y="937"/>
      <point x="1069" y="795" type="qcurve" smooth="yes"/>
      <point x="1069" y="459"/>
    </contour>
    <contour>
      <point x="676" y="924" type="qcurve" smooth="yes"/>
      <point x="536" y="924"/>
      <point x="344" y="748"/>
      <point x="301" y="612" type="qcurve"/>
      <point x="393" y="606"/>
      <point x="473" y="606" type="qcurve" smooth="yes"/>
      <point x="860" y="606"/>
      <point x="860" y="788" type="qcurve" smooth="yes"/>
      <point x="860" y="855"/>
      <point x="763" y="924"/>
    </contour>
  </outline>
</glyph>
<glyph name="igrave" format="2">
  <advance width="489"/>
  <unicode hex="00EC"/>
  <anchor x="0" y="0" name="Anchor-11"/>
  <anchor x="0" y="0" name="Anchor-10"/>
  <anchor x="471" y="1473" name="Anchor-9"/>
  <anchor x="326" y="20" name="Anchor-8"/>
  <anchor x="113" y="0" name="Anchor-7"/>
  <outline>
    <contour>
      <point x="305" y="1473" type="line"/>
      <point x="516" y="1473" type="line"/>
      <point x="580" y="1247" type="line"/>
      <point x="422" y="1208" type="line"/>
    </contour>
    <contour>
      <point x="229" y="1071" type="line"/>
      <point x="455" y="1071" type="line"/>
      <point x="225" y="0" type="line"/>
      <point x="0" y="0" type="line"/>
    </contour>
  </outline>
</glyph>
<glyph name="iacute" format="2">
  <advance width="489"/>
  <unicode hex="00ED"/>
  <anchor x="0" y="0" name="Anchor-11"/>
  <anchor x="0" y="0" name="Anchor-10"/>
  <anchor x="483" y="1497" name="Anchor-9"/>
  <anchor x="326" y="20" name="Anchor-8"/>
  <anchor x="113" y="0" name="Anchor-7"/>
  <outline>
    <contour>
      <point x="436" y="1235" type="line"/>
      <point x="293" y="1272" type="line"/>
      <point x="449" y="1497" type="line"/>
      <point x="664" y="1497" type="line"/>
    </contour>
    <contour>
      <point x="229" y="1071" type="line"/>
      <point x="455" y="1071" type="line"/>
      <point x="225" y="0" type="line"/>
      <point x="0" y="0" type="line"/>
    </contour>
  </outline>
</glyph>
<glyph name="icircumflex" format="2">
  <advance width="489"/>
  <unicode hex="00EE"/>
  <anchor x="0" y="0" name="Anchor-11"/>
  <anchor x="0" y="0" name="Anchor-10"/>
  <anchor x="416" y="1495" name="Anchor-9"/>
  <anchor x="326" y="20" name="Anchor-8"/>
  <anchor x="113" y="0" name="Anchor-7"/>
  <outline>
    <contour>
      <point x="104" y="1300" type="line"/>
      <point x="348" y="1495" type="line"/>
      <point x="512" y="1495" type="line"/>
      <point x="672" y="1300" type="line"/>
      <point x="541" y="1243" type="line"/>
      <point x="403" y="1372" type="line"/>
      <point x="211" y="1243" type="line"/>
    </contour>
    <contour>
      <point x="229" y="1071" type="line"/>
      <point x="455" y="1071" type="line"/>
      <point x="225" y="0" type="line"/>
      <point x="0" y="0" type="line"/>
    </contour>
  </outline>
</glyph>
<glyph name="idieresis" format="2">
  <advance width="489"/>
  <unicode hex="00EF"/>
  <anchor x="0" y="0" name="Anchor-11"/>
  <anchor x="0" y="0" name="Anchor-10"/>
  <anchor x="428" y="1485" name="Anchor-9"/>
  <anchor x="326" y="20" name="Anchor-8"/>
  <anchor x="113" y="0" name="Anchor-7"/>
  <outline>
    <contour>
      <point x="111" y="1260" type="line"/>
      <point x="160" y="1485" type="line"/>
      <point x="346" y="1485" type="line"/>
      <point x="299" y="1260" type="line"/>
    </contour>
    <contour>
      <point x="463" y="1260" type="line"/>
      <point x="510" y="1485" type="line"/>
      <point x="696" y="1485" type="line"/>
      <point x="649" y="1260" type="line"/>
    </contour>
    <contour>
      <point x="229" y="1071" type="line"/>
      <point x="455" y="1071" type="line"/>
      <point x="225" y="0" type="line"/>
      <point x="0" y="0" type="line"/>
    </contour>
  </outline>
</glyph>
<glyph name="eth" format="2">
  <advance width="1202"/>
  <unicode hex="00F0"/>
  <outline>
    <contour>
      <point x="1171" y="1368" type="line"/>
      <point x="1001" y="1278" type="line"/>
      <point x="1071" y="1165"/>
      <point x="1141" y="896"/>
      <point x="1141" y="766" type="qcurve" smooth="yes"/>
      <point x="1141" y="626"/>
      <point x="1067" y="376"/>
      <point x="936" y="188"/>
      <point x="764" y="51"/>
      <point x="560" y="-20"/>
      <point x="453" y="-20" type="qcurve" smooth="yes"/>
      <point x="266" y="-20"/>
      <point x="31" y="214"/>
      <point x="31" y="391" type="qcurve" smooth="yes"/>
      <point x="31" y="541"/>
      <point x="199" y="810"/>
      <point x="471" y="969"/>
      <point x="618" y="969" type="qcurve" smooth="yes"/>
      <point x="726" y="969"/>
      <point x="892" y="865"/>
      <point x="926" y="778" type="qcurve"/>
      <point x="926" y="853"/>
      <point x="915" y="909" type="qcurve" smooth="yes"/>
      <point x="893" y="1065"/>
      <point x="813" y="1194" type="qcurve"/>
      <point x="604" y="1079" type="line"/>
      <point x="557" y="1171" type="line"/>
      <point x="752" y="1278" type="line"/>
      <point x="661" y="1389"/>
      <point x="500" y="1495" type="qcurve"/>
      <point x="797" y="1495" type="line"/>
      <point x="880" y="1436"/>
      <point x="942" y="1362" type="qcurve"/>
      <point x="1124" y="1460" type="line"/>
    </contour>
    <contour>
      <point x="500" y="172" type="qcurve" smooth="yes"/>
      <point x="646" y="172"/>
      <point x="870" y="397"/>
      <point x="870" y="543" type="qcurve" smooth="yes"/>
      <point x="870" y="649"/>
      <point x="741" y="786"/>
      <point x="635" y="786" type="qcurve" smooth="yes"/>
      <point x="489" y="786"/>
      <point x="264" y="568"/>
      <point x="264" y="420" type="qcurve" smooth="yes"/>
      <point x="264" y="314"/>
      <point x="396" y="172"/>
    </contour>
  </outline>
</glyph>
<glyph name="ntilde" format="2">
  <advance width="1175"/>
  <unicode hex="00F1"/>
  <anchor x="0" y="0" name="Anchor-11"/>
  <anchor x="0" y="0" name="Anchor-10"/>
  <anchor x="893" y="1493" name="Anchor-9"/>
  <anchor x="0" y="0" name="Anchor-8"/>
  <anchor x="479" y="0" name="Anchor-7"/>
  <outline>
    <contour>
      <point x="733" y="1346" type="qcurve" smooth="yes"/>
      <point x="708" y="1346"/>
      <point x="667" y="1327"/>
      <point x="642" y="1300"/>
      <point x="625" y="1270"/>
      <point x="618" y="1250"/>
      <point x="618" y="1247" type="qcurve"/>
      <point x="492" y="1247" type="line"/>
      <point x="495" y="1262"/>
      <point x="518" y="1314"/>
      <point x="564" y="1383"/>
      <point x="623" y="1442"/>
      <point x="709" y="1483"/>
      <point x="756" y="1483" type="qcurve" smooth="yes"/>
      <point x="795" y="1483"/>
      <point x="861" y="1455"/>
      <point x="900" y="1421"/>
      <point x="958" y="1393"/>
      <point x="989" y="1393" type="qcurve" smooth="yes"/>
      <point x="1021" y="1393"/>
      <point x="1074" y="1421"/>
      <point x="1102" y="1461"/>
      <point x="1114" y="1486"/>
      <point x="1116" y="1493" type="qcurve"/>
      <point x="1243" y="1493" type="line"/>
      <point x="1241" y="1480"/>
      <point x="1218" y="1430"/>
      <point x="1170" y="1360"/>
      <point x="1108" y="1300"/>
      <point x="1017" y="1257"/>
      <point x="967" y="1257" type="qcurve" smooth="yes"/>
      <point x="928" y="1257"/>
      <point x="858" y="1285"/>
      <point x="817" y="1318"/>
      <point x="761" y="1346"/>
    </contour>
    <contour>
      <point x="229" y="1071" type="line"/>
      <point x="432" y="1071" type="line"/>
      <point x="387" y="856" type="line"/>
      <point x="467" y="964"/>
      <point x="715" y="1090"/>
      <point x="848" y="1090" type="qcurve" smooth="yes"/>
      <point x="1085" y="1090"/>
      <point x="1085" y="840" type="qcurve" smooth="yes"/>
      <point x="1085" y="766"/>
      <point x="1061" y="653" type="qcurve" smooth="yes"/>
      <point x="924" y="0" type="line"/>
      <point x="698" y="0" type="line"/>
      <point x="825" y="600" type="line" smooth="yes"/>
      <point x="842" y="687"/>
      <point x="842" y="731" type="qcurve" smooth="yes"/>
      <point x="842" y="889"/>
      <point x="711" y="889" type="qcurve" smooth="yes"/>
      <point x="620" y="889"/>
      <point x="417" y="744"/>
      <point x="362" y="637" type="qcurve"/>
      <point x="225" y="0" type="line"/>
      <point x="0" y="0" type="line"/>
    </contour>
  </outline>
</glyph>
<glyph name="odieresis" format="2">
  <advance width="1191"/>
  <unicode hex="00F6"/>
  <anchor x="961" y="981" name="Anchor-11"/>
  <anchor x="596" y="535" name="Anchor-10"/>
  <anchor x="784" y="1483" name="Anchor-9"/>
  <anchor x="584" y="0" name="Anchor-8"/>
  <anchor x="487" y="0" name="Anchor-7"/>
  <outline>
    <contour>
      <point x="467" y="1257" type="line"/>
      <point x="516" y="1483" type="line"/>
      <point x="702" y="1483" type="line"/>
      <point x="655" y="1257" type="line"/>
    </contour>
    <contour>
      <point x="819" y="1257" type="line"/>
      <point x="866" y="1483" type="line"/>
      <point x="1053" y="1483" type="line"/>
      <point x="1006" y="1257" type="line"/>
    </contour>
    <contour>
      <point x="39" y="432" type="qcurve" smooth="yes"/>
      <point x="39" y="608"/>
      <point x="207" y="910"/>
      <point x="503" y="1090"/>
      <point x="680" y="1090" type="qcurve" smooth="yes"/>
      <point x="789" y="1090"/>
      <point x="959" y="1019"/>
      <point x="1064" y="895"/>
      <point x="1118" y="732"/>
      <point x="1118" y="637" type="qcurve" smooth="yes"/>
      <point x="1118" y="506"/>
      <point x="1019" y="265"/>
      <point x="849" y="86"/>
      <point x="608" y="-20"/>
      <point x="473" y="-20" type="qcurve" smooth="yes"/>
      <point x="365" y="-20"/>
      <point x="196" y="50"/>
      <point x="92" y="175"/>
      <point x="39" y="336"/>
    </contour>
    <contour>
      <point x="883" y="606" type="qcurve" smooth="yes"/>
      <point x="883" y="737"/>
      <point x="759" y="897"/>
      <point x="645" y="897" type="qcurve" smooth="yes"/>
      <point x="550" y="897"/>
      <point x="379" y="784"/>
      <point x="272" y="581"/>
      <point x="272" y="461" type="qcurve" smooth="yes"/>
      <point x="272" y="330"/>
      <point x="397" y="172"/>
      <point x="510" y="172" type="qcurve" smooth="yes"/>
      <point x="659" y="172"/>
      <point x="883" y="423"/>
    </contour>
  </outline>
</glyph>
<glyph name="divide" format="2">
  <advance width="1079"/>
  <unicode hex="00F7"/>
  <outline>
    <contour>
      <point x="438" y="842" type="line"/>
      <point x="438" y="1077" type="line"/>
      <point x="631" y="1077" type="line"/>
      <point x="631" y="842" type="line"/>
    </contour>
    <contour>
      <point x="121" y="508" type="line"/>
      <point x="121" y="688" type="line"/>
      <point x="946" y="688" type="line"/>
      <point x="946" y="508" type="line"/>
    </contour>
    <contour>
      <point x="438" y="119" type="line"/>
      <point x="438" y="352" type="line"/>
      <point x="631" y="352" type="line"/>
      <point x="631" y="119" type="line"/>
    </contour>
  </outline>
</glyph>
<glyph name="thorn" format="2">
  <advance width="1204"/>
  <unicode hex="00FE"/>
  <outline>
    <contour>
      <point x="-92" y="-436" type="line"/>
      <point x="309" y="1454" type="line"/>
      <point x="541" y="1454" type="line"/>
      <point x="424" y="918" type="line"/>
      <point x="498" y="998"/>
      <point x="689" y="1090"/>
      <point x="791" y="1090" type="qcurve" smooth="yes"/>
      <point x="961" y="1090"/>
      <point x="1165" y="834"/>
      <point x="1165" y="645" type="qcurve" smooth="yes"/>
      <point x="1165" y="518"/>
      <point x="1069" y="273"/>
      <point x="912" y="91"/>
      <point x="696" y="-20"/>
      <point x="582" y="-20" type="qcurve" smooth="yes"/>
      <point x="464" y="-20"/>
      <point x="301" y="100"/>
      <point x="268" y="201" type="qcurve"/>
      <point x="133" y="-436" type="line"/>
    </contour>
    <contour>
      <point x="549" y="172" type="qcurve" smooth="yes"/>
      <point x="648" y="172"/>
      <point x="827" y="302"/>
      <point x="930" y="504"/>
      <point x="930" y="610" type="qcurve" smooth="yes"/>
      <point x="930" y="733"/>
      <point x="798" y="897"/>
      <point x="688" y="897" type="qcurve" smooth="yes"/>
      <point x="604" y="897"/>
      <point x="415" y="773"/>
      <point x="373" y="686" type="qcurve"/>
      <point x="311" y="406" type="line"/>
      <point x="330" y="305"/>
      <point x="460" y="172"/>
    </contour>
  </outline>
</glyph>
<glyph name="Amacron" format="2">
  <advance width="1329"/>
  <unicode hex="0100"/>
  <anchor x="0" y="0" name="Anchor-11"/>
  <anchor x="0" y="0" name="Anchor-10"/>
  <anchor x="936" y="1841" name="Anchor-9"/>
  <anchor x="1184" y="0" name="Anchor-8"/>
  <anchor x="551" y="0" name="Anchor-7"/>
  <outline>
    <contour>
      <point x="616" y="1698" type="line"/>
      <point x="645" y="1841" type="line"/>
      <point x="1225" y="1841" type="line"/>
      <point x="1194" y="1698" type="line"/>
    </contour>
    <contour>
      <point x="748" y="1454" type="line"/>
      <point x="950" y="1454" type="line"/>
      <point x="1184" y="0" type="line"/>
      <point x="942" y="0" type="line"/>
      <point x="885" y="395" type="line"/>
      <point x="362" y="395" type="line"/>
      <point x="139" y="0" type="line"/>
      <point x="-102" y="0" type="line"/>
    </contour>
    <contour>
      <point x="877" y="565" type="line"/>
      <point x="795" y="1190" type="line"/>
      <point x="438" y="565" type="line"/>
    </contour>
  </outline>
</glyph>
<glyph name="amacron" format="2">
  <advance width="1259"/>
  <unicode hex="0101"/>
  <anchor x="0" y="0" name="Anchor-11"/>
  <anchor x="0" y="0" name="Anchor-10"/>
  <anchor x="825" y="1458" name="Anchor-9"/>
  <anchor x="1036" y="0" name="Anchor-8"/>
  <anchor x="516" y="0" name="Anchor-7"/>
  <outline>
    <contour>
      <point x="506" y="1315" type="line"/>
      <point x="535" y="1458" type="line"/>
      <point x="1114" y="1458" type="line"/>
      <point x="1083" y="1315" type="line"/>
    </contour>
    <contour>
      <point x="39" y="422" type="qcurve" smooth="yes"/>
      <point x="39" y="550"/>
      <point x="137" y="796"/>
      <point x="297" y="978"/>
      <point x="515" y="1090"/>
      <point x="629" y="1090" type="qcurve" smooth="yes"/>
      <point x="742" y="1090"/>
      <point x="902" y="967"/>
      <point x="936" y="868" type="qcurve"/>
      <point x="979" y="1069" type="line"/>
      <point x="1206" y="1069" type="line"/>
      <point x="1034" y="266" type="line" smooth="yes"/>
      <point x="1030" y="242"/>
      <point x="1030" y="236" type="qcurve" smooth="yes"/>
      <point x="1030" y="214"/>
      <point x="1052" y="195"/>
      <point x="1077" y="193" type="qcurve"/>
      <point x="1036" y="0" type="line"/>
      <point x="971" y="-10"/>
      <point x="944" y="-10" type="qcurve" smooth="yes"/>
      <point x="880" y="-10"/>
      <point x="811" y="45"/>
      <point x="811" y="96" type="qcurve" smooth="yes"/>
      <point x="811" y="129"/>
      <point x="825" y="195" type="qcurve"/>
      <point x="749" y="94"/>
      <point x="528" y="-20"/>
      <point x="420" y="-20" type="qcurve" smooth="yes"/>
      <point x="245" y="-20"/>
      <point x="39" y="232"/>
    </contour>
    <contour>
      <point x="836" y="385" type="qcurve"/>
      <point x="893" y="666" type="line"/>
      <point x="881" y="763"/>
      <point x="743" y="897"/>
      <point x="657" y="897" type="qcurve" smooth="yes"/>
      <point x="558" y="897"/>
      <point x="379" y="767"/>
      <point x="276" y="565"/>
      <point x="276" y="459" type="qcurve" smooth="yes"/>
      <point x="276" y="335"/>
      <point x="408" y="172"/>
      <point x="518" y="172" type="qcurve" smooth="yes"/>
      <point x="602" y="172"/>
      <point x="793" y="296"/>
    </contour>
  </outline>
</glyph>
<glyph name="Abreve" format="2">
  <advance width="1329"/>
  <unicode hex="0102"/>
  <anchor x="0" y="0" name="Anchor-11"/>
  <anchor x="0" y="0" name="Anchor-10"/>
  <anchor x="944" y="1878" name="Anchor-9"/>
  <anchor x="1184" y="0" name="Anchor-8"/>
  <anchor x="551" y="0" name="Anchor-7"/>
  <outline>
    <contour>
      <point x="1055" y="1878" type="qcurve"/>
      <point x="1180" y="1878" type="line"/>
      <point x="1157" y="1770"/>
      <point x="991" y="1628"/>
      <point x="889" y="1628" type="qcurve" smooth="yes"/>
      <point x="802" y="1628"/>
      <point x="696" y="1734"/>
      <point x="696" y="1819" type="qcurve" smooth="yes"/>
      <point x="696" y="1833"/>
      <point x="705" y="1878" type="qcurve"/>
      <point x="829" y="1878" type="line"/>
      <point x="825" y="1854"/>
      <point x="825" y="1841" type="qcurve" smooth="yes"/>
      <point x="825" y="1796"/>
      <point x="873" y="1733"/>
      <point x="911" y="1733" type="qcurve" smooth="yes"/>
      <point x="954" y="1733"/>
      <point x="1036" y="1815"/>
    </contour>
    <contour>
      <point x="748" y="1454" type="line"/>
      <point x="950" y="1454" type="line"/>
      <point x="1184" y="0" type="line"/>
      <point x="942" y="0" type="line"/>
      <point x="885" y="395" type="line"/>
      <point x="362" y="395" type="line"/>
      <point x="139" y="0" type="line"/>
      <point x="-102" y="0" type="line"/>
    </contour>
    <contour>
      <point x="877" y="565" type="line"/>
      <point x="795" y="1190" type="line"/>
      <point x="438" y="565" type="line"/>
    </contour>
  </outline>
</glyph>
<glyph name="Aogonek" format="2">
  <advance width="1329"/>
  <unicode hex="0104"/>
  <anchor x="0" y="0" name="Anchor-11"/>
  <anchor x="0" y="0" name="Anchor-10"/>
  <anchor x="854" y="1454" name="Anchor-9"/>
  <anchor x="1184" y="0" name="Anchor-8"/>
  <anchor x="551" y="0" name="Anchor-7"/>
  <outline>
    <contour>
      <point x="1024" y="-201" type="qcurve" smooth="yes"/>
      <point x="1024" y="-258"/>
      <point x="1116" y="-264" type="qcurve"/>
      <point x="1036" y="-397" type="line"/>
      <point x="954" y="-387"/>
      <point x="877" y="-307"/>
      <point x="877" y="-252" type="qcurve" smooth="yes"/>
      <point x="877" y="-125"/>
      <point x="1042" y="0" type="qcurve"/>
      <point x="942" y="0" type="line"/>
      <point x="885" y="395" type="line"/>
      <point x="362" y="395" type="line"/>
      <point x="139" y="0" type="line"/>
      <point x="-102" y="0" type="line"/>
      <point x="748" y="1454" type="line"/>
      <point x="950" y="1454" type="line"/>
      <point x="1184" y="0" type="line"/>
      <point x="1099" y="-70"/>
      <point x="1024" y="-162"/>
    </contour>
    <contour>
      <point x="438" y="565" type="line"/>
      <point x="877" y="565" type="line"/>
      <point x="795" y="1190" type="line"/>
    </contour>
  </outline>
</glyph>
<glyph name="cacute" format="2">
  <advance width="1097"/>
  <unicode hex="0107"/>
  <anchor x="0" y="0" name="Anchor-11"/>
  <anchor x="0" y="0" name="Anchor-10"/>
  <anchor x="844" y="1495" name="Anchor-9"/>
  <anchor x="0" y="0" name="Anchor-8"/>
  <anchor x="494" y="0" name="Anchor-7"/>
  <outline>
    <contour>
      <point x="797" y="1233" type="line"/>
      <point x="653" y="1270" type="line"/>
      <point x="809" y="1495" type="line"/>
      <point x="1024" y="1495" type="line"/>
    </contour>
    <contour>
      <point x="39" y="432" type="qcurve" smooth="yes"/>
      <point x="39" y="533"/>
      <point x="102" y="728"/>
      <point x="220" y="893"/>
      <point x="379" y="1019"/>
      <point x="583" y="1090"/>
      <point x="694" y="1090" type="qcurve" smooth="yes"/>
      <point x="854" y="1090"/>
      <point x="1054" y="947"/>
      <point x="1087" y="823" type="qcurve"/>
      <point x="854" y="754" type="line"/>
      <point x="832" y="824"/>
      <point x="729" y="897"/>
      <point x="655" y="897" type="qcurve" smooth="yes"/>
      <point x="557" y="897"/>
      <point x="381" y="781"/>
      <point x="272" y="578"/>
      <point x="272" y="459" type="qcurve" smooth="yes"/>
      <point x="272" y="334"/>
      <point x="400" y="172"/>
      <point x="502" y="172" type="qcurve" smooth="yes"/>
      <point x="578" y="172"/>
      <point x="731" y="257"/>
      <point x="766" y="319" type="qcurve"/>
      <point x="973" y="254" type="line"/>
      <point x="897" y="132"/>
      <point x="623" y="-20"/>
      <point x="467" y="-20" type="qcurve" smooth="yes"/>
      <point x="332" y="-20"/>
      <point x="135" y="104"/>
      <point x="39" y="306"/>
    </contour>
  </outline>
</glyph>
<glyph name="Ccircumflex" format="2">
  <advance width="1341"/>
  <unicode hex="0108"/>
  <anchor x="0" y="0" name="Anchor-11"/>
  <anchor x="0" y="0" name="Anchor-10"/>
  <anchor x="944" y="1878" name="Anchor-9"/>
  <anchor x="0" y="0" name="Anchor-8"/>
  <anchor x="559" y="0" name="Anchor-7"/>
  <outline>
    <contour>
      <point x="633" y="1683" type="line"/>
      <point x="877" y="1878" type="line"/>
      <point x="1040" y="1878" type="line"/>
      <point x="1200" y="1683" type="line"/>
      <point x="1069" y="1626" type="line"/>
      <point x="932" y="1755" type="line"/>
      <point x="739" y="1626" type="line"/>
    </contour>
    <contour>
      <point x="84" y="596" type="qcurve" smooth="yes"/>
      <point x="84" y="750"/>
      <point x="205" y="1057"/>
      <point x="416" y="1306"/>
      <point x="732" y="1462"/>
      <point x="911" y="1462" type="qcurve" smooth="yes"/>
      <point x="1104" y="1462"/>
      <point x="1347" y="1288"/>
      <point x="1386" y="1145" type="qcurve"/>
      <point x="1192" y="1028" type="line"/>
      <point x="1131" y="1255"/>
      <point x="874" y="1255" type="qcurve" smooth="yes"/>
      <point x="766" y="1255"/>
      <point x="581" y="1177"/>
      <point x="453" y="1049"/>
      <point x="362" y="882"/>
      <point x="319" y="705"/>
      <point x="319" y="618" type="qcurve" smooth="yes"/>
      <point x="319" y="501"/>
      <point x="397" y="311"/>
      <point x="555" y="195"/>
      <point x="662" y="195" type="qcurve" smooth="yes"/>
      <point x="773" y="195"/>
      <point x="993" y="315"/>
      <point x="1067" y="434" type="qcurve"/>
      <point x="1235" y="326" type="line"/>
      <point x="1134" y="164"/>
      <point x="788" y="-12"/>
      <point x="616" y="-12" type="qcurve" smooth="yes"/>
      <point x="489" y="-12"/>
      <point x="283" y="91"/>
      <point x="153" y="263"/>
      <point x="84" y="479"/>
    </contour>
  </outline>
</glyph>
<glyph name="ccircumflex" format="2">
  <advance width="1097"/>
  <unicode hex="0109"/>
  <anchor x="0" y="0" name="Anchor-11"/>
  <anchor x="0" y="0" name="Anchor-10"/>
  <anchor x="776" y="1493" name="Anchor-9"/>
  <anchor x="0" y="0" name="Anchor-8"/>
  <anchor x="494" y="0" name="Anchor-7"/>
  <outline>
    <contour>
      <point x="465" y="1298" type="line"/>
      <point x="709" y="1493" type="line"/>
      <point x="872" y="1493" type="line"/>
      <point x="1032" y="1298" type="line"/>
      <point x="901" y="1241" type="line"/>
      <point x="764" y="1370" type="line"/>
      <point x="571" y="1241" type="line"/>
    </contour>
    <contour>
      <point x="39" y="432" type="qcurve" smooth="yes"/>
      <point x="39" y="533"/>
      <point x="102" y="728"/>
      <point x="220" y="893"/>
      <point x="379" y="1019"/>
      <point x="583" y="1090"/>
      <point x="694" y="1090" type="qcurve" smooth="yes"/>
      <point x="854" y="1090"/>
      <point x="1054" y="947"/>
      <point x="1087" y="823" type="qcurve"/>
      <point x="854" y="754" type="line"/>
      <point x="832" y="824"/>
      <point x="729" y="897"/>
      <point x="655" y="897" type="qcurve" smooth="yes"/>
      <point x="557" y="897"/>
      <point x="381" y="781"/>
      <point x="272" y="578"/>
      <point x="272" y="459" type="qcurve" smooth="yes"/>
      <point x="272" y="334"/>
      <point x="400" y="172"/>
      <point x="502" y="172" type="qcurve" smooth="yes"/>
      <point x="578" y="172"/>
      <point x="731" y="257"/>
      <point x="766" y="319" type="qcurve"/>
      <point x="973" y="254" type="line"/>
      <point x="897" y="132"/>
      <point x="623" y="-20"/>
      <point x="467" y="-20" type="qcurve" smooth="yes"/>
      <point x="332" y="-20"/>
      <point x="135" y="104"/>
      <point x="39" y="306"/>
    </contour>
  </outline>
</glyph>
<glyph name="Emacron" format="2">
  <advance width="1185"/>
  <unicode hex="0112"/>
  <anchor x="0" y="0" name="Anchor-11"/>
  <anchor x="0" y="0" name="Anchor-10"/>
  <anchor x="870" y="1841" name="Anchor-9"/>
  <anchor x="981" y="0" name="Anchor-8"/>
  <anchor x="479" y="0" name="Anchor-7"/>
  <outline>
    <contour>
      <point x="551" y="1698" type="line"/>
      <point x="580" y="1841" type="line"/>
      <point x="1159" y="1841" type="line"/>
      <point x="1128" y="1698" type="line"/>
    </contour>
    <contour>
      <point x="340" y="1454" type="line"/>
      <point x="1272" y="1454" type="line"/>
      <point x="1229" y="1251" type="line"/>
      <point x="528" y="1251" type="line"/>
      <point x="440" y="838" type="line"/>
      <point x="1047" y="838" type="line"/>
      <point x="1008" y="647" type="line"/>
      <point x="399" y="647" type="line"/>
      <point x="305" y="203" type="line"/>
      <point x="1024" y="203" type="line"/>
      <point x="981" y="0" type="line"/>
      <point x="31" y="0" type="line"/>
    </contour>
  </outline>
</glyph>
<glyph name="Ebreve" format="2">
  <advance width="1185"/>
  <unicode hex="0114"/>
  <anchor x="0" y="0" name="Anchor-11"/>
  <anchor x="0" y="0" name="Anchor-10"/>
  <anchor x="879" y="1878" name="Anchor-9"/>
  <anchor x="981" y="0" name="Anchor-8"/>
  <anchor x="479" y="0" name="Anchor-7"/>
  <outline>
    <contour>
      <point x="989" y="1878" type="qcurve"/>
      <point x="1114" y="1878" type="line"/>
      <point x="1091" y="1770"/>
      <point x="925" y="1628"/>
      <point x="823" y="1628" type="qcurve" smooth="yes"/>
      <point x="736" y="1628"/>
      <point x="631" y="1734"/>
      <point x="631" y="1819" type="qcurve" smooth="yes"/>
      <point x="631" y="1838"/>
      <point x="639" y="1878" type="qcurve"/>
      <point x="764" y="1878" type="line"/>
      <point x="760" y="1854"/>
      <point x="760" y="1841" type="qcurve" smooth="yes"/>
      <point x="760" y="1796"/>
      <point x="808" y="1733"/>
      <point x="846" y="1733" type="qcurve" smooth="yes"/>
      <point x="889" y="1733"/>
      <point x="970" y="1815"/>
    </contour>
    <contour>
      <point x="340" y="1454" type="line"/>
      <point x="1272" y="1454" type="line"/>
      <point x="1229" y="1251" type="line"/>
      <point x="528" y="1251" type="line"/>
      <point x="440" y="838" type="line"/>
      <point x="1047" y="838" type="line"/>
      <point x="1008" y="647" type="line"/>
      <point x="399" y="647" type="line"/>
      <point x="305" y="203" type="line"/>
      <point x="1024" y="203" type="line"/>
      <point x="981" y="0" type="line"/>
      <point x="31" y="0" type="line"/>
    </contour>
  </outline>
</glyph>
<glyph name="Eogonek" format="2">
  <advance width="1185"/>
  <unicode hex="0118"/>
  <anchor x="0" y="0" name="Anchor-11"/>
  <anchor x="0" y="0" name="Anchor-10"/>
  <anchor x="788" y="1454" name="Anchor-9"/>
  <anchor x="981" y="0" name="Anchor-8"/>
  <anchor x="479" y="0" name="Anchor-7"/>
  <outline>
    <contour>
      <point x="1229" y="1251" type="line"/>
      <point x="528" y="1251" type="line"/>
      <point x="440" y="838" type="line"/>
      <point x="1047" y="838" type="line"/>
      <point x="1008" y="647" type="line"/>
      <point x="399" y="647" type="line"/>
      <point x="305" y="203" type="line"/>
      <point x="1024" y="203" type="line"/>
      <point x="981" y="0" type="line"/>
      <point x="896" y="-70"/>
      <point x="821" y="-162"/>
      <point x="821" y="-201" type="qcurve" smooth="yes"/>
      <point x="821" y="-258"/>
      <point x="913" y="-264" type="qcurve"/>
      <point x="834" y="-397" type="line"/>
      <point x="752" y="-387"/>
      <point x="674" y="-307"/>
      <point x="674" y="-252" type="qcurve" smooth="yes"/>
      <point x="674" y="-126"/>
      <point x="840" y="0" type="qcurve"/>
      <point x="31" y="0" type="line"/>
      <point x="340" y="1454" type="line"/>
      <point x="1272" y="1454" type="line"/>
    </contour>
  </outline>
</glyph>
<glyph name="eogonek" format="2">
  <advance width="1116"/>
  <unicode hex="0119"/>
  <anchor x="0" y="0" name="Anchor-11"/>
  <anchor x="0" y="0" name="Anchor-10"/>
  <anchor x="700" y="1069" name="Anchor-9"/>
  <anchor x="621" y="0" name="Anchor-8"/>
  <anchor x="471" y="0" name="Anchor-7"/>
  <outline>
    <contour>
      <point x="469" y="459" type="qcurve" smooth="yes"/>
      <point x="368" y="459"/>
      <point x="272" y="467" type="qcurve"/>
      <point x="270" y="453"/>
      <point x="270" y="428" type="qcurve" smooth="yes"/>
      <point x="270" y="302"/>
      <point x="390" y="145"/>
      <point x="508" y="145" type="qcurve" smooth="yes"/>
      <point x="596" y="145"/>
      <point x="760" y="234"/>
      <point x="807" y="309" type="qcurve"/>
      <point x="985" y="254" type="line"/>
      <point x="925" y="162"/>
      <point x="732" y="27"/>
      <point x="618" y="-2" type="qcurve"/>
      <point x="535" y="-71"/>
      <point x="461" y="-163"/>
      <point x="461" y="-201" type="qcurve" smooth="yes"/>
      <point x="461" y="-258"/>
      <point x="553" y="-264" type="qcurve"/>
      <point x="473" y="-397" type="line"/>
      <point x="391" y="-387"/>
      <point x="313" y="-307"/>
      <point x="313" y="-252" type="qcurve" smooth="yes"/>
      <point x="313" y="-138"/>
      <point x="455" y="-20" type="qcurve"/>
      <point x="262" y="-14"/>
      <point x="41" y="237"/>
      <point x="41" y="432" type="qcurve" smooth="yes"/>
      <point x="41" y="561"/>
      <point x="143" y="802"/>
      <point x="316" y="982"/>
      <point x="563" y="1090"/>
      <point x="700" y="1090" type="qcurve" smooth="yes"/>
      <point x="870" y="1090"/>
      <point x="1069" y="937"/>
      <point x="1069" y="795" type="qcurve" smooth="yes"/>
      <point x="1069" y="459"/>
    </contour>
    <contour>
      <point x="676" y="924" type="qcurve" smooth="yes"/>
      <point x="536" y="924"/>
      <point x="344" y="748"/>
      <point x="301" y="612" type="qcurve"/>
      <point x="393" y="606"/>
      <point x="473" y="606" type="qcurve" smooth="yes"/>
      <point x="860" y="606"/>
      <point x="860" y="788" type="qcurve" smooth="yes"/>
      <point x="860" y="855"/>
      <point x="763" y="924"/>
    </contour>
  </outline>
</glyph>
<glyph name="Ecaron" format="2">
  <advance width="1185"/>
  <unicode hex="011A"/>
  <anchor x="0" y="0" name="Anchor-11"/>
  <anchor x="0" y="0" name="Anchor-10"/>
  <anchor x="881" y="1878" name="Anchor-9"/>
  <anchor x="981" y="0" name="Anchor-8"/>
  <anchor x="479" y="0" name="Anchor-7"/>
  <outline>
    <contour>
      <point x="571" y="1821" type="line"/>
      <point x="702" y="1878" type="line"/>
      <point x="840" y="1749" type="line"/>
      <point x="1032" y="1878" type="line"/>
      <point x="1141" y="1821" type="line"/>
      <point x="895" y="1626" type="line"/>
      <point x="731" y="1626" type="line"/>
    </contour>
    <contour>
      <point x="340" y="1454" type="line"/>
      <point x="1272" y="1454" type="line"/>
      <point x="1229" y="1251" type="line"/>
      <point x="528" y="1251" type="line"/>
      <point x="440" y="838" type="line"/>
      <point x="1047" y="838" type="line"/>
      <point x="1008" y="647" type="line"/>
      <point x="399" y="647" type="line"/>
      <point x="305" y="203" type="line"/>
      <point x="1024" y="203" type="line"/>
      <point x="981" y="0" type="line"/>
      <point x="31" y="0" type="line"/>
    </contour>
  </outline>
</glyph>
<glyph name="Gcedilla" format="2">
  <advance width="1415"/>
  <unicode hex="0122"/>
  <anchor x="0" y="0" name="Anchor-11"/>
  <anchor x="0" y="0" name="Anchor-10"/>
  <anchor x="922" y="1450" name="Anchor-9"/>
  <anchor x="0" y="0" name="Anchor-8"/>
  <anchor x="637" y="0" name="Anchor-7"/>
  <outline>
    <contour>
      <point x="831" y="565" type="line"/>
      <point x="868" y="735" type="line"/>
      <point x="1346" y="735" type="line"/>
      <point x="1190" y="0" type="line"/>
      <point x="997" y="0" type="line"/>
      <point x="1036" y="180" type="line"/>
      <point x="822" y="-10"/>
      <point x="598" y="-10" type="qcurve" smooth="yes"/>
      <point x="446" y="-10"/>
      <point x="208" y="155"/>
      <point x="84" y="429"/>
      <point x="84" y="594" type="qcurve" smooth="yes"/>
      <point x="84" y="761"/>
      <point x="225" y="1082"/>
      <point x="454" y="1319"/>
      <point x="761" y="1464"/>
      <point x="920" y="1464" type="qcurve" smooth="yes"/>
      <point x="1111" y="1464"/>
      <point x="1350" y="1295"/>
      <point x="1391" y="1147" type="qcurve"/>
      <point x="1190" y="1020" type="line"/>
      <point x="1158" y="1136"/>
      <point x="989" y="1257"/>
      <point x="868" y="1257" type="qcurve" smooth="yes"/>
      <point x="724" y="1257"/>
      <point x="468" y="1070"/>
      <point x="319" y="772"/>
      <point x="319" y="612" type="qcurve" smooth="yes"/>
      <point x="319" y="434"/>
      <point x="506" y="197"/>
      <point x="659" y="197" type="qcurve" smooth="yes"/>
      <point x="873" y="197"/>
      <point x="1085" y="412" type="qcurve"/>
      <point x="1118" y="565" type="line"/>
    </contour>
    <contour>
      <point x="481" y="-279" type="line"/>
      <point x="520" y="-98" type="line"/>
      <point x="713" y="-98" type="line"/>
      <point x="674" y="-279" type="line"/>
      <point x="571" y="-436" type="line"/>
      <point x="465" y="-436" type="line"/>
      <point x="547" y="-279" type="line"/>
    </contour>
  </outline>
</glyph>
<glyph name="gcedilla" format="2">
  <advance width="1239"/>
  <unicode hex="0123"/>
  <anchor x="0" y="0" name="Anchor-11"/>
  <anchor x="0" y="0" name="Anchor-10"/>
  <anchor x="809" y="1493" name="Anchor-9"/>
  <anchor x="0" y="0" name="Anchor-8"/>
  <anchor x="0" y="0" name="Anchor-7"/>
  <outline>
    <contour>
      <point x="874" y="1493" type="line"/>
      <point x="799" y="1362" type="line"/>
      <point x="860" y="1362" type="line"/>
      <point x="815" y="1198" type="line"/>
      <point x="641" y="1198" type="line"/>
      <point x="686" y="1362" type="line"/>
      <point x="784" y="1493" type="line"/>
    </contour>
    <contour>
      <point x="-90" y="-227" type="qcurve"/>
      <point x="61" y="-109" type="line"/>
      <point x="100" y="-194"/>
      <point x="263" y="-285"/>
      <point x="369" y="-285" type="qcurve" smooth="yes"/>
      <point x="508" y="-285"/>
      <point x="724" y="-124"/>
      <point x="758" y="31" type="qcurve" smooth="yes"/>
      <point x="791" y="195" type="line"/>
      <point x="720" y="100"/>
      <point x="507" y="-10"/>
      <point x="401" y="-10" type="qcurve" smooth="yes"/>
      <point x="290" y="-10"/>
      <point x="123" y="110"/>
      <point x="39" y="304"/>
      <point x="39" y="422" type="qcurve" smooth="yes"/>
      <point x="39" y="551"/>
      <point x="138" y="796"/>
      <point x="301" y="979"/>
      <point x="525" y="1090"/>
      <point x="645" y="1090" type="qcurve" smooth="yes"/>
      <point x="762" y="1090"/>
      <point x="921" y="971"/>
      <point x="963" y="868" type="qcurve"/>
      <point x="1006" y="1071" type="line"/>
      <point x="1204" y="1071" type="line"/>
      <point x="983" y="31" type="line" smooth="yes"/>
      <point x="951" y="-120"/>
      <point x="759" y="-344"/>
      <point x="490" y="-457"/>
      <point x="334" y="-457" type="qcurve" smooth="yes"/>
      <point x="171" y="-457"/>
      <point x="-32" y="-340"/>
    </contour>
    <contour>
      <point x="831" y="385" type="qcurve"/>
      <point x="893" y="666" type="line"/>
      <point x="878" y="767"/>
      <point x="741" y="897"/>
      <point x="653" y="897" type="qcurve" smooth="yes"/>
      <point x="552" y="897"/>
      <point x="373" y="763"/>
      <point x="272" y="561"/>
      <point x="272" y="459" type="qcurve" smooth="yes"/>
      <point x="272" y="337"/>
      <point x="407" y="172"/>
      <point x="514" y="172" type="qcurve" smooth="yes"/>
      <point x="606" y="172"/>
      <point x="789" y="298"/>
    </contour>
  </outline>
</glyph>
<glyph name="Hcircumflex" format="2">
  <advance width="1464"/>
  <unicode hex="0124"/>
  <anchor x="0" y="0" name="Anchor-11"/>
  <anchor x="774" y="727" name="Anchor-10"/>
  <anchor x="1006" y="1878" name="Anchor-9"/>
  <anchor x="0" y="0" name="Anchor-8"/>
  <anchor x="621" y="0" name="Anchor-7"/>
  <outline>
    <contour>
      <point x="694" y="1683" type="line"/>
      <point x="938" y="1878" type="line"/>
      <point x="1102" y="1878" type="line"/>
      <point x="1262" y="1683" type="line"/>
      <point x="1130" y="1626" type="line"/>
      <point x="993" y="1755" type="line"/>
      <point x="801" y="1626" type="line"/>
    </contour>
    <contour>
      <point x="340" y="1454" type="line"/>
      <point x="571" y="1454" type="line"/>
      <point x="442" y="846" type="line"/>
      <point x="1122" y="846" type="line"/>
      <point x="1251" y="1454" type="line"/>
      <point x="1481" y="1454" type="line"/>
      <point x="1171" y="0" type="line"/>
      <point x="942" y="0" type="line"/>
      <point x="1079" y="641" type="line"/>
      <point x="399" y="641" type="line"/>
      <point x="262" y="0" type="line"/>
      <point x="31" y="0" type="line"/>
    </contour>
  </outline>
</glyph>
<glyph name="hcircumflex" format="2">
  <advance width="1175"/>
  <unicode hex="0125"/>
  <anchor x="0" y="0" name="Anchor-11"/>
  <anchor x="590" y="535" name="Anchor-10"/>
  <anchor x="860" y="1874" name="Anchor-9"/>
  <anchor x="0" y="0" name="Anchor-8"/>
  <anchor x="475" y="0" name="Anchor-7"/>
  <outline>
    <contour>
      <point x="573" y="1681" type="line"/>
      <point x="799" y="1874" type="line"/>
      <point x="950" y="1874" type="line"/>
      <point x="1098" y="1681" type="line"/>
      <point x="977" y="1624" type="line"/>
      <point x="850" y="1751" type="line"/>
      <point x="672" y="1624" type="line"/>
    </contour>
    <contour>
      <point x="317" y="1495" type="line"/>
      <point x="543" y="1495" type="line"/>
      <point x="408" y="856" type="line"/>
      <point x="490" y="965"/>
      <point x="716" y="1090"/>
      <point x="834" y="1090" type="qcurve" smooth="yes"/>
      <point x="1081" y="1090"/>
      <point x="1081" y="829" type="qcurve" smooth="yes"/>
      <point x="1081" y="740"/>
      <point x="1061" y="653" type="qcurve" smooth="yes"/>
      <point x="924" y="0" type="line"/>
      <point x="698" y="0" type="line"/>
      <point x="825" y="600" type="line" smooth="yes"/>
      <point x="840" y="684"/>
      <point x="840" y="721" type="qcurve" smooth="yes"/>
      <point x="840" y="805"/>
      <point x="767" y="889"/>
      <point x="698" y="889" type="qcurve" smooth="yes"/>
      <point x="612" y="889"/>
      <point x="415" y="745"/>
      <point x="362" y="637" type="qcurve"/>
      <point x="225" y="0" type="line"/>
      <point x="0" y="0" type="line"/>
    </contour>
  </outline>
</glyph>
<glyph name="Hbar" format="2">
  <advance width="1482"/>
  <unicode hex="0126"/>
  <outline>
    <contour>
      <point x="1542" y="1233" type="line"/>
      <point x="1518" y="1118" type="line"/>
      <point x="1421" y="1118" type="line"/>
      <point x="1184" y="0" type="line"/>
      <point x="952" y="0" type="line"/>
      <point x="1090" y="641" type="line"/>
      <point x="410" y="641" type="line"/>
      <point x="272" y="0" type="line"/>
      <point x="41" y="0" type="line"/>
      <point x="279" y="1118" type="line"/>
      <point x="182" y="1118" type="line"/>
      <point x="207" y="1233" type="line"/>
      <point x="303" y="1233" type="line"/>
      <point x="350" y="1454" type="line"/>
      <point x="582" y="1454" type="line"/>
      <point x="535" y="1233" type="line"/>
      <point x="1214" y="1233" type="line"/>
      <point x="1262" y="1454" type="line"/>
      <point x="1493" y="1454" type="line"/>
      <point x="1446" y="1233" type="line"/>
    </contour>
    <contour>
      <point x="1133" y="846" type="line"/>
      <point x="1190" y="1118" type="line"/>
      <point x="510" y="1118" type="line"/>
      <point x="453" y="846" type="line"/>
    </contour>
  </outline>
</glyph>
<glyph name="hbar" format="2">
  <advance width="1175"/>
  <unicode hex="0127"/>
  <anchor x="0" y="0" name="Anchor-11"/>
  <anchor x="590" y="535" name="Anchor-10"/>
  <anchor x="788" y="1454" name="Anchor-9"/>
  <anchor x="0" y="0" name="Anchor-8"/>
  <anchor x="475" y="0" name="Anchor-7"/>
  <outline>
    <contour>
      <point x="834" y="1090" type="qcurve" smooth="yes"/>
      <point x="1081" y="1090"/>
      <point x="1081" y="829" type="qcurve" smooth="yes"/>
      <point x="1081" y="740"/>
      <point x="1061" y="653" type="qcurve" smooth="yes"/>
      <point x="924" y="0" type="line"/>
      <point x="698" y="0" type="line"/>
      <point x="825" y="600" type="line" smooth="yes"/>
      <point x="840" y="684"/>
      <point x="840" y="721" type="qcurve" smooth="yes"/>
      <point x="840" y="805"/>
      <point x="767" y="889"/>
      <point x="698" y="889" type="qcurve" smooth="yes"/>
      <point x="612" y="889"/>
      <point x="415" y="745"/>
      <point x="362" y="637" type="qcurve"/>
      <point x="225" y="0" type="line"/>
      <point x="0" y="0" type="line"/>
      <point x="260" y="1221" type="line"/>
      <point x="129" y="1221" type="line"/>
      <point x="158" y="1360" type="line"/>
      <point x="289" y="1360" type="line"/>
      <point x="317" y="1495" type="line"/>
      <point x="543" y="1495" type="line"/>
      <point x="514" y="1360" type="line"/>
      <point x="713" y="1360" type="line"/>
      <point x="682" y="1221" type="line"/>
      <point x="485" y="1221" type="line"/>
      <point x="408" y="856" type="line"/>
      <point x="490" y="965"/>
      <point x="716" y="1090"/>
    </contour>
  </outline>
</glyph>
<glyph name="Itilde" format="2">
  <advance width="555"/>
  <unicode hex="0128"/>
  <anchor x="0" y="0" name="Anchor-11"/>
  <anchor x="0" y="0" name="Anchor-10"/>
  <anchor x="549" y="1878" name="Anchor-9"/>
  <anchor x="262" y="0" name="Anchor-8"/>
  <anchor x="150" y="0" name="Anchor-7"/>
  <outline>
    <contour>
      <point x="389" y="1731" type="qcurve" smooth="yes"/>
      <point x="364" y="1731"/>
      <point x="323" y="1712"/>
      <point x="298" y="1685"/>
      <point x="281" y="1655"/>
      <point x="274" y="1635"/>
      <point x="274" y="1632" type="qcurve"/>
      <point x="147" y="1632" type="line"/>
      <point x="150" y="1647"/>
      <point x="173" y="1699"/>
      <point x="220" y="1768"/>
      <point x="278" y="1827"/>
      <point x="365" y="1868"/>
      <point x="412" y="1868" type="qcurve" smooth="yes"/>
      <point x="451" y="1868"/>
      <point x="517" y="1840"/>
      <point x="556" y="1806"/>
      <point x="614" y="1778"/>
      <point x="645" y="1778" type="qcurve" smooth="yes"/>
      <point x="677" y="1778"/>
      <point x="730" y="1806"/>
      <point x="758" y="1846"/>
      <point x="770" y="1871"/>
      <point x="772" y="1878" type="qcurve"/>
      <point x="899" y="1878" type="line"/>
      <point x="897" y="1865"/>
      <point x="874" y="1815"/>
      <point x="826" y="1745"/>
      <point x="764" y="1685"/>
      <point x="673" y="1642"/>
      <point x="623" y="1642" type="qcurve" smooth="yes"/>
      <point x="584" y="1642"/>
      <point x="514" y="1670"/>
      <point x="473" y="1703"/>
      <point x="417" y="1731"/>
    </contour>
    <contour>
      <point x="340" y="1452" type="line"/>
      <point x="571" y="1452" type="line"/>
      <point x="262" y="0" type="line"/>
      <point x="31" y="0" type="line"/>
    </contour>
  </outline>
</glyph>
<glyph name="itilde" format="2">
  <advance width="489"/>
  <unicode hex="0129"/>
  <anchor x="0" y="0" name="Anchor-11"/>
  <anchor x="0" y="0" name="Anchor-10"/>
  <anchor x="567" y="1473" name="Anchor-9"/>
  <anchor x="326" y="20" name="Anchor-8"/>
  <anchor x="113" y="0" name="Anchor-7"/>
  <outline>
    <contour>
      <point x="408" y="1325" type="qcurve" smooth="yes"/>
      <point x="383" y="1325"/>
      <point x="342" y="1306"/>
      <point x="317" y="1280"/>
      <point x="300" y="1250"/>
      <point x="293" y="1230"/>
      <point x="293" y="1227" type="qcurve"/>
      <point x="166" y="1227" type="line"/>
      <point x="169" y="1242"/>
      <point x="192" y="1294"/>
      <point x="238" y="1362"/>
      <point x="297" y="1421"/>
      <point x="383" y="1462"/>
      <point x="430" y="1462" type="qcurve" smooth="yes"/>
      <point x="479" y="1462"/>
      <point x="556" y="1417"/>
      <point x="625" y="1372"/>
      <point x="664" y="1372" type="qcurve" smooth="yes"/>
      <point x="696" y="1372"/>
      <point x="749" y="1400"/>
      <point x="777" y="1440"/>
      <point x="789" y="1466"/>
      <point x="791" y="1473" type="qcurve"/>
      <point x="918" y="1473" type="line"/>
      <point x="915" y="1456"/>
      <point x="877" y="1386"/>
      <point x="811" y="1300"/>
      <point x="702" y="1237"/>
      <point x="641" y="1237" type="qcurve" smooth="yes"/>
      <point x="602" y="1237"/>
      <point x="533" y="1264"/>
      <point x="491" y="1298"/>
      <point x="436" y="1325"/>
    </contour>
    <contour>
      <point x="229" y="1071" type="line"/>
      <point x="455" y="1071" type="line"/>
      <point x="225" y="0" type="line"/>
      <point x="0" y="0" type="line"/>
    </contour>
  </outline>
</glyph>
<glyph name="Imacron" format="2">
  <advance width="555"/>
  <unicode hex="012A"/>
  <anchor x="0" y="0" name="Anchor-11"/>
  <anchor x="0" y="0" name="Anchor-10"/>
  <anchor x="541" y="1841" name="Anchor-9"/>
  <anchor x="262" y="0" name="Anchor-8"/>
  <anchor x="150" y="0" name="Anchor-7"/>
  <outline>
    <contour>
      <point x="221" y="1698" type="line"/>
      <point x="250" y="1841" type="line"/>
      <point x="829" y="1841" type="line"/>
      <point x="799" y="1698" type="line"/>
    </contour>
    <contour>
      <point x="340" y="1452" type="line"/>
      <point x="571" y="1452" type="line"/>
      <point x="262" y="0" type="line"/>
      <point x="31" y="0" type="line"/>
    </contour>
  </outline>
</glyph>
<glyph name="imacron" format="2">
  <advance width="489"/>
  <unicode hex="012B"/>
  <anchor x="0" y="0" name="Anchor-11"/>
  <anchor x="0" y="0" name="Anchor-10"/>
  <anchor x="420" y="1458" name="Anchor-9"/>
  <anchor x="326" y="20" name="Anchor-8"/>
  <anchor x="113" y="0" name="Anchor-7"/>
  <outline>
    <contour>
      <point x="100" y="1315" type="line"/>
      <point x="129" y="1458" type="line"/>
      <point x="709" y="1458" type="line"/>
      <point x="678" y="1315" type="line"/>
    </contour>
    <contour>
      <point x="229" y="1071" type="line"/>
      <point x="455" y="1071" type="line"/>
      <point x="225" y="0" type="line"/>
      <point x="0" y="0" type="line"/>
    </contour>
  </outline>
</glyph>
<glyph name="Ibreve" format="2">
  <advance width="555"/>
  <unicode hex="012C"/>
  <anchor x="0" y="0" name="Anchor-11"/>
  <anchor x="0" y="0" name="Anchor-10"/>
  <anchor x="549" y="1878" name="Anchor-9"/>
  <anchor x="262" y="0" name="Anchor-8"/>
  <anchor x="150" y="0" name="Anchor-7"/>
  <outline>
    <contour>
      <point x="659" y="1878" type="qcurve"/>
      <point x="784" y="1878" type="line"/>
      <point x="761" y="1770"/>
      <point x="596" y="1628"/>
      <point x="494" y="1628" type="qcurve" smooth="yes"/>
      <point x="407" y="1628"/>
      <point x="301" y="1734"/>
      <point x="301" y="1819" type="qcurve" smooth="yes"/>
      <point x="301" y="1838"/>
      <point x="309" y="1878" type="qcurve"/>
      <point x="434" y="1878" type="line"/>
      <point x="430" y="1854"/>
      <point x="430" y="1841" type="qcurve" smooth="yes"/>
      <point x="430" y="1796"/>
      <point x="478" y="1733"/>
      <point x="516" y="1733" type="qcurve" smooth="yes"/>
      <point x="559" y="1733"/>
      <point x="640" y="1815"/>
    </contour>
    <contour>
      <point x="340" y="1452" type="line"/>
      <point x="571" y="1452" type="line"/>
      <point x="262" y="0" type="line"/>
      <point x="31" y="0" type="line"/>
    </contour>
  </outline>
</glyph>
<glyph name="ibreve" format="2">
  <advance width="489"/>
  <unicode hex="012D"/>
  <anchor x="0" y="0" name="Anchor-11"/>
  <anchor x="0" y="0" name="Anchor-10"/>
  <anchor x="428" y="1495" name="Anchor-9"/>
  <anchor x="326" y="20" name="Anchor-8"/>
  <anchor x="113" y="0" name="Anchor-7"/>
  <outline>
    <contour>
      <point x="539" y="1495" type="qcurve"/>
      <point x="664" y="1495" type="line"/>
      <point x="641" y="1387"/>
      <point x="475" y="1245"/>
      <point x="373" y="1245" type="qcurve" smooth="yes"/>
      <point x="286" y="1245"/>
      <point x="180" y="1351"/>
      <point x="180" y="1436" type="qcurve" smooth="yes"/>
      <point x="180" y="1455"/>
      <point x="188" y="1495" type="qcurve"/>
      <point x="313" y="1495" type="line"/>
      <point x="309" y="1471"/>
      <point x="309" y="1458" type="qcurve" smooth="yes"/>
      <point x="309" y="1413"/>
      <point x="357" y="1350"/>
      <point x="395" y="1350" type="qcurve" smooth="yes"/>
      <point x="438" y="1350"/>
      <point x="520" y="1432"/>
    </contour>
    <contour>
      <point x="229" y="1071" type="line"/>
      <point x="455" y="1071" type="line"/>
      <point x="225" y="0" type="line"/>
      <point x="0" y="0" type="line"/>
    </contour>
  </outline>
</glyph>
<glyph name="Iogonek" format="2">
  <advance width="555"/>
  <unicode hex="012E"/>
  <anchor x="0" y="0" name="Anchor-11"/>
  <anchor x="0" y="0" name="Anchor-10"/>
  <anchor x="459" y="1454" name="Anchor-9"/>
  <anchor x="262" y="0" name="Anchor-8"/>
  <anchor x="150" y="0" name="Anchor-7"/>
  <outline>
    <contour>
      <point x="262" y="0" type="line"/>
      <point x="177" y="-70"/>
      <point x="102" y="-162"/>
      <point x="102" y="-201" type="qcurve" smooth="yes"/>
      <point x="102" y="-258"/>
      <point x="195" y="-264" type="qcurve"/>
      <point x="115" y="-397" type="line"/>
      <point x="33" y="-387"/>
      <point x="-45" y="-307"/>
      <point x="-45" y="-252" type="qcurve" smooth="yes"/>
      <point x="-45" y="-126"/>
      <point x="121" y="0" type="qcurve"/>
      <point x="31" y="0" type="line"/>
      <point x="340" y="1452" type="line"/>
      <point x="571" y="1452" type="line"/>
    </contour>
  </outline>
</glyph>
<glyph name="iogonek" format="2">
  <advance width="489"/>
  <unicode hex="012F"/>
  <anchor x="0" y="0" name="Anchor-11"/>
  <anchor x="0" y="0" name="Anchor-10"/>
  <anchor x="0" y="0" name="Anchor-9"/>
  <anchor x="225" y="0" name="Anchor-8"/>
  <anchor x="115" y="0" name="Anchor-7"/>
  <outline>
    <contour>
      <point x="317" y="1495" type="line"/>
      <point x="543" y="1495" type="line"/>
      <point x="492" y="1247" type="line"/>
      <point x="266" y="1247" type="line"/>
    </contour>
    <contour>
      <point x="0" y="0" type="line"/>
      <point x="229" y="1071" type="line"/>
      <point x="455" y="1071" type="line"/>
      <point x="225" y="0" type="line"/>
      <point x="141" y="-69"/>
      <point x="66" y="-162"/>
      <point x="66" y="-201" type="qcurve" smooth="yes"/>
      <point x="66" y="-258"/>
      <point x="158" y="-264" type="qcurve"/>
      <point x="78" y="-397" type="line"/>
      <point x="-4" y="-387"/>
      <point x="-82" y="-307"/>
      <point x="-82" y="-252" type="qcurve" smooth="yes"/>
      <point x="-82" y="-126"/>
      <point x="84" y="0" type="qcurve"/>
    </contour>
  </outline>
</glyph>
<glyph name="Idotaccent" format="2">
  <advance width="555"/>
  <unicode hex="0130"/>
  <anchor x="0" y="0" name="Anchor-11"/>
  <anchor x="0" y="0" name="Anchor-10"/>
  <anchor x="549" y="1878" name="Anchor-9"/>
  <anchor x="262" y="0" name="Anchor-8"/>
  <anchor x="150" y="0" name="Anchor-7"/>
  <outline>
    <contour>
      <point x="397" y="1642" type="line"/>
      <point x="449" y="1878" type="line"/>
      <point x="649" y="1878" type="line"/>
      <point x="600" y="1642" type="line"/>
    </contour>
    <contour>
      <point x="340" y="1452" type="line"/>
      <point x="571" y="1452" type="line"/>
      <point x="262" y="0" type="line"/>
      <point x="31" y="0" type="line"/>
    </contour>
  </outline>
</glyph>
<glyph name="jcircumflex" format="2">
  <advance width="489"/>
  <unicode hex="0135"/>
  <anchor x="0" y="0" name="Anchor-11"/>
  <anchor x="0" y="0" name="Anchor-10"/>
  <anchor x="436" y="1495" name="Anchor-9"/>
  <anchor x="0" y="0" name="Anchor-8"/>
  <anchor x="131" y="0" name="Anchor-7"/>
  <outline>
    <contour>
      <point x="125" y="1300" type="line"/>
      <point x="369" y="1495" type="line"/>
      <point x="532" y="1495" type="line"/>
      <point x="692" y="1300" type="line"/>
      <point x="561" y="1243" type="line"/>
      <point x="424" y="1372" type="line"/>
      <point x="231" y="1243" type="line"/>
    </contour>
    <contour>
      <point x="-426" y="-299" type="qcurve"/>
      <point x="-293" y="-147" type="line"/>
      <point x="-257" y="-195"/>
      <point x="-180" y="-195" type="qcurve" smooth="yes"/>
      <point x="-123" y="-195"/>
      <point x="-21" y="-105"/>
      <point x="-8" y="-39" type="qcurve" smooth="yes"/>
      <point x="227" y="1071" type="line"/>
      <point x="455" y="1071" type="line"/>
      <point x="221" y="-23" type="line" smooth="yes"/>
      <point x="186" y="-183"/>
      <point x="-55" y="-391"/>
      <point x="-197" y="-391" type="qcurve" smooth="yes"/>
      <point x="-346" y="-391"/>
    </contour>
  </outline>
</glyph>
<glyph name="Kcedilla" format="2">
  <advance width="1298"/>
  <unicode hex="0136"/>
  <anchor x="0" y="0" name="Anchor-11"/>
  <anchor x="0" y="0" name="Anchor-10"/>
  <anchor x="0" y="0" name="Anchor-9"/>
  <anchor x="0" y="0" name="Anchor-8"/>
  <anchor x="569" y="0" name="Anchor-7"/>
  <outline>
    <contour>
      <point x="340" y="1452" type="line"/>
      <point x="571" y="1452" type="line"/>
      <point x="412" y="705" type="line"/>
      <point x="1202" y="1454" type="line"/>
      <point x="1458" y="1454" type="line"/>
      <point x="780" y="811" type="line"/>
      <point x="1180" y="0" type="line"/>
      <point x="922" y="0" type="line"/>
      <point x="606" y="670" type="line"/>
      <point x="354" y="438" type="line"/>
      <point x="262" y="0" type="line"/>
      <point x="31" y="0" type="line"/>
    </contour>
    <contour>
      <point x="397" y="-436" type="line"/>
      <point x="479" y="-279" type="line"/>
      <point x="414" y="-279" type="line"/>
      <point x="453" y="-98" type="line"/>
      <point x="645" y="-98" type="line"/>
      <point x="606" y="-279" type="line"/>
      <point x="504" y="-436" type="line"/>
    </contour>
  </outline>
</glyph>
<glyph name="kcedilla" format="2">
  <advance width="1128"/>
  <unicode hex="0137"/>
  <anchor x="0" y="0" name="Anchor-11"/>
  <anchor x="0" y="0" name="Anchor-10"/>
  <anchor x="0" y="0" name="Anchor-9"/>
  <anchor x="0" y="0" name="Anchor-8"/>
  <anchor x="455" y="0" name="Anchor-7"/>
  <outline>
    <contour>
      <point x="1073" y="864" type="qcurve" smooth="yes"/>
      <point x="1073" y="731"/>
      <point x="903" y="506"/>
      <point x="745" y="436" type="qcurve"/>
      <point x="965" y="0" type="line"/>
      <point x="723" y="0" type="line"/>
      <point x="492" y="504" type="line"/>
      <point x="669" y="542"/>
      <point x="868" y="712"/>
      <point x="868" y="809" type="qcurve" smooth="yes"/>
      <point x="868" y="901"/>
      <point x="774" y="901" type="qcurve" smooth="yes"/>
      <point x="653" y="901"/>
      <point x="393" y="655"/>
      <point x="328" y="481" type="qcurve"/>
      <point x="225" y="0" type="line"/>
      <point x="0" y="0" type="line"/>
      <point x="317" y="1495" type="line"/>
      <point x="543" y="1495" type="line"/>
      <point x="393" y="793" type="line"/>
      <point x="605" y="1087"/>
      <point x="854" y="1087" type="qcurve" smooth="yes"/>
      <point x="962" y="1087"/>
      <point x="1073" y="968"/>
    </contour>
    <contour>
      <point x="299" y="-279" type="line"/>
      <point x="338" y="-98" type="line"/>
      <point x="530" y="-98" type="line"/>
      <point x="492" y="-279" type="line"/>
      <point x="389" y="-436" type="line"/>
      <point x="283" y="-436" type="line"/>
      <point x="365" y="-279" type="line"/>
    </contour>
  </outline>
</glyph>
<glyph name="kgreenlandic" format="2">
  <advance width="1081"/>
  <unicode hex="0138"/>
  <outline>
    <contour>
      <point x="229" y="1071" type="line"/>
      <point x="455" y="1071" type="line"/>
      <point x="342" y="547" type="line"/>
      <point x="907" y="1069" type="line"/>
      <point x="1149" y="1069" type="line"/>
      <point x="664" y="621" type="line"/>
      <point x="948" y="0" type="line"/>
      <point x="707" y="0" type="line"/>
      <point x="494" y="494" type="line"/>
      <point x="295" y="326" type="line"/>
      <point x="225" y="0" type="line"/>
      <point x="0" y="0" type="line"/>
    </contour>
  </outline>
</glyph>
<glyph name="Lacute" format="2">
  <advance width="1146"/>
  <unicode hex="0139"/>
  <anchor x="958" y="1071" name="Anchor-11"/>
  <anchor x="614" y="727" name="Anchor-10"/>
  <anchor x="584" y="1880" name="Anchor-9"/>
  <anchor x="0" y="0" name="Anchor-8"/>
  <anchor x="512" y="0" name="Anchor-7"/>
  <outline>
    <contour>
      <point x="537" y="1618" type="line"/>
      <point x="393" y="1655" type="line"/>
      <point x="549" y="1880" type="line"/>
      <point x="764" y="1880" type="line"/>
    </contour>
    <contour>
      <point x="340" y="1454" type="line"/>
      <point x="571" y="1454" type="line"/>
      <point x="305" y="203" type="line"/>
      <point x="1036" y="203" type="line"/>
      <point x="993" y="0" type="line"/>
      <point x="31" y="0" type="line"/>
    </contour>
  </outline>
</glyph>
<glyph name="lacute" format="2">
  <advance width="602"/>
  <unicode hex="013A"/>
  <anchor x="600" y="1071" name="Anchor-11"/>
  <anchor x="301" y="535" name="Anchor-10"/>
  <anchor x="571" y="1921" name="Anchor-9"/>
  <anchor x="0" y="0" name="Anchor-8"/>
  <anchor x="258" y="0" name="Anchor-7"/>
  <outline>
    <contour>
      <point x="524" y="1659" type="line"/>
      <point x="381" y="1696" type="line"/>
      <point x="537" y="1921" type="line"/>
      <point x="752" y="1921" type="line"/>
    </contour>
    <contour>
      <point x="43" y="158" type="qcurve" smooth="yes"/>
      <point x="43" y="194"/>
      <point x="51" y="227" type="qcurve" smooth="yes"/>
      <point x="319" y="1495" type="line"/>
      <point x="543" y="1495" type="line"/>
      <point x="293" y="309" type="line" smooth="yes"/>
      <point x="287" y="288"/>
      <point x="287" y="268" type="qcurve" smooth="yes"/>
      <point x="287" y="228"/>
      <point x="334" y="182"/>
      <point x="416" y="182"/>
      <point x="487" y="209" type="qcurve"/>
      <point x="479" y="33" type="line"/>
      <point x="427" y="11"/>
      <point x="291" y="-16"/>
      <point x="238" y="-16" type="qcurve" smooth="yes"/>
      <point x="144" y="-16"/>
      <point x="43" y="75"/>
    </contour>
  </outline>
</glyph>
<glyph name="Lcedilla" format="2">
  <advance width="1146"/>
  <unicode hex="013B"/>
  <anchor x="958" y="1071" name="Anchor-11"/>
  <anchor x="614" y="727" name="Anchor-10"/>
  <anchor x="438" y="1454" name="Anchor-9"/>
  <anchor x="0" y="0" name="Anchor-8"/>
  <anchor x="512" y="0" name="Anchor-7"/>
  <outline>
    <contour>
      <point x="340" y="1454" type="line"/>
      <point x="571" y="1454" type="line"/>
      <point x="305" y="203" type="line"/>
      <point x="1036" y="203" type="line"/>
      <point x="993" y="0" type="line"/>
      <point x="31" y="0" type="line"/>
    </contour>
    <contour>
      <point x="340" y="-436" type="line"/>
      <point x="422" y="-279" type="line"/>
      <point x="356" y="-279" type="line"/>
      <point x="395" y="-98" type="line"/>
      <point x="588" y="-98" type="line"/>
      <point x="549" y="-279" type="line"/>
      <point x="446" y="-436" type="line"/>
    </contour>
  </outline>
</glyph>
<glyph name="lcedilla" format="2">
  <advance width="602"/>
  <unicode hex="013C"/>
  <anchor x="600" y="1071" name="Anchor-11"/>
  <anchor x="301" y="535" name="Anchor-10"/>
  <anchor x="426" y="1495" name="Anchor-9"/>
  <anchor x="0" y="0" name="Anchor-8"/>
  <anchor x="258" y="0" name="Anchor-7"/>
  <outline>
    <contour>
      <point x="43" y="158" type="qcurve" smooth="yes"/>
      <point x="43" y="194"/>
      <point x="51" y="227" type="qcurve" smooth="yes"/>
      <point x="319" y="1495" type="line"/>
      <point x="543" y="1495" type="line"/>
      <point x="293" y="309" type="line" smooth="yes"/>
      <point x="287" y="288"/>
      <point x="287" y="268" type="qcurve" smooth="yes"/>
      <point x="287" y="228"/>
      <point x="334" y="182"/>
      <point x="416" y="182"/>
      <point x="487" y="209" type="qcurve"/>
      <point x="479" y="33" type="line"/>
      <point x="427" y="11"/>
      <point x="291" y="-16"/>
      <point x="238" y="-16" type="qcurve" smooth="yes"/>
      <point x="144" y="-16"/>
      <point x="43" y="75"/>
    </contour>
    <contour>
      <point x="86" y="-436" type="line"/>
      <point x="168" y="-279" type="line"/>
      <point x="102" y="-279" type="line"/>
      <point x="141" y="-98" type="line"/>
      <point x="334" y="-98" type="line"/>
      <point x="295" y="-279" type="line"/>
      <point x="193" y="-436" type="line"/>
    </contour>
  </outline>
</glyph>
<glyph name="Lcaron" format="2">
  <advance width="1146"/>
  <unicode hex="013D"/>
  <anchor x="958" y="1071" name="Anchor-11"/>
  <anchor x="614" y="727" name="Anchor-10"/>
  <anchor x="438" y="1454" name="Anchor-9"/>
  <anchor x="0" y="0" name="Anchor-8"/>
  <anchor x="512" y="0" name="Anchor-7"/>
  <outline>
    <contour>
      <point x="899" y="1270" type="line"/>
      <point x="1057" y="1495" type="line"/>
      <point x="1270" y="1495" type="line"/>
      <point x="1036" y="1225" type="line"/>
    </contour>
    <contour>
      <point x="340" y="1454" type="line"/>
      <point x="571" y="1454" type="line"/>
      <point x="305" y="203" type="line"/>
      <point x="1036" y="203" type="line"/>
      <point x="993" y="0" type="line"/>
      <point x="31" y="0" type="line"/>
    </contour>
  </outline>
</glyph>
<glyph name="Ldot" format="2">
  <advance width="1146"/>
  <unicode hex="013F"/>
  <anchor x="958" y="1071" name="Anchor-11"/>
  <anchor x="614" y="727" name="Anchor-10"/>
  <anchor x="438" y="1454" name="Anchor-9"/>
  <anchor x="0" y="0" name="Anchor-8"/>
  <anchor x="512" y="0" name="Anchor-7"/>
  <outline>
    <contour>
      <point x="340" y="1454" type="line"/>
      <point x="571" y="1454" type="line"/>
      <point x="305" y="203" type="line"/>
      <point x="1036" y="203" type="line"/>
      <point x="993" y="0" type="line"/>
      <point x="31" y="0" type="line"/>
    </contour>
    <contour>
      <point x="678" y="698" type="line"/>
      <point x="737" y="979" type="line"/>
      <point x="924" y="979" type="line"/>
      <point x="864" y="698" type="line"/>
    </contour>
  </outline>
</glyph>
<glyph name="Lslash" format="2">
  <advance width="1161"/>
  <unicode hex="0141"/>
  <anchor x="958" y="1071" name="Anchor-11"/>
  <anchor x="614" y="727" name="Anchor-10"/>
  <anchor x="438" y="1454" name="Anchor-9"/>
  <anchor x="0" y="0" name="Anchor-8"/>
  <anchor x="512" y="0" name="Anchor-7"/>
  <outline>
    <contour>
      <point x="305" y="203" type="line"/>
      <point x="1036" y="203" type="line"/>
      <point x="993" y="0" type="line"/>
      <point x="31" y="0" type="line"/>
      <point x="147" y="551" type="line"/>
      <point x="45" y="485" type="line"/>
      <point x="12" y="610" type="line"/>
      <point x="184" y="719" type="line"/>
      <point x="340" y="1454" type="line"/>
      <point x="571" y="1454" type="line"/>
      <point x="451" y="889" type="line"/>
      <point x="743" y="1073" type="line"/>
      <point x="776" y="950" type="line"/>
      <point x="416" y="721" type="line"/>
    </contour>
  </outline>
</glyph>
<glyph name="lslash" format="2">
  <advance width="657"/>
  <unicode hex="0142"/>
  <outline>
    <contour>
      <point x="340" y="268" type="qcurve" smooth="yes"/>
      <point x="340" y="228"/>
      <point x="386" y="182"/>
      <point x="470" y="182"/>
      <point x="541" y="209" type="qcurve"/>
      <point x="532" y="33" type="line"/>
      <point x="410" y="-16"/>
      <point x="291" y="-16" type="qcurve" smooth="yes"/>
      <point x="197" y="-16"/>
      <point x="94" y="75"/>
      <point x="94" y="158" type="qcurve" smooth="yes"/>
      <point x="94" y="177"/>
      <point x="102" y="227" type="qcurve" smooth="yes"/>
      <point x="190" y="643" type="line"/>
      <point x="59" y="565" type="line"/>
      <point x="27" y="690" type="line"/>
      <point x="225" y="809" type="line"/>
      <point x="371" y="1495" type="line"/>
      <point x="596" y="1495" type="line"/>
      <point x="483" y="963" type="line"/>
      <point x="666" y="1071" type="line"/>
      <point x="700" y="948" type="line"/>
      <point x="449" y="799" type="line"/>
      <point x="352" y="342" type="line" smooth="yes"/>
      <point x="340" y="296"/>
    </contour>
  </outline>
</glyph>
<glyph name="Nacute" format="2">
  <advance width="1507"/>
  <unicode hex="0143"/>
  <anchor x="0" y="0" name="Anchor-11"/>
  <anchor x="0" y="0" name="Anchor-10"/>
  <anchor x="1098" y="1876" name="Anchor-9"/>
  <anchor x="0" y="0" name="Anchor-8"/>
  <anchor x="641" y="0" name="Anchor-7"/>
  <outline>
    <contour>
      <point x="1051" y="1614" type="line"/>
      <point x="907" y="1651" type="line"/>
      <point x="1063" y="1876" type="line"/>
      <point x="1278" y="1876" type="line"/>
    </contour>
    <contour>
      <point x="340" y="1454" type="line"/>
      <point x="520" y="1454" type="line"/>
      <point x="1071" y="406" type="line"/>
      <point x="1292" y="1452" type="line"/>
      <point x="1524" y="1452" type="line"/>
      <point x="1214" y="0" type="line"/>
      <point x="1026" y="0" type="line"/>
      <point x="479" y="1024" type="line"/>
      <point x="262" y="0" type="line"/>
      <point x="31" y="0" type="line"/>
    </contour>
  </outline>
</glyph>
<glyph name="Ncedilla" format="2">
  <advance width="1507"/>
  <unicode hex="0145"/>
  <anchor x="0" y="0" name="Anchor-11"/>
  <anchor x="0" y="0" name="Anchor-10"/>
  <anchor x="952" y="1450" name="Anchor-9"/>
  <anchor x="0" y="0" name="Anchor-8"/>
  <anchor x="641" y="0" name="Anchor-7"/>
  <outline>
    <contour>
      <point x="340" y="1454" type="line"/>
      <point x="520" y="1454" type="line"/>
      <point x="1071" y="406" type="line"/>
      <point x="1292" y="1452" type="line"/>
      <point x="1524" y="1452" type="line"/>
      <point x="1214" y="0" type="line"/>
      <point x="1026" y="0" type="line"/>
      <point x="479" y="1024" type="line"/>
      <point x="262" y="0" type="line"/>
      <point x="31" y="0" type="line"/>
    </contour>
    <contour>
      <point x="469" y="-436" type="line"/>
      <point x="551" y="-279" type="line"/>
      <point x="485" y="-279" type="line"/>
      <point x="524" y="-98" type="line"/>
      <point x="717" y="-98" type="line"/>
      <point x="678" y="-279" type="line"/>
      <point x="575" y="-436" type="line"/>
    </contour>
  </outline>
</glyph>
